<svg xmlns="http://www.w3.org/2000/svg" viewBox="0 0 11 18"><path d="M6 15H5c-.3 0-.5.2-.5.5s.2.5.5.5h1c.3 0 .5-.2.5-.5S6.3 15 6 15zm3.3-.5c.2 0 .2.1.2.2v.7c0 .6-.5 1-1 1h-6c-.5 0-1-.5-1-1v-.7c0-.2.1-.2.2-.2h7.6zm0-9.5c.2 0 .2.1.2.2v7.5c0 .2-.1.2-.2.2H1.8c-.2 0-.2-.1-.2-.2V5.2c-.1-.1 0-.2.2-.2h7.5zM6 2H5c-.3 0-.5.2-.5.5s.2.5.5.5h1c.3 0 .5-.2.5-.5S6.3 2 6 2zm2.5-.5c.6 0 1 .5 1 1v.7c0 .2-.1.2-.2.2H1.8c-.2 0-.2-.1-.2-.2v-.7c0-.6.5-1 1-1h5.9zm0-1.5h-6C1.1 0 0 1.1 0 2.5v13C0 16.9 1.1 18 2.5 18h6c1.4 0 2.5-1.1 2.5-2.5v-13C11 1.1 9.9 0 8.5 0z"/></svg>