<svg width="186" height="50" viewBox="0 0 186 50" fill="none" xmlns="http://www.w3.org/2000/svg"><path d="M46.859 0V1.53846H48.3974V0H46.859ZM46.859 3.07692V4.61538H48.3974V3.07692H46.859ZM42.2436 4.61538V6.15385H43.7821V4.61538H42.2436Z" fill="#FDB511"/><path d="M22.1154 5.76923C9.89947 5.76923 0 15.6687 0 27.8846C0 40.1005 9.89947 50 22.1154 50C34.3313 50 44.2308 40.1005 44.2308 27.8846C44.2308 15.6687 34.3313 5.76923 22.1154 5.76923ZM22.1154 12.8205C30.4272 12.8205 37.1795 19.5728 37.1795 27.8846C37.1795 36.1965 30.4272 42.9487 22.1154 42.9487C13.8035 42.9487 7.11539 36.1965 7.11539 27.8846C7.11539 19.5728 13.8035 12.8205 22.1154 12.8205Z" fill="#FDB511"/><path d="M57.0641 39.5872C53.8846 39.5872 51.218 38.7975 49.0641 37.218L51.1257 33.8334C52.8487 35.0436 54.7974 35.6487 56.9718 35.6487C58.0385 35.6487 58.8795 35.4436 59.4949 35.0334C60.1103 34.6026 60.418 34.0077 60.418 33.2487C60.418 33.0436 60.3974 32.859 60.3564 32.6949C60.3154 32.5308 60.2436 32.377 60.141 32.2334C60.0385 32.0693 59.9359 31.9359 59.8333 31.8334C59.7308 31.7103 59.5667 31.5872 59.341 31.4641C59.1359 31.3411 58.9513 31.2385 58.7872 31.1564C58.6436 31.0744 58.4077 30.9718 58.0795 30.8487C57.7513 30.7257 57.4744 30.6334 57.2487 30.5718C57.0436 30.4898 56.7257 30.3769 56.2949 30.2334C55.8641 30.0898 55.5051 29.9667 55.218 29.8641C54.459 29.5975 53.8128 29.3205 53.2795 29.0334C52.7462 28.7257 52.2026 28.3359 51.6487 27.8641C51.0949 27.3718 50.6744 26.7564 50.3872 26.018C50.1 25.259 49.9564 24.3975 49.9564 23.4334C49.9564 21.4847 50.6333 19.977 51.9872 18.9103C53.341 17.8231 55.1256 17.2795 57.341 17.2795C60.0077 17.2795 62.1718 17.7718 63.8333 18.7564L62.2641 22.2949C60.7051 21.5565 59.1154 21.1872 57.4949 21.1872C55.3615 21.1872 54.2949 21.8847 54.2949 23.2795C54.2949 23.6077 54.3564 23.8949 54.4795 24.141C54.6026 24.3872 54.7359 24.5923 54.8795 24.7564C55.0231 24.9206 55.2795 25.0847 55.6487 25.2487C56.0385 25.4129 56.3564 25.5359 56.6026 25.618C56.8692 25.7 57.3 25.8334 57.8949 26.018C58.1615 26.1 58.3667 26.1616 58.5103 26.2026C59.2282 26.4282 59.8436 26.6436 60.3564 26.8487C60.8692 27.0539 61.4333 27.3513 62.0487 27.741C62.6641 28.1103 63.1667 28.5308 63.5564 29.0026C63.9462 29.4744 64.2744 30.0693 64.541 30.7872C64.8077 31.5052 64.941 32.3052 64.941 33.1872C64.941 35.1154 64.2538 36.6641 62.8795 37.8334C61.5256 39.0026 59.5872 39.5872 57.0641 39.5872Z" fill="black"/><path d="M72.5348 40.018L66.7194 23.3719H71.5502L74.5348 35.0026L77.0579 23.3719H81.5809L76.8117 39.4949C75.704 43.2283 73.3963 45.0949 69.8886 45.0949C69.0681 45.0949 68.1963 45.0026 67.2732 44.818L67.7655 41.5565C68.5861 41.6385 69.1091 41.6796 69.3348 41.6796C70.1758 41.6795 70.8322 41.5462 71.304 41.2796C71.7758 41.0334 72.1861 40.6129 72.5348 40.018" fill="black"/><path d="M96.8367 25.4642C98.3751 23.8232 100.016 23.0026 101.76 23.0026C103.38 23.0026 104.519 23.5565 105.175 24.6642C105.852 25.7719 106.191 27.1565 106.191 28.818V39.2795H101.514V28.7565C101.514 27.4847 101.021 26.8488 100.037 26.8488C99.2572 26.8488 98.3854 27.2796 97.4213 28.1411V39.2795H92.7444V28.7565C92.7444 27.4847 92.2521 26.8488 91.2675 26.8488C90.3649 26.8488 89.4931 27.3001 88.6521 28.2026V39.2795H83.9751V23.3719H86.8675L87.7905 25.8026C89.411 23.936 91.1444 23.0026 92.9905 23.0026C94.8367 23.0026 96.1187 23.8232 96.8367 25.4642" fill="black"/><path d="M117.874 29.0949V28.6949C117.874 27.977 117.71 27.4539 117.381 27.1257C117.074 26.7975 116.53 26.6334 115.751 26.6334C114.54 26.6334 113.053 27.0437 111.289 27.8642L109.689 24.7872C111.74 23.5975 113.894 23.0026 116.151 23.0026C118.263 23.0026 119.853 23.5257 120.92 24.5719C122.007 25.5975 122.551 27.0642 122.551 28.9719V39.2795H119.658C119.125 38.1513 118.848 37.5872 118.828 37.5872C117.371 38.9206 115.812 39.5872 114.151 39.5872C112.735 39.5872 111.546 39.177 110.581 38.3565C109.638 37.5154 109.166 36.377 109.166 34.9411C109.166 33.259 109.71 32.0283 110.797 31.2488C112.069 30.3052 114.428 29.5873 117.874 29.0949V29.0949ZM117.874 35.3411V31.9872C115.843 32.3975 114.612 32.8488 114.181 33.3411C113.894 33.6488 113.751 34.0693 113.751 34.6026C113.751 35.7308 114.294 36.2949 115.381 36.2949C116.284 36.2949 117.115 35.977 117.874 35.3411" fill="black"/><path d="M126.283 39.2795V23.3719H129.175L130.098 25.8026C131.719 23.936 133.493 23.0026 135.421 23.0026C138.457 23.0026 139.975 24.9411 139.975 28.818V39.2795H135.298V28.7565C135.298 27.4847 134.765 26.8488 133.698 26.8488C132.714 26.8488 131.801 27.3001 130.96 28.2026V39.2795H126.283Z" fill="black"/><path d="M144.817 26.5719H142.479V23.3719H144.879L145.679 18.8488H149.494V23.3719H152.879V26.5719H149.494V34.2334C149.494 34.9309 149.607 35.4129 149.832 35.6796C150.058 35.9463 150.52 36.0796 151.217 36.0796C151.607 36.0796 152.15 35.977 152.848 35.7719L153.402 39.0027C152.232 39.3924 151.043 39.5873 149.832 39.5873C146.489 39.5873 144.817 37.8847 144.817 34.4796V26.5719Z" fill="black"/><path d="M160.151 32.6949C160.253 33.7821 160.551 34.5821 161.043 35.0949C161.556 35.6078 162.315 35.8642 163.32 35.8642C163.874 35.8642 164.428 35.7821 164.981 35.618C165.556 35.4539 165.976 35.3001 166.243 35.1565C166.53 35.0129 166.951 34.7872 167.504 34.4795L169.351 37.4334C168.715 37.9052 168.171 38.2744 167.72 38.5411C167.269 38.7872 166.622 39.0231 165.781 39.2488C164.94 39.4744 164.007 39.5872 162.981 39.5872C160.643 39.5872 158.776 38.8693 157.381 37.4334C156.007 35.977 155.32 33.9975 155.32 31.4949C155.32 28.9924 155.976 26.9514 157.289 25.3719C158.602 23.7924 160.407 23.0026 162.704 23.0026C165.063 23.0026 166.828 23.7924 167.997 25.3719C169.166 26.9514 169.751 28.9821 169.751 31.4642V32.6949H160.151ZM160.151 29.9565H164.981C164.981 27.5565 164.212 26.3565 162.674 26.3565C161.935 26.3565 161.361 26.6437 160.951 27.218C160.54 27.7719 160.274 28.6847 160.151 29.9565" fill="black"/><path d="M179.748 39.5872C177.205 39.5872 175.287 38.8385 173.994 37.3411C172.723 35.8231 172.087 33.8437 172.087 31.4026C172.087 28.9616 172.753 26.9514 174.087 25.3719C175.42 23.7924 177.307 23.0026 179.748 23.0026C181.902 23.0026 183.656 23.5975 185.01 24.7872L182.825 27.8949C182.271 27.4847 181.789 27.2078 181.379 27.0642C180.969 26.9001 180.435 26.818 179.779 26.818C177.871 26.818 176.917 28.3257 176.917 31.3411C176.917 34.2949 177.892 35.7719 179.841 35.7719C180.887 35.7719 181.943 35.3513 183.01 34.5103L185.256 37.4026C183.8 38.859 181.964 39.5872 179.748 39.5872" fill="black"/><path d="M28.3974 16.9231C24.3818 21.9419 23.3698 24.1457 21.77 28.2035C19.9549 24.5323 17.7887 21.9986 14.0385 20.3205C13.328 20.1392 12.9787 20.034 12.5 20.7051C12.0213 21.3763 12.3116 21.9801 12.8846 22.6923C14.3863 24.5586 16.0738 26.283 17.2436 28.3974C18.615 30.8763 20.3224 34.9618 20.8974 36.0256C21.3548 36.8717 22.4609 37.2436 22.8846 37.2436C25.1542 36.975 25.155 35.8212 25.5876 33.8211C26.2892 30.5413 27.1978 27.1505 31.4744 23.0769V16.9231H28.3974Z" fill="black"/><path d="M45.3205 1.53845V3.07691H46.859V1.53845H45.3205ZM45.3205 3.07691H42.2436V4.61538H45.3205V3.07691ZM42.2436 4.61538H40.7051V7.6923H42.2436V4.61538ZM42.2436 7.6923V9.23076H43.7821V7.6923H42.2436ZM43.7821 7.6923H45.3205V6.15384H43.7821V7.6923ZM42.2436 9.23076H40.7051V10.7692H39.1667V9.23076H36.0897V10.7692H34.5513V12.3077H36.0897V13.8461H34.5513V12.3077H33.0128V13.8461H31.4744V15.3846H29.9359V21.5385H33.0128V20H34.5513V18.4615H36.0897V16.9231H34.5513V15.3846H36.0897V16.9231H37.6282V15.3846H39.1667V13.8461H40.7051V12.3077H42.2436V9.23076ZM39.1667 9.23076H40.7051V7.6923H39.1667V9.23076ZM39.1667 7.6923V6.15384H37.6282V7.6923H39.1667Z" fill="black"/></svg>