<svg width="115" height="80" viewBox="0 0 115 80" fill="none" xmlns="http://www.w3.org/2000/svg"><path d="M47.5381 8.69291C51.2336 4.87139 56.357 2.47769 62.0262 2.47769C69.5853 2.47769 76.1365 6.67717 79.664 12.9344C82.7297 11.5906 86.0892 10.8346 89.6168 10.8346C103.223 10.8346 114.268 21.9633 114.268 35.6955C114.268 49.4278 103.223 60.5564 89.6168 60.5564C87.937 60.5564 86.3412 60.3885 84.7454 60.0525C81.6798 65.5538 75.7585 69.2913 69.0394 69.2913C66.2257 69.2913 63.5381 68.6194 61.1444 67.4856C57.9948 74.8346 50.7297 80 42.2467 80C33.3858 80 25.8688 74.4147 22.9711 66.5617C21.7113 66.8136 20.4094 66.9816 19.0656 66.9816C8.52493 66.9816 0 58.3307 0 47.706C0 40.5669 3.82151 34.3517 9.5328 30.9921C8.35695 28.3045 7.72703 25.3228 7.72703 22.1732C7.72703 9.91076 17.6798 0 29.9423 0C37.0814 0 43.4646 3.40157 47.5381 8.69291Z" fill="white"/><path d="M16.5039 41.4908C16.4199 41.6588 16.5459 41.7008 16.5459 41.7428C16.7559 41.9108 16.9659 41.9947 17.2178 42.1207C18.3937 42.7506 19.4856 42.9186 20.6194 42.9186C22.9711 42.9186 24.4409 41.6588 24.4409 39.685V39.643C24.4409 37.7953 22.8031 37.1234 21.2493 36.6194L21.0394 36.5354C19.8635 36.1575 18.8556 35.8215 18.8556 35.0656V35.0236C18.8556 34.3517 19.4436 33.8898 20.3674 33.8898C21.3753 33.8898 22.5932 34.2257 23.3491 34.6457C23.3491 34.6457 23.559 34.7716 23.643 34.5617C23.685 34.4357 24.063 33.3858 24.105 33.2598C24.147 33.1339 24.063 33.0499 23.979 33.0079C23.0971 32.4619 21.8793 32.126 20.6194 32.126H20.3674C18.2257 32.126 16.7139 33.4278 16.7139 35.2756V35.3176C16.7139 37.2913 18.3517 37.9212 19.9055 38.3412L20.1575 38.4252C21.2913 38.7611 22.2572 39.0551 22.2572 39.853V39.895C22.2572 40.6089 21.6273 41.1548 20.6194 41.1548C20.2415 41.1548 18.9816 41.1548 17.5958 40.273C17.4278 40.189 17.3438 40.105 17.2178 40.021C17.1338 39.979 16.9659 39.895 16.9239 40.147L16.5039 41.4908Z" fill="#00A1E0"/><path d="M50.8557 41.4908C50.7717 41.6588 50.8976 41.7008 50.8976 41.7428C51.1076 41.9108 51.3176 41.9947 51.5696 42.1207C52.7454 42.7506 53.8373 42.9186 54.9711 42.9186C57.3228 42.9186 58.7927 41.6588 58.7927 39.685V39.643C58.7927 37.7953 57.1549 37.1234 55.6011 36.6194L55.3911 36.5354C54.2152 36.1575 53.2074 35.8215 53.2074 35.0656V35.0236C53.2074 34.3517 53.7953 33.8898 54.7192 33.8898C55.727 33.8898 56.9449 34.2257 57.7008 34.6457C57.7008 34.6457 57.9108 34.7716 57.9948 34.5617C58.0368 34.4357 58.4147 33.3858 58.4567 33.2598C58.4987 33.1339 58.4147 33.0499 58.3307 33.0079C57.4488 32.4619 56.231 32.126 54.9711 32.126H54.7192C52.5774 32.126 51.0656 33.4278 51.0656 35.2756V35.3176C51.0656 37.2913 52.7034 37.9212 54.2572 38.3412L54.5092 38.4252C55.643 38.7611 56.6089 39.0551 56.6089 39.853V39.895C56.6089 40.6089 55.979 41.1548 54.9711 41.1548C54.5932 41.1548 53.3333 41.1548 51.9475 40.273C51.7795 40.189 51.6955 40.105 51.5696 40.021C51.5276 39.979 51.3176 39.937 51.2756 40.147L50.8557 41.4908Z" fill="#00A1E0"/><path d="M76.2204 35.4435C76.0105 34.8136 75.7165 34.2257 75.3385 33.7638C74.9186 33.3018 74.4147 32.8819 73.8267 32.6299C73.2388 32.3359 72.5249 32.21 71.727 32.21C70.9291 32.21 70.2152 32.3359 69.6273 32.6299C69.0393 32.9239 68.5354 33.3018 68.1154 33.7638C67.7375 34.2257 67.4015 34.8136 67.2336 35.4435C67.0236 36.0735 66.9396 36.7874 66.9396 37.5433C66.9396 38.2992 67.0236 39.0131 67.2336 39.643C67.4435 40.2729 67.7375 40.8609 68.1154 41.3228C68.5354 41.7848 69.0393 42.2047 69.6273 42.4567C70.2152 42.7086 70.9291 42.8766 71.727 42.8766C72.5249 42.8766 73.2388 42.7506 73.8267 42.4567C74.4147 42.2047 74.9186 41.7848 75.3385 41.3228C75.7165 40.8609 76.0525 40.2729 76.2204 39.643C76.4304 39.0131 76.5144 38.2992 76.5144 37.5433C76.5144 36.7874 76.4304 36.0735 76.2204 35.4435ZM74.2887 37.5433C74.2887 38.6771 74.0787 39.559 73.6588 40.189C73.2388 40.8189 72.6089 41.1128 71.769 41.1128C70.8871 41.1128 70.2992 40.8189 69.8792 40.189C69.4593 39.559 69.2493 38.6771 69.2493 37.5433C69.2493 36.4094 69.4593 35.5275 69.8792 34.8976C70.2992 34.2677 70.8871 33.9737 71.769 33.9737C72.6509 33.9737 73.2808 34.2677 73.6588 34.8976C74.0787 35.5275 74.2887 36.4094 74.2887 37.5433Z" fill="#00A1E0"/><path fill-rule="evenodd" clip-rule="evenodd" d="M92.3045 40.8189C92.2205 40.6089 92.0525 40.6929 92.0525 40.6929C91.7586 40.8189 91.4646 40.9029 91.1287 40.9449C90.7927 40.9869 90.4567 41.0289 90.0368 41.0289C89.0709 41.0289 88.357 40.7349 87.8111 40.189C87.2651 39.643 86.9712 38.7191 86.9712 37.5013C86.9712 36.4094 87.2231 35.5695 87.7271 34.9396C88.189 34.3097 88.9449 33.9737 89.9108 33.9737C90.7087 33.9737 91.3386 34.0577 91.9686 34.2677C91.9686 34.2677 92.1365 34.3517 92.1785 34.1417C92.3465 33.6798 92.4725 33.3438 92.6405 32.7979C92.6825 32.6299 92.5565 32.5879 92.5145 32.5879C92.2625 32.5039 91.6746 32.3359 91.2126 32.252C90.7927 32.168 90.2888 32.168 89.7428 32.168C88.9029 32.168 88.189 32.294 87.5591 32.5879C86.9292 32.8819 86.3832 33.2598 85.9633 33.7218C85.5433 34.1837 85.2074 34.7716 84.9974 35.4016C84.7874 36.0315 84.6615 36.7454 84.6615 37.5013C84.6615 39.1391 85.0814 40.4409 85.9633 41.4068C86.8452 42.3727 88.147 42.8766 89.8268 42.8766C90.8347 42.8766 91.8426 42.6667 92.5985 42.3727C92.5985 42.3727 92.7245 42.2887 92.6825 42.1207L92.3045 40.8189Z" fill="#00A1E0"/><path fill-rule="evenodd" clip-rule="evenodd" d="M102.299 35.0656C102.131 34.4357 101.711 33.8058 101.459 33.5118C101.039 33.0499 100.619 32.7139 100.199 32.5459C99.6535 32.294 99.0236 32.168 98.3097 32.168C97.4698 32.168 96.7139 32.294 96.126 32.5879C95.4961 32.8819 94.9921 33.2598 94.6142 33.7638C94.1942 34.2677 93.9003 34.8136 93.7323 35.4856C93.5223 36.1575 93.4383 36.8294 93.4383 37.5853C93.4383 38.3412 93.5223 39.0551 93.7323 39.685C93.9422 40.3149 94.2362 40.9029 94.6982 41.3648C95.1181 41.8268 95.706 42.2047 96.3779 42.4567C97.0499 42.7087 97.8478 42.8346 98.7716 42.8346C100.703 42.8346 101.711 42.4147 102.089 42.1627C102.173 42.1207 102.215 42.0367 102.131 41.8268L101.711 40.6089C101.627 40.4409 101.459 40.4829 101.459 40.4829C100.997 40.6509 100.325 40.9869 98.7297 40.9869C97.7218 40.9869 96.9239 40.6929 96.4619 40.189C95.958 39.685 95.748 38.9711 95.706 38.0052H102.341C102.341 38.0052 102.509 38.0052 102.551 37.8373C102.509 37.8373 102.719 36.5774 102.299 35.0656ZM95.706 36.4514C95.79 35.8215 95.958 35.3176 96.252 34.8976C96.6719 34.2677 97.2598 33.9317 98.1417 33.9317C99.0236 33.9317 99.5696 34.2677 99.9895 34.8976C100.283 35.3176 100.367 35.8635 100.409 36.4514H95.706Z" fill="#00A1E0"/><path fill-rule="evenodd" clip-rule="evenodd" d="M49.2598 35.0656C49.0918 34.4357 48.6719 33.8058 48.4199 33.5118C48 33.0499 47.58 32.7139 47.1601 32.5459C46.6142 32.294 45.9842 32.168 45.2703 32.168C44.4304 32.168 43.6745 32.294 43.0866 32.5879C42.4567 32.8819 41.9527 33.2598 41.5748 33.7638C41.1548 34.2677 40.8609 34.8136 40.6929 35.4856C40.4829 36.1575 40.3989 36.8294 40.3989 37.5853C40.3989 38.3412 40.4829 39.0551 40.6929 39.685C40.9029 40.3149 41.1968 40.9029 41.6588 41.3648C42.0787 41.8268 42.6666 42.2047 43.3386 42.4567C44.0105 42.7087 44.8084 42.8346 45.7323 42.8346C47.664 42.8346 48.6719 42.4147 49.0498 42.1627C49.1338 42.1207 49.1758 42.0367 49.0918 41.8268L48.6719 40.6089C48.5879 40.4409 48.4199 40.4829 48.4199 40.4829C47.958 40.6509 47.2861 40.9869 45.6903 40.9869C44.6824 40.9869 43.8845 40.6929 43.4226 40.189C42.9186 39.685 42.7086 38.9711 42.6667 38.0052H49.3018C49.3018 38.0052 49.4698 38.0052 49.5118 37.8373C49.4698 37.8373 49.6798 36.5774 49.2598 35.0656ZM42.6667 36.4514C42.7506 35.8215 42.9186 35.3176 43.2126 34.8976C43.6325 34.2677 44.2205 33.9317 45.1023 33.9317C45.9842 33.9317 46.5302 34.2677 46.9501 34.8976C47.2021 35.3176 47.3281 35.8635 47.3701 36.4514H42.6667Z" fill="#00A1E0"/><path d="M30.9921 36.1155C30.7401 36.1155 30.3622 36.0735 29.9422 36.0735C29.3543 36.0735 28.8084 36.1575 28.3045 36.2835C27.8005 36.4094 27.3386 36.6194 26.9186 36.9134C26.4987 37.2073 26.2047 37.5853 25.9527 38.0052C25.7008 38.4252 25.6168 38.9711 25.6168 39.5171C25.6168 40.105 25.7008 40.6089 25.9107 41.0289C26.1207 41.4488 26.4147 41.7848 26.7926 42.0787C27.1706 42.3307 27.6325 42.5407 28.1365 42.6667C28.6404 42.7927 29.2283 42.8346 29.9002 42.8346C30.5722 42.8346 31.2441 42.7927 31.916 42.6667C32.5459 42.5407 33.3438 42.4147 33.5958 42.3307C33.8058 42.2887 34.0577 42.2047 34.0577 42.2047C34.2257 42.1627 34.2257 41.9947 34.2257 41.9947V35.9475C34.2257 34.6037 33.8898 33.6378 33.1758 33.0079C32.4619 32.4199 31.4541 32.084 30.1522 32.084C29.6483 32.084 28.8504 32.168 28.3884 32.252C28.3884 32.252 26.9606 32.5459 26.3307 33.0079C26.3307 33.0079 26.2047 33.0919 26.2887 33.2598L26.7506 34.5197C26.7926 34.6877 26.9606 34.6457 26.9606 34.6457C26.9606 34.6457 27.0026 34.6457 27.0866 34.6037C28.3464 33.9318 29.9842 33.9318 29.9842 33.9318C30.6982 33.9318 31.2441 34.0577 31.622 34.3517C32 34.6457 32.168 35.0656 32.168 35.9475V36.2415C31.4961 36.1995 30.9921 36.1155 30.9921 36.1155ZM28.3464 40.7769C28.0945 40.5669 28.0525 40.5249 27.9685 40.399C27.8425 40.189 27.7585 39.895 27.7585 39.5171C27.7585 38.9291 27.9685 38.5092 28.3464 38.2152C28.3464 38.2152 28.9344 37.7113 30.2782 37.7533C31.2441 37.7533 32.084 37.9213 32.084 37.9213V40.9449C32.084 40.9449 31.2441 41.1129 30.2782 41.1969C28.9344 41.2388 28.3464 40.7769 28.3464 40.7769Z" fill="#00A1E0"/><path fill-rule="evenodd" clip-rule="evenodd" d="M84.4094 32.714C84.4514 32.546 84.3674 32.504 84.3254 32.462C84.1994 32.42 83.6535 32.2941 83.2335 32.2941C82.3936 32.2521 81.9317 32.3781 81.5118 32.588C81.0918 32.756 80.6299 33.092 80.3779 33.4279V32.63C80.3779 32.504 80.2939 32.42 80.1679 32.42H78.4881C78.3622 32.42 78.2782 32.504 78.2782 32.63V42.4988C78.2782 42.6248 78.3622 42.7088 78.4881 42.7088H80.2099C80.3359 42.7088 80.4199 42.6248 80.4199 42.4988V37.5434C80.4199 36.8715 80.5039 36.1996 80.6299 35.8216C80.7559 35.4017 80.9658 35.0657 81.2178 34.8557C81.4698 34.6038 81.7217 34.4358 82.0157 34.3518C82.3097 34.2678 82.6456 34.2258 82.8976 34.2258C83.2335 34.2258 83.6115 34.3098 83.6115 34.3098C83.7375 34.3098 83.8215 34.2258 83.8635 34.1418C84.0314 33.8059 84.3674 32.882 84.4094 32.714Z" fill="#00A1E0"/><path fill-rule="evenodd" clip-rule="evenodd" d="M68.0735 28.1365C67.8635 28.0525 67.6535 28.0105 67.4016 27.9685C67.1496 27.9265 66.8556 27.8845 66.5197 27.8845C65.3018 27.8845 64.3779 28.2205 63.706 28.8924C63.0341 29.5643 62.6142 30.5722 62.3622 31.916L62.2782 32.378H60.7664C60.7664 32.378 60.5984 32.378 60.5564 32.5879L60.3045 33.9738C60.3045 34.0997 60.3465 34.1837 60.5144 34.1837H61.9842L60.5144 42.4567C60.3884 43.1286 60.2625 43.6746 60.1365 44.0945C60.0105 44.5144 59.8425 44.8084 59.6745 45.0184C59.5066 45.2284 59.3386 45.3963 59.0866 45.4803C58.8766 45.5643 58.5827 45.6063 58.2887 45.6063C58.1207 45.6063 57.9108 45.5643 57.7428 45.5643C57.5748 45.5223 57.4908 45.4803 57.3648 45.4383C57.3648 45.4383 57.1968 45.3543 57.1129 45.5643C57.0709 45.6903 56.6509 46.7822 56.6089 46.9082C56.5669 47.0341 56.6089 47.1601 56.6929 47.1601C56.9029 47.2441 57.0289 47.2861 57.2808 47.3281C57.6588 47.4121 57.9527 47.4121 58.2467 47.4121C58.8766 47.4121 59.4226 47.3281 59.8845 47.1601C60.3465 46.9921 60.7664 46.6982 61.1024 46.3202C61.4803 45.9003 61.7323 45.4383 61.9423 44.8504C62.1522 44.2625 62.3622 43.5066 62.5302 42.6247L64.042 34.1837H66.2257C66.2257 34.1837 66.3937 34.1837 66.4357 33.9738L66.6877 32.5879C66.6877 32.462 66.6457 32.378 66.4777 32.378H64.3779C64.3779 32.336 64.5039 31.5801 64.7139 30.8662C64.7979 30.5722 65.0079 30.3202 65.1758 30.1522C65.3438 29.9843 65.5118 29.8583 65.7218 29.8163C65.9318 29.7323 66.1837 29.7323 66.4357 29.7323C66.6457 29.7323 66.8136 29.7743 66.9816 29.7743C67.1916 29.8163 67.2756 29.8583 67.3176 29.8583C67.5275 29.9423 67.5695 29.8583 67.6115 29.7743L68.1155 28.3885C68.2415 28.2205 68.1155 28.1785 68.0735 28.1365Z" fill="#00A1E0"/><path fill-rule="evenodd" clip-rule="evenodd" d="M38.4672 42.4567C38.4672 42.5827 38.3832 42.6667 38.2572 42.6667H36.4934C36.3674 42.6667 36.2834 42.5827 36.2834 42.4567V28.3464C36.2834 28.2205 36.3674 28.1365 36.4934 28.1365H38.2572C38.3832 28.1365 38.4672 28.2205 38.4672 28.3464V42.4567Z" fill="#00A1E0"/></svg>