<svg width="184" height="45" viewBox="0 0 184 45" fill="none" xmlns="http://www.w3.org/2000/svg"><path d="M90.6669 14.5798C90.8043 13.2785 91.5522 11.7782 93.3636 11.7782C94.9612 11.7782 95.8617 13.0387 95.8617 14.5798H90.6669ZM97.0625 18.3103C96.148 18.9326 95.0783 19.2861 93.9741 19.3309C93.536 19.3337 93.1018 19.2486 92.697 19.0807C92.2921 18.9127 91.9249 18.6653 91.6167 18.3529C91.3086 18.0405 91.0659 17.6695 90.9028 17.2617C90.7397 16.8539 90.6595 16.4175 90.6669 15.9781H97.8308C97.8308 12.7376 96.747 10.2932 93.4043 10.2932C90.5703 10.2932 88.703 12.4008 88.703 15.3964C88.703 18.6726 90.3362 20.8466 93.8978 20.8466C94.9871 20.8579 96.0662 20.6351 97.0625 20.1934V18.3103Z" fill="#333333"/><path d="M105.585 16.6721C105.585 18.1725 104.618 19.3156 102.791 19.3156C101.942 19.3156 100.919 18.744 100.919 17.6775C100.919 15.9016 103.402 15.7434 104.404 15.7434C104.796 15.7434 105.193 15.7842 105.585 15.7842V16.6721ZM100.192 12.8039C101.022 12.1456 102.049 11.7861 103.107 11.7833C104.954 11.7833 105.585 12.6712 105.585 14.4063C104.857 14.3655 104.348 14.3655 103.616 14.3655C101.708 14.3655 98.9552 15.1565 98.9552 17.6826C98.9552 19.8718 100.482 20.821 102.634 20.821C103.237 20.8375 103.835 20.7067 104.376 20.44C104.918 20.1733 105.387 19.7787 105.743 19.2901H105.783V20.5914H107.513C107.447 19.937 107.421 19.2791 107.437 18.6216V14.442C107.437 11.6965 106.272 10.2778 103.402 10.2778C102.234 10.2841 101.091 10.6106 100.095 11.2219L100.192 12.8039Z" fill="#333333"/><path d="M109.462 10.5126H111.192V11.9721H111.232C111.551 11.4177 112.018 10.9646 112.582 10.6649C113.145 10.3651 113.781 10.231 114.417 10.2778C115.039 10.2647 115.649 10.4479 116.161 10.8013C116.673 11.1548 117.062 11.6607 117.272 12.2477C117.564 11.6696 118.008 11.1823 118.556 10.838C119.104 10.4937 119.734 10.3053 120.38 10.2931C122.924 10.2931 123.866 11.9517 123.866 14.141V20.5761H122.014V14.5798C122.014 13.3346 121.719 11.7782 120.223 11.7782C118.335 11.7782 117.587 13.6306 117.587 15.5086V20.5761H115.74V14.5798C115.74 13.3346 115.44 11.7782 113.949 11.7782C112.057 11.7782 111.309 13.6306 111.309 15.5086V20.5761H109.462V10.5126Z" fill="#333333"/><path d="M99.0315 26.8326C98.1739 26.3229 97.1944 26.0566 96.1975 26.062C93.0278 26.062 90.9214 28.3534 90.9214 31.451C90.9214 34.6864 93.2465 36.84 96.1009 36.84C97.1362 36.8467 98.1594 36.6163 99.0926 36.1664L99.2096 38.0801C98.2071 38.443 97.146 38.616 96.0805 38.5904C91.7303 38.5904 88.8404 35.7836 88.8404 31.4051C88.8404 27.1592 91.8932 24.3372 96.1009 24.3372C97.1677 24.3071 98.2289 24.5036 99.2147 24.9138L99.0315 26.8326Z" fill="#333333"/><path d="M102.003 33.3035C102.003 31.3898 103.163 29.5322 105.152 29.5322C107.142 29.5322 108.281 31.3898 108.281 33.3035C108.281 35.0998 107.315 37.0747 105.152 37.0747C102.99 37.0747 102.003 35.0998 102.003 33.3035ZM100.034 33.3035C100.011 33.9902 100.127 34.6745 100.375 35.3153C100.622 35.9561 100.996 36.5401 101.474 37.0324C101.952 37.5247 102.524 37.9151 103.156 38.1801C103.788 38.4452 104.467 38.5796 105.152 38.5751C108.164 38.5751 110.24 36.1868 110.24 33.3035C110.24 30.2415 108.205 28.037 105.152 28.037C102.1 28.037 100.034 30.2466 100.034 33.3035Z" fill="#333333"/><path d="M111.644 28.2717H113.461V29.869C113.788 29.29 114.268 28.8127 114.847 28.4895C115.427 28.1663 116.085 28.0097 116.748 28.037C119.343 28.037 120.503 29.6547 120.503 32.3543V38.3352H118.656V33.1249C118.656 30.7774 118.147 29.6343 116.529 29.5526C114.423 29.5526 113.476 31.252 113.476 33.6964V38.3556H111.624L111.644 28.2717Z" fill="#333333"/><path d="M122.233 36.3654C122.929 36.7891 123.719 37.0328 124.532 37.0747C125.382 37.0747 126.425 36.7175 126.425 35.6356C126.425 33.7985 122.075 33.9567 122.075 31.1346C122.075 29.0423 123.601 28.037 125.636 28.037C126.42 28.0495 127.197 28.182 127.941 28.4299L127.778 30.0476C127.168 29.7573 126.509 29.5842 125.835 29.5373C124.888 29.5373 124.064 29.9353 124.064 30.7621C124.064 32.8033 128.409 32.2216 128.409 35.4417C128.409 37.5901 126.7 38.5802 124.909 38.5802C123.944 38.6296 122.983 38.4385 122.11 38.0239L122.233 36.3654Z" fill="#333333"/><path d="M138.819 38.3352H137.028V36.743H136.987C136.661 37.323 136.182 37.8013 135.602 38.1255C135.022 38.4496 134.364 38.607 133.701 38.5802C131.106 38.5802 129.946 36.9625 129.946 34.2578V28.2717H131.777V33.4821C131.777 35.8296 132.286 36.9727 133.904 37.0543C136.011 37.0543 136.957 35.355 136.957 32.9054V28.2717H138.809L138.819 38.3352Z" fill="#333333"/><path d="M140.727 23.5359H142.579V38.3352H140.727V23.5359Z" fill="#333333"/><path d="M150.603 29.7721H147.942V35.2784C147.942 36.4419 148.654 37.0747 149.499 37.0747C149.945 37.081 150.383 36.9569 150.761 36.7175V38.274C150.251 38.4417 149.72 38.5362 149.183 38.5547C147.275 38.5547 146.095 37.6463 146.095 35.6305V29.7721H143.836V28.2717H146.1V25.9447L147.947 25.3527V28.2717H150.603V29.7721Z" fill="#333333"/><path d="M152.475 28.2717H154.327V38.3352H152.475V28.2717ZM154.444 26.0263H152.358V23.934H154.444V26.0263Z" fill="#333333"/><path d="M156.235 28.2717H158.026V29.869H158.062C158.39 29.2908 158.869 28.8141 159.449 28.491C160.029 28.1679 160.686 28.0108 161.349 28.037C163.948 28.037 165.109 29.6547 165.109 32.3543V38.3352H163.256V33.1248C163.256 30.7774 162.748 29.6343 161.135 29.5526C159.028 29.5526 158.082 31.252 158.082 33.6964V38.3556H156.235V28.2717Z" fill="#333333"/><path d="M171.662 36.84C169.927 36.84 168.868 35.1814 168.868 33.2677C168.868 31.5531 169.789 29.5169 171.662 29.5169C173.626 29.5169 174.592 31.3132 174.592 33.4055C174.592 35.2988 173.392 36.84 171.662 36.84ZM176.439 28.2717H174.73V29.772H174.689C174.14 28.6851 173.163 28.037 171.387 28.037C168.334 28.037 166.899 30.7978 166.899 33.3851C166.899 35.9724 168.314 38.3352 171.189 38.3352C171.831 38.3518 172.468 38.2201 173.051 37.9502C173.634 37.6803 174.148 37.2795 174.552 36.7787H174.592V37.7636C174.592 39.8968 173.432 41.2185 171.484 41.2185C170.22 41.2228 168.975 40.9125 167.861 40.3152L167.663 42.0299C168.811 42.4794 170.032 42.7146 171.265 42.724C174.867 42.724 176.439 40.9685 176.439 37.9065V28.2717Z" fill="#333333"/><path d="M87.0342 0.801208H0.503723V44.1988H87.0342V0.801208Z" fill="url(#paint0_linear)"/><path d="M32.288 30.8897C31.2387 31.9338 30.0997 32.8833 28.8842 33.727C28.109 34.2754 27.2982 34.7716 26.4573 35.2121C28.5397 34.8539 30.5428 34.13 32.3745 33.0738C38.5208 29.6547 42.8455 23.6329 42.0416 19.6167C41.9391 19.053 41.7099 18.5201 41.3714 18.0585C41.0328 17.5969 40.5939 17.2188 40.0878 16.9528C40.3336 17.3581 40.5059 17.8039 40.5966 18.2694C41.3242 21.9693 37.6914 27.3889 32.288 30.8897Z" fill="#034EA2"/><path d="M21.003 34.3394L20.5604 35.5438C22.0971 35.7624 23.659 35.7296 25.1853 35.4468L25.8315 33.6811C25.5465 33.7423 25.2718 33.7985 24.997 33.8393C25.3176 33.6709 25.6483 33.4923 25.9739 33.2984L37.5337 2.04127L37.5998 1.62281C37.015 1.61914 36.4305 1.65152 35.8496 1.71977L23.8828 34.0996C22.9325 34.2704 21.9683 34.3507 21.003 34.3394Z" fill="#034EA2"/><path d="M8.98016 29.4557C10.9543 32.339 15.0094 32.6605 19.8022 31.0121C18.5582 31.0395 17.3224 30.8048 16.1745 30.3232C13.2286 30.956 10.7304 30.7213 8.98016 29.4557Z" fill="#034EA2"/><path d="M20.1838 8.36925C12.8623 14.095 9.34145 22.3724 12.323 26.8632C12.6927 27.4173 13.1559 27.9026 13.6916 28.2972C13.6916 28.2666 13.6509 28.2411 13.6306 28.2054C10.6491 23.7197 14.1648 15.4474 21.4914 9.71649C24.0732 7.62659 26.9639 5.95306 30.0595 4.75618L30.7667 2.83228C27.5257 3.53141 23.7657 5.57269 20.1838 8.36925Z" fill="#034EA2"/><path d="M68.8397 15.2484H64.8254L66.8147 9.56849H66.8554L68.8397 15.2484ZM59.9867 20.5761H62.8411L64.0418 17.4223H69.608L70.7884 20.5761H73.8412L68.448 6.79745H65.3392L59.9867 20.5761Z" fill="white"/><path d="M77.8708 14.4216H79.1682C80.5471 14.4216 82.0073 14.6972 82.0073 16.4935C82.0073 18.0908 80.4504 18.4072 79.1682 18.4072H77.8708V14.4216ZM77.8708 8.97141H78.9342C80.196 8.97141 81.5901 9.09389 81.5901 10.6912C81.5901 12.1099 80.1553 12.3701 78.9952 12.3701H77.8708V8.97141ZM75.1182 20.5761H79.9212C81.6511 20.5761 84.7599 20.0658 84.7599 16.5905C84.7599 14.8962 83.4828 13.6306 81.6104 13.4571V13.4163C83.2437 13.1203 84.3477 11.9721 84.3477 10.3544C84.3477 7.33839 81.6918 6.82297 79.9212 6.82297H75.1182V20.5761Z" fill="white"/><path d="M35.0762 14.9116C35.7042 15.46 36.1528 16.1856 36.3635 16.9937C37.554 21.2599 33.5804 28.1493 27.4748 32.3798C26.6899 32.9254 25.8708 33.4198 25.0225 33.8597C27.1045 33.4972 29.1071 32.7718 30.9397 31.7164C37.086 28.3023 41.4107 22.2755 40.6068 18.2593C40.098 15.9169 37.9763 14.7993 35.0762 14.9116Z" fill="white"/><path d="M17.4617 6.8434C8.76138 13.6409 4.36032 23.1328 7.63186 28.0676C9.59072 31.0172 13.6763 31.3592 18.5048 29.6955C15.8133 29.6955 13.5949 28.7871 12.3331 26.8888C9.35159 22.3979 12.8724 14.1308 20.194 8.39477C23.7555 5.59822 27.5359 3.55694 30.7769 2.8578L19.2578 34.1914C20.7947 34.4104 22.3569 34.3759 23.8827 34.0894L36.1853 0.801208H31.3315C26.2463 1.51239 21.451 3.60144 17.4617 6.8434Z" fill="white"/><path d="M178.459 22.7092H180.306C180.947 22.7092 181.568 22.8266 181.619 23.7605C181.642 23.9659 181.602 24.1735 181.505 24.3557C181.408 24.538 181.258 24.6863 181.074 24.7811C181.502 25.0516 181.548 25.1537 181.558 25.8375C181.558 26.3478 181.588 26.5519 181.777 26.6846V26.8224H181.13C181.066 26.659 181.025 26.4872 181.008 26.3121C180.963 25.8018 181.207 25.0669 180.337 25.0669H178.993V26.8428H178.459V22.7092ZM178.993 23.1787V24.5974H180.327C180.417 24.6127 180.51 24.6085 180.598 24.5851C180.687 24.5617 180.77 24.5197 180.841 24.4617C180.912 24.4038 180.97 24.3313 181.011 24.2492C181.053 24.167 181.076 24.0769 181.08 23.985C181.156 23.2859 180.647 23.1991 180.316 23.1991L178.993 23.1787Z" fill="black"/><path d="M179.95 21.1732C179.245 21.1732 178.555 21.3833 177.969 21.777C177.382 22.1707 176.926 22.7301 176.657 23.3843C176.388 24.0385 176.319 24.7581 176.459 25.4517C176.598 26.1454 176.94 26.7818 177.441 27.2804C177.941 27.7789 178.578 28.1171 179.271 28.2521C179.963 28.387 180.68 28.3126 181.331 28.0383C181.981 27.764 182.535 27.3022 182.924 26.7114C183.312 26.1206 183.517 25.4275 183.512 24.7199C183.505 23.7769 183.127 22.8748 182.459 22.2104C181.792 21.546 180.89 21.1731 179.95 21.1732ZM179.95 27.8073C179.346 27.8073 178.756 27.6277 178.254 27.2913C177.752 26.9548 177.361 26.4766 177.13 25.9171C176.899 25.3576 176.838 24.742 176.956 24.148C177.074 23.5541 177.364 23.0085 177.791 22.5803C178.218 22.1521 178.762 21.8605 179.354 21.7423C179.947 21.6242 180.56 21.6848 181.118 21.9166C181.676 22.1483 182.153 22.5408 182.488 23.0443C182.824 23.5478 183.003 24.1398 183.003 24.7454C182.997 25.5539 182.673 26.3275 182.101 26.8973C181.53 27.4671 180.756 27.7869 179.95 27.7869V27.8073Z" fill="black"/><defs><linearGradient id="paint0_linear" x1="45.3223" y1="46.5477" x2="45.3223" y2="0.0174597" gradientUnits="userSpaceOnUse"><stop offset="0.25" stop-color="#034EA2"/><stop offset="1" stop-color="#00ABE6"/></linearGradient></defs></svg>