<svg width="180" height="35" viewBox="0 0 180 35" fill="none" xmlns="http://www.w3.org/2000/svg"><path d="M177.839 5.76147C178.972 5.76147 179.871 6.67957 179.871 7.83188C179.871 8.98418 178.972 9.90228 177.839 9.90228C176.724 9.90228 175.824 8.98418 175.824 7.83188C175.824 6.68894 176.724 5.76147 177.839 5.76147ZM177.839 9.52755C178.757 9.52755 179.459 8.78745 179.459 7.84124C179.459 6.89504 178.757 6.15494 177.839 6.15494C176.939 6.15494 176.237 6.89504 176.237 7.84124C176.237 8.78745 176.939 9.52755 177.839 9.52755ZM177.145 6.76389H177.97C178.373 6.76389 178.644 7.01683 178.644 7.41967C178.644 7.74756 178.429 7.9443 178.251 7.99114V8.00051C178.251 8.00051 178.269 8.01924 178.326 8.1223L178.738 8.90923H178.298L177.904 8.08482H177.557V8.90923H177.155V6.76389H177.145ZM177.885 7.77567C178.091 7.77567 178.232 7.63514 178.232 7.4103C178.232 7.18546 178.091 7.06367 177.885 7.06367H177.548V7.77567H177.885Z" fill="white"/><path d="M159.074 31.8147C160.555 31.8147 161.847 31.2714 162.494 29.4727L163.449 26.7933L155.43 7.83185H159.206L165.192 21.9593L170.251 7.83185H173.97L165.323 31.1777C164.349 33.8008 161.96 35 159.271 35C159.206 35 158.625 34.9906 158.625 34.9906V31.796C158.625 31.8054 158.999 31.8147 159.074 31.8147Z" fill="white"/><path d="M146.117 10.8203H144.3V7.84116H146.117V1.65808H149.799V7.84116H153.481L154.736 10.8203H149.799V19.4579C149.799 23.2895 152.497 23.786 153.893 23.786C154.427 23.786 154.764 23.7111 154.764 23.7111V26.9713C154.764 26.9713 154.23 27.0462 153.471 27.0462C151.008 27.0462 146.108 26.2874 146.108 19.8794V10.8203H146.117Z" fill="white"/><path d="M141.396 7.84131H137.714V27.0464H141.396V7.84131Z" fill="white"/><path d="M139.551 0.955444C140.834 0.955444 141.883 1.98596 141.883 3.26005V3.30689C141.883 4.58098 140.844 5.61149 139.551 5.61149C138.267 5.61149 137.218 4.58098 137.218 3.30689V3.26005C137.227 1.99533 138.267 0.955444 139.551 0.955444Z" fill="white"/><path d="M131.475 7.84131L125.995 21.9687L120.505 7.84131H116.711L124.233 27.0464H127.7L135.269 7.84131H131.475Z" fill="white"/><path d="M114.265 7.84131H110.584V27.0464H114.265V7.84131Z" fill="white"/><path d="M112.429 0.955444C113.713 0.955444 114.762 1.98596 114.762 3.26005V3.30689C114.762 4.58098 113.722 5.61149 112.429 5.61149C111.146 5.61149 110.097 4.58098 110.097 3.30689V3.26005C110.097 1.99533 111.146 0.955444 112.429 0.955444Z" fill="white"/><path d="M98.8266 10.8203H97.0091V7.84116H98.8266V1.65808H102.508V7.84116H107.483V10.8203H102.508V19.4579C102.508 23.2895 105.206 23.786 106.602 23.786C107.136 23.786 107.474 23.7111 107.474 23.7111V26.9713C107.474 26.9713 106.94 27.0462 106.181 27.0462C103.717 27.0462 98.8172 26.2874 98.8172 19.8794V10.8203H98.8266Z" fill="white"/><path d="M95.1539 15.4204C95.1445 14.1182 95.1914 12.7036 94.826 11.4389C94.4606 10.1648 93.9173 9.39662 92.8399 8.60031C91.7438 7.78527 90.451 7.3637 89.102 7.21381C86.9004 6.97023 84.7644 7.27001 82.7128 8.12253C81.9539 8.44105 81.2138 8.84389 80.4737 9.27483L81.9633 11.9354C84.0337 10.8955 86.1978 10.1742 88.5118 10.4084C90.3199 10.5864 91.622 11.9729 91.622 13.6498V14.6429H88.2682C85.7949 14.6522 82.8346 14.6429 80.5299 17.1348C79.9116 17.8 79.565 18.5963 79.3683 19.4301C79.2465 19.9641 79.1622 20.5543 79.1622 21.2194C79.1715 24.0955 81.167 26.2034 84.0524 26.9622C86.3851 27.5711 88.2682 27.1215 90.3761 26.0722C90.8538 25.8286 91.3035 25.6038 91.7438 25.3227V27.0465H95.1352C95.1539 27.0465 95.1633 19.1022 95.1539 15.4204ZM91.6408 21.7159C91.2379 22.1563 90.7789 22.5497 90.2917 22.887C89.4111 23.4678 88.1089 24.0486 86.432 24.0486C82.9657 24.0486 82.6191 21.6129 82.591 20.9665C82.591 20.7042 82.6191 20.4419 82.6847 20.1795C83.05 18.8305 84.3522 17.622 87.4719 17.622H91.6408V21.7159Z" fill="white"/><path d="M71.3584 0H75.0401V21.0225C75.0401 23.3365 75.9489 23.7581 77.0918 23.7581C77.4291 23.7581 77.7382 23.7206 77.7382 23.7206V26.9808C77.7382 26.9808 77.1668 27.0557 76.5203 27.0557C74.4312 27.0557 71.3584 26.4842 71.3584 21.6689V0Z" fill="white"/><path d="M60.6409 7.13873C66.0652 7.13873 69.1005 11.1577 69.1005 16.1323C69.1005 16.4602 69.0537 17.0598 69.0162 17.4251C68.9974 17.6031 68.9881 17.7249 68.9881 17.7249H54.9825C55.1698 21.9407 58.1677 24.0579 61.5871 24.0579C64.8848 24.0579 67.283 21.8189 67.283 21.8189L68.8007 24.5169C68.8007 24.5169 65.9527 27.2525 61.3623 27.2525C55.3291 27.2525 51.1977 22.8868 51.1977 17.2003C51.1977 11.0828 55.1792 7.13873 60.6409 7.13873ZM65.3438 14.9519C65.2314 11.6543 63.0298 10.0616 60.566 10.0616C57.7555 10.0616 55.6382 11.8041 55.1042 14.9519H65.3438Z" fill="white"/><path d="M45.9515 15.5983C48.5934 14.5115 50.3078 11.4106 50.3078 7.9537C50.3078 4.42185 48.5278 1.6863 45.7923 0.655782C44.7711 0.271681 43.5907 0 40.7802 0H31.8522V5.97699V16.1604V27.0557H35.4777V16.1604H41.2018C45.1646 17.6312 47.235 27.0463 47.235 27.0463H51.0011C51.0104 27.0463 49.2867 18.9146 45.9515 15.5983ZM35.4777 3.29765H40.6772C42.7663 3.29765 43.6376 3.53186 44.3589 3.90659C45.7267 4.66542 46.4855 6.07067 46.4855 8.04739C46.4855 10.2302 45.5112 11.8041 43.8624 12.4973C43.2066 12.7409 42.3166 12.8721 40.6865 12.8721H35.4871V5.95825V3.29765H35.4777Z" fill="white"/><path d="M27.0463 0H8.85305V8.85306H0V27.0557H18.2026V18.2026H27.0557V0H27.0463ZM15.8699 24.723H2.33271V11.1858H8.85305V18.2026H15.8699V24.723ZM15.8699 15.8699H11.1858V11.1858H15.8699V15.8699ZM24.7136 15.8699H18.1933V8.85306H11.1764V2.33271H24.7136V15.8699Z" fill="white"/></svg>