<svg width="204" height="40" viewBox="0 0 204 40" fill="none" xmlns="http://www.w3.org/2000/svg"><path d="M23.5737 7.52351L11.7868 15.047L23.5737 22.5705L11.7868 30.094L0 22.5078L11.7868 14.9843L0 7.52351L11.7868 0L23.5737 7.52351ZM11.7241 32.4765L23.511 24.953L35.2978 32.4765L23.511 40L11.7241 32.4765ZM23.5737 22.5078L35.3605 14.9843L23.5737 7.52351L35.2978 0L47.0846 7.52351L35.2978 15.047L47.0846 22.5705L35.2978 30.094L23.5737 22.5078Z" fill="#0061FF"/><path d="M56.3009 7.52348H65.8307C71.9122 7.52348 76.9279 11.0345 76.9279 19.0595V20.7523C76.9279 28.8401 72.2257 32.4765 66.0188 32.4765H56.3009V7.52348ZM61.6301 12.0376V27.8997H65.7053C69.1536 27.8997 71.4734 25.6426 71.4734 20.6269V19.3103C71.4734 14.2946 69.0282 12.0376 65.5172 12.0376H61.6301ZM79.7492 12.2884H84.0125L84.7022 16.9906C85.5173 13.7931 87.5862 12.1003 91.348 12.1003H92.6646V17.4921H90.4702C86.1442 17.4921 85.0784 18.9968 85.0784 23.2602V32.5392H79.8119V12.2884H79.7492ZM93.7304 22.8213V22.257C93.7304 15.4859 98.0564 11.7868 103.95 11.7868C109.969 11.7868 114.169 15.4859 114.169 22.257V22.8213C114.169 29.4671 110.094 33.0407 103.95 33.0407C97.4295 32.978 93.7304 29.4671 93.7304 22.8213ZM108.777 22.7586V22.257C108.777 18.4953 106.897 16.2382 103.887 16.2382C100.94 16.2382 98.9969 18.3072 98.9969 22.257V22.7586C98.9969 26.395 100.878 28.4639 103.887 28.4639C106.897 28.4012 108.777 26.395 108.777 22.7586ZM116.928 12.2884H121.317L121.818 16.1128C122.884 13.5423 125.141 11.7868 128.464 11.7868C133.605 11.7868 136.991 15.4859 136.991 22.3197V22.884C136.991 29.5298 133.229 33.0407 128.464 33.0407C125.266 33.0407 123.072 31.5987 122.006 29.279V39.4984H116.865L116.928 12.2884ZM131.661 22.7586V22.3197C131.661 18.3072 129.592 16.3009 126.834 16.3009C123.887 16.3009 121.944 18.558 121.944 22.3197V22.6959C121.944 26.2696 123.824 28.5266 126.771 28.5266C129.781 28.4639 131.661 26.5203 131.661 22.7586ZM144.765 28.7774L144.326 32.4765H139.812V5.51721H144.953V15.862C146.082 13.2288 148.339 11.7868 151.536 11.7868C156.364 11.8495 159.937 15.1724 159.937 21.8808V22.5078C159.937 29.2163 156.552 33.0407 151.411 33.0407C148.025 32.978 145.831 31.4106 144.765 28.7774ZM154.545 22.5078V22.0062C154.545 18.3072 152.539 16.2382 149.718 16.2382C146.834 16.2382 144.828 18.558 144.828 22.0689V22.5078C144.828 26.2696 146.771 28.4639 149.655 28.4639C152.727 28.4639 154.545 26.5203 154.545 22.5078ZM162.194 22.8213V22.257C162.194 15.4859 166.52 11.7868 172.414 11.7868C178.433 11.7868 182.633 15.4859 182.633 22.257V22.8213C182.633 29.4671 178.495 33.0407 172.414 33.0407C165.893 32.978 162.194 29.4671 162.194 22.8213ZM177.304 22.7586V22.257C177.304 18.4953 175.423 16.2382 172.414 16.2382C169.467 16.2382 167.524 18.3072 167.524 22.257V22.7586C167.524 26.395 169.404 28.4639 172.414 28.4639C175.423 28.4012 177.304 26.395 177.304 22.7586ZM189.53 22.0062L182.445 12.2884H188.527L192.602 18.3699L196.74 12.2884H202.759L195.549 21.9435L203.135 32.4765H197.179L192.539 25.768L188.025 32.4765H181.818L189.53 22.0062Z" fill="black"/></svg>