<svg width="202" height="40" viewBox="0 0 202 40" fill="none" xmlns="http://www.w3.org/2000/svg"><path d="M100.908 25.8411L95.6392 22.757L95.2628 23.3645C94.0867 25.2337 92.4402 26.1682 90.4173 26.1682C86.9361 26.1682 84.3487 23.5514 84.3487 20.1402C84.3487 16.6823 86.9831 14.1122 90.4173 14.1122C92.4872 14.1122 93.9926 15 95.2628 16.9159L95.6392 17.5234L100.908 14.4393L100.438 13.7851C97.8972 10.1402 94.6512 8.41122 90.3703 8.41122C82.3259 8.41122 77.9979 14.486 77.9979 20.1869C77.9979 25.8879 82.3259 31.9626 90.3703 31.9626C94.4631 31.9626 98.3206 29.9066 100.438 26.5421L100.908 25.8411Z" fill="#C01818"/><path d="M100.626 31.8691H107.87L110.034 26.542H120.901L123.065 31.8691H130.357L117.373 0.700928H110.881L112.622 4.85979L100.626 31.8691ZM115.539 12.9906L118.455 20.3271H112.528L115.539 12.9906Z" fill="#C01818"/><path d="M133.368 31.9159H139.719V17.8972H143.859V12.0093H139.719V9.25235C139.719 8.03739 140.519 6.7757 142.024 6.7757C142.824 6.7757 143.341 6.91594 143.812 7.10281L144.517 7.38319L147.152 1.63552L146.446 1.40187C145.27 0.934568 143.623 0.747681 142.447 0.747681C139.578 0.747681 137.178 1.68226 135.579 3.45795C134.168 5.00001 133.368 7.14954 133.368 9.53273V12.0561H130.545V17.9439H133.368V31.9159Z" fill="#C01818"/><path d="M68.354 13.9253V31.8692H75.2694V0.514038L61.6738 10.701L48.0313 0.514038V31.8225L54.9466 31.8692V13.9253L61.6738 18.8785L68.354 13.9253Z" fill="#C01818"/><path d="M158.207 8.41122C150.209 8.41122 145.881 14.4393 145.881 20.1402C145.881 25.8411 150.209 31.8692 158.207 31.8692C161.876 31.8224 165.31 30.1869 167.992 27.1496L162.817 24.3458C161.5 25.7009 159.853 26.4019 158.066 26.4019C155.431 26.4019 153.126 24.6729 152.515 22.3832H169.827V20.8411C169.874 12.2897 163.052 8.45794 158.207 8.41122ZM152.656 17.2897C153.503 15.1402 155.29 13.9252 157.595 13.9252C159.947 13.9252 161.782 15.1402 162.723 17.3365L152.656 17.2897Z" fill="#C01818"/><path d="M184.222 8.45792C176.224 8.45792 171.896 14.486 171.896 20.1869C171.896 25.8878 176.224 31.9159 184.222 31.9159C187.891 31.8691 191.325 30.2336 194.007 27.1963L188.832 24.3925C187.515 25.7476 185.868 26.4486 184.081 26.4486C181.446 26.4486 179.141 24.7196 178.53 22.4299H195.842V20.8878C195.889 12.3364 189.067 8.45792 184.222 8.45792ZM178.671 17.2897C179.518 15.1402 181.305 13.8785 183.61 13.9252C185.962 13.9252 187.797 15.1402 188.738 17.3364L178.671 17.2897Z" fill="#C01818"/><path d="M195.042 7.38318H197.723V7.89718H196.641V10.7009H196.077V7.89718H195.042V7.38318Z" fill="#C01818"/><path d="M198.147 7.38318H198.946L199.887 9.95326L200.781 7.38318H201.581V10.7009H201.016V8.13085L200.075 10.7009H199.605L198.664 8.13085V10.7009H198.1V7.38318H198.147Z" fill="#C01818"/><path d="M17.5472 8.31775L0.470428 0.467285V31.6822L17.5472 39.5327V31.8691L7.47989 27.243V11.3551L17.5472 15.9813V8.31775Z" fill="#C01818"/><path d="M17.5472 8.31775L34.671 0.467285V31.6822L17.5472 39.5327V31.8691L27.6615 27.243V11.3551L17.5472 15.9813V8.31775Z" fill="#75160D"/></svg>