<svg width="181" height="29" viewBox="0 0 181 29" fill="none" xmlns="http://www.w3.org/2000/svg"><path d="M10.6726 8.039C10.4109 8.66426 10.0329 9.28951 9.48033 9.82545C8.31709 11.0164 6.86304 11.4928 5.35083 11.5523L11.0216 17.3583C11.1089 15.81 11.5451 14.3213 12.7083 13.1304C13.2318 12.5944 13.8425 12.2074 14.4532 11.9096C12.7083 11.2844 11.3124 9.85522 10.6726 8.039Z" fill="#FF7700"/><path d="M9.42222 21.1992C11.5742 18.9959 11.5742 15.423 9.42222 13.2197C7.27023 11.0164 3.78051 11.0164 1.62852 13.2197C-0.523472 15.423 -0.523472 18.9959 1.62852 21.1992C3.78051 23.4025 7.27023 23.4025 9.42222 21.1992Z" fill="#FF7700"/><path d="M20.5894 1.78644C22.7414 3.98972 22.7414 7.56262 20.5894 9.7659C18.4374 11.9692 14.9477 11.9692 12.7957 9.7659C10.6437 7.56262 10.6437 3.98972 12.7957 1.78644C14.9477 -0.416849 18.4374 -0.416849 20.5894 1.78644Z" fill="#4B4C50"/><path d="M42.9235 1.78644C40.7715 -0.416849 37.2818 -0.416849 35.1298 1.78644C34.0829 2.85831 33.5595 4.22792 33.5304 5.59753C33.4431 7.14578 33.0069 8.63449 31.8437 9.82545C31.3202 10.3614 30.7095 10.7782 30.0988 11.0462C31.8728 11.7012 33.2686 13.1304 33.9084 14.9466C34.1702 14.2916 34.5482 13.6961 35.1007 13.1602C36.264 11.9692 37.718 11.4928 39.2302 11.4333C40.597 11.4035 41.9348 10.8378 42.9526 9.79568C45.0755 7.56262 45.0755 3.98972 42.9235 1.78644ZM41.0042 7.80081C40.4807 8.33675 39.7537 8.63449 39.0267 8.63449C38.2706 8.63449 37.5726 8.33675 37.0492 7.80081C35.9441 6.66939 35.9441 4.85317 37.0492 3.72176C37.5726 3.18582 38.2996 2.88808 39.0267 2.88808C39.7828 2.88808 40.4807 3.18582 41.0042 3.72176C41.5276 4.25769 41.8184 5.00204 41.8184 5.7464C41.8184 6.5503 41.5276 7.26488 41.0042 7.80081Z" fill="#009DC8"/><path d="M31.7564 13.2197C33.9084 15.423 33.9084 18.9959 31.7564 21.1992C29.6044 23.4025 26.1147 23.4025 23.9627 21.1992C21.8107 18.9959 21.8107 15.423 23.9627 13.2197C26.1147 11.0164 29.6044 11.0164 31.7564 13.2197Z" fill="#4B4C50"/><path d="M23.9045 9.82546C22.7412 8.6345 22.2759 7.14579 22.2178 5.59753L16.547 11.4035C18.0592 11.4928 19.5133 11.9394 20.6765 13.1304C21.8397 14.3214 22.305 15.8101 22.3632 17.3583L28.034 11.5524C26.5218 11.4928 25.0677 11.0462 23.9045 9.82546Z" fill="#4B4C50"/><path d="M92.3321 22.9261C89.5403 22.9261 87.7954 21.1694 87.7954 18.3706V1.22075C87.7954 0.535945 88.2898 0.0297852 88.9587 0.0297852C89.6275 0.0297852 90.1219 0.565719 90.1219 1.22075V7.05648H94.2223C94.833 7.05648 95.3565 7.59241 95.3565 8.21767C95.3565 8.81315 94.833 9.34909 94.2223 9.34909H90.1219V18.2516C90.1219 19.8891 90.9071 20.6633 92.5647 20.6633C93.1754 20.6633 93.5535 20.5442 93.8152 20.4548C93.9606 20.3953 94.0769 20.3655 94.2223 20.3655C94.804 20.3655 95.3274 20.9014 95.3274 21.4969C95.3274 21.9733 95.0657 22.3604 94.5713 22.539C94.0478 22.7177 93.3208 22.9261 92.3321 22.9261Z" fill="#4B4C50"/><path d="M104.662 22.9261C102.656 22.9261 100.329 22.1222 98.7299 20.9015C98.5264 20.7526 98.2937 20.3655 98.2937 19.9785C98.2937 19.3532 98.8172 18.7875 99.457 18.7875C99.7187 18.7875 99.9804 18.8768 100.184 19.0257C101.638 20.0976 103.15 20.6335 104.75 20.6335C106.553 20.6335 107.803 19.6509 107.803 18.2813V18.2218C107.803 16.9415 106.582 16.346 104.284 15.691L104.226 15.6612L104.168 15.6314C101.842 14.9466 98.9626 14.0832 98.9626 11.1355V11.076C98.9626 8.4261 101.173 6.49078 104.226 6.49078C105.826 6.49078 107.629 6.99694 109.17 7.89017L109.199 7.91994C109.577 8.18791 109.781 8.5452 109.781 8.96204C109.781 9.58729 109.257 10.153 108.617 10.153C108.385 10.153 108.152 10.0935 107.978 9.97436C106.727 9.23 105.419 8.81317 104.168 8.81317C102.481 8.81317 101.318 9.67661 101.318 10.9271V10.9867C101.318 12.2372 102.859 12.7731 105.041 13.4282C106.96 13.9939 110.159 14.8871 110.159 18.0729V18.1325C110.188 20.9015 107.861 22.9261 104.662 22.9261Z" fill="#4B4C50"/><path d="M115.248 22.7474C114.579 22.7474 114.055 22.2413 114.055 21.5565V1.22074C114.055 0.535934 114.55 0 115.219 0C115.888 0 116.382 0.535934 116.382 1.22074V21.5565C116.411 22.2413 115.888 22.7474 115.248 22.7474Z" fill="#4B4C50"/><path d="M137.175 22.9856C132.755 22.9856 129.265 19.383 129.265 14.768V14.7084C129.265 10.0637 132.755 6.43121 137.233 6.43121C141.653 6.43121 145.143 10.0339 145.143 14.6489V14.7084C145.143 19.3532 141.653 22.9856 137.175 22.9856ZM137.175 8.7536C134.063 8.7536 131.708 11.2844 131.708 14.6786V14.7382C131.708 18.0729 134.121 20.7228 137.233 20.7228C140.345 20.7228 142.7 18.192 142.7 14.7977V14.7382C142.7 11.3737 140.287 8.7536 137.175 8.7536Z" fill="#4B4C50"/><path d="M76.8029 22.9856C72.4698 22.9856 69.2127 19.4425 69.2127 14.7382V14.6786C69.2127 10.0637 72.4407 6.43121 76.5702 6.43121C80.6997 6.43121 83.6951 9.88501 83.6951 14.6191C83.6951 15.2146 83.1425 15.7803 82.5318 15.7803H74.5927C73.9529 15.7803 73.4876 15.3039 73.4876 14.6786C73.4876 14.0236 73.9529 13.5472 74.5927 13.5472H81.1941C80.8742 11.2248 79.5074 8.72382 76.483 8.72382C74.0111 8.72382 72.0336 10.7485 71.6265 13.6068L71.5683 14.0832C71.5101 14.5893 71.5101 15.0359 71.5683 15.4528V15.4825C71.8591 18.5493 74.0111 20.693 76.7738 20.693C78.4605 20.693 79.8564 20.0975 81.165 18.7875C81.3977 18.5493 81.6594 18.46 81.9502 18.46C82.59 18.46 83.1134 18.9661 83.1134 19.6212C83.1134 19.8296 83.0553 20.1571 82.7354 20.4548C81.0778 22.2115 79.2748 22.9856 76.8029 22.9856Z" fill="#4B4C50"/><path d="M149.36 29C148.691 29 148.168 28.4938 148.168 27.7793V13.9641C148.168 9.40863 151.599 6.43121 155.67 6.43121C160.091 6.43121 163.581 10.0339 163.581 14.6489V14.7084C163.581 19.3532 160.091 22.9856 155.612 22.9856C153.606 22.9856 151.803 22.2413 150.494 20.8717V27.7793C150.494 28.4938 150.029 29 149.36 29ZM150.494 15.423C150.756 18.4302 152.733 20.5441 155.409 20.693C155.496 20.693 155.612 20.693 155.7 20.693C156.659 20.693 157.561 20.4548 158.346 19.9784C158.433 19.9189 158.491 19.8891 158.579 19.8296C159.218 19.383 159.771 18.8172 160.178 18.0729C160.236 17.9836 160.265 17.924 160.323 17.8347C160.411 17.6858 160.498 17.5072 160.556 17.3285C160.876 16.5246 161.05 15.6612 161.05 14.768V14.7084C161.05 13.9938 160.934 13.2793 160.731 12.6242C160.672 12.4456 160.614 12.2669 160.527 12.0883C160.469 11.9097 160.382 11.731 160.294 11.5821C159.8 10.6889 159.131 9.94456 158.288 9.4384C158.201 9.37885 158.142 9.34908 158.055 9.3193C157.91 9.22998 157.735 9.17043 157.561 9.11088C157.212 8.99179 156.863 8.87269 156.514 8.81314C156.339 8.78337 156.136 8.75359 155.961 8.75359C155.874 8.75359 155.758 8.75359 155.67 8.75359C152.85 8.75359 150.814 10.8676 150.523 13.9938L150.494 15.423Z" fill="#4B4C50"/><path d="M126.618 22.7772C126.299 22.7772 126.008 22.6581 125.775 22.4199L118.563 14.9466C118.127 14.5 118.098 13.8152 118.505 13.3388L118.534 13.2793L125.106 7.05646C125.31 6.81827 125.572 6.69918 125.862 6.6694C126.182 6.63963 126.473 6.72895 126.706 6.93737C127.2 7.35421 127.258 8.12833 126.851 8.63449L126.793 8.69404L120.977 14.1129L127.375 20.7823C127.607 21.0205 127.724 21.3183 127.724 21.6458C127.724 21.9733 127.607 22.271 127.375 22.4795C127.2 22.6581 126.909 22.7772 126.618 22.7772Z" fill="#4B4C50"/><path d="M64.6761 22.9856C64.0073 22.9856 63.4838 22.4497 63.4838 21.7649V13.4281C63.4838 10.5102 61.9134 8.78334 59.2671 8.78334C56.6207 8.78334 55.0503 10.5102 55.0503 13.4281V21.7649C55.0503 22.4497 54.5269 22.9856 53.858 22.9856C53.1891 22.9856 52.6948 22.4794 52.6948 21.7649V13.1899C52.6948 9.14063 55.1957 6.52051 59.0344 6.52051H59.4415C63.3093 6.52051 65.7812 9.14063 65.7812 13.1899V21.7649C65.8394 22.4794 65.345 22.9856 64.6761 22.9856Z" fill="#4B4C50"/><path d="M174.108 22.9856C169.775 22.9856 166.518 19.4425 166.518 14.7382V14.6786C166.518 10.0637 169.746 6.43121 173.875 6.43121C178.005 6.43121 181 9.88501 181 14.6191C181 15.2444 180.476 15.7803 179.837 15.7803H171.927C171.287 15.7803 170.822 15.3039 170.822 14.6786C170.822 14.0236 171.287 13.5472 171.927 13.5472H178.528C178.208 11.2248 176.841 8.72382 173.817 8.72382C171.345 8.72382 169.368 10.7485 168.96 13.6068L168.902 14.0832C168.844 14.5893 168.844 15.0359 168.902 15.4528V15.4825C169.193 18.5493 171.345 20.693 174.108 20.693C175.794 20.693 177.19 20.0975 178.499 18.7875C178.732 18.5493 178.993 18.46 179.284 18.46C179.924 18.46 180.447 18.9661 180.447 19.6212C180.447 19.8296 180.389 20.1571 180.069 20.4548C178.354 22.2115 176.551 22.9856 174.108 22.9856Z" fill="#4B4C50"/></svg>