<svg width="161" height="33" viewBox="0 0 161 33" fill="none" xmlns="http://www.w3.org/2000/svg"><path fill-rule="evenodd" clip-rule="evenodd" d="M121.287 11.0475C122.499 8.87592 125.271 7.30682 129.409 7.30682C132.859 7.30682 135.798 8.35537 138.013 9.88934L135.5 14.0048C134.265 12.8753 131.922 11.8661 129.452 11.8661C127.919 11.8661 126.854 12.3505 126.854 13.1979C126.854 14.0857 127.961 14.4082 130.133 14.7712C133.627 15.3354 138.822 16.1434 138.822 21.3073C138.822 25.0204 135.373 27.7647 129.452 27.7647C125.79 27.7647 121.998 26.5937 119.826 24.7777L122.551 20.5015C124.084 21.7928 127.365 23.083 129.792 23.083C131.751 23.083 132.561 22.4783 132.561 21.631C132.561 20.6229 131.156 20.2588 129.027 19.9362C125.533 19.372 120.593 18.6854 120.593 13.7227C120.593 13.5875 120.598 13.4523 120.608 13.3181C120.29 13.2768 119.969 13.2569 119.648 13.2585C117.924 13.2585 115.638 13.9611 114.776 15.1182V27.7647H108.136V7.80289H114.776V10.3237C116.156 8.71198 118.785 7.30682 121.287 7.30682V11.0475ZM33.413 20.5004C34.9459 21.7928 38.2257 23.083 40.6539 23.083C42.6126 23.083 43.4216 22.4783 43.4216 21.631C43.4216 20.6229 42.0165 20.2588 39.8874 19.9362C36.3948 19.372 31.4543 18.6854 31.4543 13.7227C31.4543 10.2928 34.5627 7.30682 40.2707 7.30682C43.7197 7.30682 46.6599 8.35537 48.8741 9.88934L46.3618 14.0048C45.127 12.8753 42.784 11.8661 40.3132 11.8661C38.7803 11.8661 37.7158 12.3505 37.7158 13.1979C37.7158 14.0857 38.8229 14.4082 40.9945 14.7712C44.4872 15.3354 49.6842 16.1434 49.6842 21.3073C49.6842 25.0204 46.2341 27.7647 40.3132 27.7647C36.6513 27.7647 32.8595 26.5937 30.6868 24.7777L33.413 20.5015V20.5004ZM75.6711 15.6143C75.6711 14.0846 74.9462 12.9275 73.0939 12.9275C71.4014 12.9275 70.1942 14.0431 69.5896 14.8702V27.7647H63.3877V15.6143C63.3877 14.0846 62.7032 12.9275 60.8105 12.9275C59.1594 12.9275 57.9917 14.0431 57.3466 14.8702V27.7647H51.1447V7.80289H57.3466V10.2406C58.1928 9.0835 60.6891 7.30682 63.7507 7.30682C66.5291 7.30682 68.4622 8.50547 69.267 10.8602C70.3954 9.12502 72.9321 7.30682 75.9926 7.30682C79.5769 7.30682 81.8326 9.20805 81.8326 13.3V27.7647H75.6711V15.6143ZM97.5278 25.344C96.3142 26.796 93.9702 27.7647 91.4643 27.7647C88.473 27.7647 84.7547 25.7474 84.7547 21.3489C84.7547 16.6277 88.473 15.2151 91.4643 15.2151C94.0511 15.2151 96.3558 16.022 97.5278 17.4751V15.0139C97.5278 13.3192 96.0726 12.1887 93.5667 12.1887C91.6261 12.1887 89.6046 12.9158 88.0291 14.2475L85.8064 10.3332C88.3123 8.19356 91.6666 7.30682 94.6578 7.30682C99.346 7.30682 103.752 9.04198 103.752 15.0948V27.2803H97.5278V25.3429V25.344ZM97.5278 20.542C96.8806 19.6531 95.4254 19.1698 94.0521 19.1698C92.3947 19.1698 90.9395 19.8958 90.9395 21.4298C90.9395 22.9627 92.3947 23.6887 94.0521 23.6887C95.4254 23.6887 96.8806 23.2054 97.5278 22.2771V20.542ZM154.161 15.988C154.161 13.5577 152.846 12.7752 150.769 12.7752C148.86 12.7752 147.588 13.8046 146.824 14.7105V27.5646H140.294V0.085144H146.824V10.0969C148.055 8.69602 150.471 7.17163 153.907 7.17163C158.572 7.17163 160.693 9.72647 160.693 13.3927V27.5646H154.161V15.989V15.988Z" fill="#121836"/><path fill-rule="evenodd" clip-rule="evenodd" d="M17.8455 27.7647C17.9777 27.0305 18.044 26.2859 18.0435 25.5399C18.0435 18.6631 12.4687 13.0882 5.59083 13.0882C4.67535 13.0882 3.78222 13.1872 2.92209 13.3746V7.30682H23.381V27.7647H17.8455Z" fill="#004EC3"/><path fill-rule="evenodd" clip-rule="evenodd" d="M6.51165 32.1484C7.36677 32.1484 8.21352 31.9799 9.00354 31.6527C9.79357 31.3254 10.5114 30.8458 11.1161 30.2411C11.7207 29.6365 12.2004 28.9186 12.5276 28.1286C12.8549 27.3386 13.0233 26.4918 13.0233 25.6367C13.0233 24.7816 12.8549 23.9348 12.5276 23.1448C12.2004 22.3548 11.7207 21.6369 11.1161 21.0323C10.5114 20.4276 9.79357 19.948 9.00354 19.6207C8.21352 19.2935 7.36677 19.1251 6.51165 19.1251C4.78465 19.1251 3.12839 19.8111 1.90722 21.0323C0.686046 22.2534 0 23.9097 0 25.6367C0 27.3637 0.686046 29.02 1.90722 30.2411C3.12839 31.4623 4.78465 32.1484 6.51165 32.1484Z" fill="#009AFF"/></svg>