<svg width="127" height="90" viewBox="0 0 127 90" fill="none" xmlns="http://www.w3.org/2000/svg"><path d="M60.3001 14.0515V53.2223H27.8602L60.3001 14.0515Z" fill="white"/><path d="M60.3 0C60.3 8.95133 53.0487 16.2026 44.0974 16.2026C35.146 16.2026 27.8948 8.95133 27.8948 0H60.3Z" fill="white"/><path d="M65.6431 53.2223C65.6431 44.2709 72.8944 37.0197 81.8457 37.0197C90.797 37.0197 98.0483 44.2709 98.0483 53.2223H65.6431Z" fill="white"/><path d="M65.6431 39.1708V0H98.083L65.6431 39.1708Z" fill="white"/><path d="M83.7887 86.703C85.4541 86.7377 87.0848 86.1132 88.2991 84.9682L90.5196 87.3622C89.0624 88.8888 87.0154 89.999 83.8234 89.999C78.3763 89.999 74.8721 86.3907 74.8721 81.4987C74.768 76.8843 78.4457 73.1025 83.0254 72.9984C83.1295 72.9984 83.2336 72.9984 83.303 72.9984C88.7154 72.9984 91.7686 77.0924 91.491 82.8171H78.7232C79.209 85.2111 80.8743 86.7377 83.7887 86.703ZM87.6746 80.1456C87.3276 77.9251 86.0092 76.2944 83.3724 76.2944C80.909 76.2944 79.209 77.6823 78.7579 80.1456H87.6746Z" fill="white"/><path d="M0 86.5295L9.81871 76.5721H0.242865V73.4148H14.3638V76.6067L4.54506 86.5989H14.5025V89.7215H0V86.5295Z" fill="white"/><path d="M25.5356 86.703C27.201 86.7377 28.8316 86.1132 30.0113 84.9682L32.2318 87.3622C30.7746 88.8888 28.7276 89.999 25.5356 89.999C20.0885 89.999 16.5843 86.3907 16.5843 81.4987C16.4802 76.8843 20.1579 73.1025 24.7376 72.9984C24.8417 72.9984 24.9458 72.9984 25.0152 72.9984C30.4276 72.9984 33.4808 77.0924 33.2032 82.8171H20.4354C20.9559 85.2111 22.6212 86.7377 25.5356 86.703ZM29.4215 80.1456C29.0745 77.9251 27.7561 76.2944 25.1193 76.2944C22.6559 76.2944 20.9559 77.6823 20.5048 80.1456H29.4215Z" fill="white"/><path d="M54.4713 81.5335C54.4713 76.3292 58.3572 73.0679 62.6594 73.0679C64.7411 73.0332 66.7187 73.9352 68.1065 75.4965V65.886H71.576V89.6868H68.1065V87.4316C66.7534 89.0623 64.7411 90.0338 62.6247 89.9991C58.4612 89.9991 54.4713 86.703 54.4713 81.5335ZM68.28 81.4988C68.2106 78.6538 65.8166 76.3986 62.9716 76.468C60.1266 76.5374 57.8714 78.9313 57.9408 81.7763C58.0102 84.5866 60.3001 86.8071 63.1104 86.8071C66.0942 86.8071 68.28 84.4479 68.28 81.4988Z" fill="white"/><path d="M93.7809 86.2173L96.9381 84.5867C97.7708 86.1133 99.4015 87.0153 101.136 86.9806C103.114 86.9806 104.12 85.9745 104.12 84.8295C104.12 83.5111 102.212 83.2336 100.165 82.8172C97.3892 82.2274 94.5095 81.3253 94.5095 77.9599C94.5095 75.3925 96.9728 72.9985 100.824 73.0332C103.877 73.0332 106.132 74.2475 107.416 76.1905L104.502 77.7864C103.669 76.5721 102.281 75.8782 100.824 75.9129C98.9504 75.9129 98.0137 76.815 98.0137 77.8558C98.0137 79.0355 99.5056 79.3477 101.865 79.8681C104.536 80.458 107.59 81.3253 107.59 84.7255C107.59 86.9806 105.612 89.9991 100.963 89.9644C97.5626 89.9991 95.1687 88.646 93.7809 86.2173Z" fill="white"/><path d="M116.992 82.4355L114.251 85.454V89.6868H110.781V65.886H114.251V81.4641L121.606 73.3801H125.839L119.455 80.3538L126.013 89.6868H122.057L116.992 82.4355Z" fill="white"/><path d="M43.9934 73.0332C39.8646 73.0332 36.3951 75.7047 36.3951 80.1457V89.6868H39.934V80.5967C39.934 77.9252 41.4606 76.3292 44.0975 76.3292C46.7343 76.3292 48.018 77.9252 48.018 80.5967V89.6868H51.5569V80.1804C51.5569 75.7394 48.0874 73.0332 43.9934 73.0332Z" fill="white"/></svg>