<svg width="134" height="30" viewBox="0 0 134 30" fill="none" xmlns="http://www.w3.org/2000/svg"><mask id="mask0" mask-type="alpha" maskUnits="userSpaceOnUse" x="0" y="0" width="134" height="30"><path fill-rule="evenodd" clip-rule="evenodd" d="M133.402 30H0V0H133.402V30Z" fill="white"/></mask><g mask="url(#mask0)"><path fill-rule="evenodd" clip-rule="evenodd" d="M108.612 8.99063C109.126 9.87525 109.287 10.8735 109.345 12L109.42 13.5V24L109.495 25.4985C109.643 27.9518 111.445 29.7683 113.918 29.925L115.415 30V13.5L115.49 12C115.549 10.8874 115.712 9.86662 116.229 8.97937C117.269 7.19737 119.201 6 121.411 6C123.63 6 125.567 7.206 126.604 8.9985C127.114 9.88125 127.272 10.9009 127.332 12L127.407 13.4985V24L127.482 25.4985C127.637 27.966 129.428 29.7814 131.905 29.925L133.402 30V13.5135V12C133.402 5.37262 128.034 0 121.411 0C117.83 0 114.615 1.57125 112.418 4.06238C110.221 1.57125 107.006 0 103.424 0C100.936 0 98.6247 0.75825 96.7087 2.05687C95.5426 0.75825 92.9318 0 91.4329 0V30L92.9318 29.925C95.4354 29.76 97.2558 27.9907 97.3536 25.5007L97.4286 24V13.5L97.5035 12C97.5668 10.8716 97.7238 9.87113 98.2391 8.98538C99.2778 7.2 101.211 6 103.424 6C105.64 6 107.574 7.20225 108.612 8.99063ZM5.99561 29.925L7.49452 30H29.9781L29.9031 28.5015C29.7027 26.0317 27.9549 24.2295 25.4814 24.075L23.9825 24H10.4923L28.4792 6L28.4042 4.50187C28.2854 2.01262 26.4654 0.20625 23.9825 0.075L22.4836 0.001125L0 0L0.0749452 1.4985C0.269428 3.939 2.04338 5.78325 4.49484 5.925L5.99561 6H19.4857L1.4989 24L1.57385 25.4985C1.72187 27.9713 3.50631 29.7608 5.99561 29.925ZM85.5439 4.39349C91.3979 10.2513 91.3979 19.7486 85.5439 25.6064C79.6903 31.4643 70.2 31.4643 64.3464 25.6064C58.4928 19.7486 58.4928 10.2513 64.3464 4.39349C67.2708 1.467 71.1027 0.00224999 74.9358 0C78.7876 0.00224999 82.6199 1.467 85.5439 4.39349ZM81.3046 8.63595C84.8165 12.1508 84.8165 17.8493 81.3046 21.3642C77.7923 24.8787 72.0983 24.8787 68.586 21.3642C65.0737 17.8493 65.0737 12.1508 68.586 8.63595C72.0983 5.12145 77.7923 5.12145 81.3046 8.63595ZM43.4779 0C47.3106 0.00224999 51.1426 1.467 54.0669 4.39349C59.9209 10.2513 59.9209 19.7486 54.0669 25.6064C48.2133 31.4643 38.723 31.4643 32.8694 25.6064C27.0159 19.7486 27.0159 10.2513 32.8694 4.39349C35.7938 1.467 39.6257 0.00224999 43.4588 0H43.4779ZM49.8277 8.63595C53.34 12.1508 53.34 17.8493 49.8277 21.3642C46.3153 24.8787 40.621 24.8787 37.1091 21.3642C33.5968 17.8493 33.5968 12.1508 37.1091 8.63595C40.621 5.12145 46.3153 5.12145 49.8277 8.63595Z" fill="white"/></g></svg>