<svg width="144" height="60" viewBox="0 0 144 60" fill="none" xmlns="http://www.w3.org/2000/svg"><path d="M50.3645 28.2899H48.8498C48.2866 28.2904 47.7256 28.2193 47.18 28.0782C46.8514 27.9882 46.6857 27.1889 46.6857 25.6751V10.4045C46.8119 9.25323 47.5666 8.33752 48.9629 7.65736C50.3592 6.97719 52.6443 6.63579 55.8892 6.63579V3.83044C52.8494 3.83044 50.4197 4.45768 48.6 5.71214C47.8278 6.22679 47.1749 6.90289 46.6857 7.69441V3.80133L40.4588 5.08226V5.8974L41.7394 5.65656C42.3243 5.52694 42.9174 5.43851 43.5144 5.39191C43.7379 5.39191 43.8983 5.56129 43.993 5.90269C44.11 6.49047 44.1577 7.09009 44.135 7.68912V25.6619C44.135 27.1757 43.972 27.9749 43.6459 28.0649C43.0995 28.2059 42.5376 28.277 41.9735 28.2766H40.4588V29.1315H50.3645V28.2899Z" fill="white"/><path d="M58.1954 28.1523C56.8858 28.1523 55.8577 27.3416 55.1109 25.7202C54.4377 24.254 54.1011 22.5443 54.1011 19.1038C54.1011 15.6633 54.4324 13.8954 55.1109 12.4583C55.8734 10.828 56.8841 10.012 58.1428 10.0102C59.4839 10.0102 60.5313 10.8262 61.2851 12.4583C61.9662 13.9086 62.308 15.6077 62.308 19.0932C62.308 22.5787 61.9662 24.2566 61.2851 25.7096C60.5383 27.331 59.5084 28.1418 58.1954 28.1418V28.1523ZM63.2258 26.0907C64.4775 24.1587 65.1059 22.3485 65.1059 19.1276C65.1059 15.8565 64.4801 14.0171 63.2337 12.0745C61.9872 10.132 60.3096 9.16333 58.2033 9.16333C56.097 9.16333 54.4219 10.1346 53.1755 12.0745C51.9291 14.0145 51.3032 15.8723 51.3032 19.1488C51.3032 22.3643 51.9291 24.1772 53.186 26.1013C54.4429 28.0253 56.1154 28.9913 58.2033 28.9913C60.2911 28.9913 61.9741 28.028 63.2258 26.1013" fill="white"/><path d="M71.9297 12.5483C72.6923 10.918 73.7029 10.102 74.9616 10.1002C76.3027 10.1002 77.3484 10.9162 78.0987 12.5483C78.7824 13.9986 79.1242 15.7003 79.1242 19.1832C79.1242 22.666 78.7824 24.3466 78.0987 25.7996C77.3572 27.4245 76.3264 28.2317 75.0168 28.2317C73.7073 28.2317 72.6739 27.4245 71.9297 25.7996C71.2565 24.3334 70.9199 22.6237 70.9199 19.1832C70.9199 15.7427 71.2565 13.988 71.9297 12.5483ZM67.6224 4.66948C67.9485 4.75946 68.1142 5.56137 68.1142 7.07255V25.0453C68.137 25.6434 68.0894 26.2422 67.9722 26.8291C67.8775 27.1731 67.7092 27.3584 67.4936 27.3584C66.8964 27.3127 66.3033 27.2242 65.7186 27.0937L64.4354 26.8529V27.6654L70.6649 28.9463V27.0937C71.1954 27.735 71.8619 28.2485 72.6154 28.5966C73.369 28.9447 74.1904 29.1184 75.0195 29.1051C77.1231 29.1051 78.7982 28.1426 80.0446 26.2177C81.2963 24.2884 81.9221 22.4781 81.9221 19.2546C81.9221 15.9835 81.2989 14.1441 80.0525 12.2016C78.8061 10.259 77.1258 9.29036 75.0195 9.29036C74.1901 9.27494 73.368 9.44775 72.6141 9.79596C71.8603 10.1442 71.194 10.6588 70.6649 11.3017V7.07255C70.6649 5.56225 70.8297 4.76122 71.1592 4.66948C71.7037 4.52746 72.2639 4.45543 72.8264 4.45511L74.341 4.44187V3.61615H64.4249V4.44187L65.9395 4.45511C66.5037 4.45561 67.0656 4.52763 67.6119 4.66948" fill="white"/><path d="M87.4469 12.4742C88.2094 10.8439 89.221 10.0288 90.4814 10.0288C91.8207 10.0288 92.8664 10.8439 93.6185 12.4742C94.3022 13.9245 94.644 15.6236 94.644 19.1064C94.644 22.5893 94.3022 24.2699 93.6185 25.7387C92.8734 27.3601 91.8444 28.1709 90.5314 28.1709C89.2183 28.1709 88.1902 27.3601 87.4469 25.7387C86.7737 24.2699 86.4345 22.5628 86.4345 19.1064C86.4345 15.65 86.7763 13.9139 87.4469 12.4742ZM90.5393 29.0098C92.6429 29.0098 94.3171 28.0465 95.5618 26.1198C96.8161 24.1905 97.4419 22.3776 97.4419 19.1541C97.4419 15.8829 96.8187 14.0436 95.5696 12.1037C94.3206 10.1637 92.6455 9.19244 90.5393 9.19244C88.433 9.19244 86.7579 10.1637 85.5115 12.1037C84.2651 14.0436 83.6392 15.8909 83.6392 19.1699C83.6392 22.3829 84.2677 24.1984 85.5246 26.1198C86.7816 28.0412 88.454 29.0098 90.5393 29.0098Z" fill="white"/><path d="M99.5955 5.12992C99.8243 5.12992 99.9821 5.30195 100.077 5.65923C100.186 6.19003 100.234 6.73178 100.219 7.27363V9.22149H96.5662V10.0499H98.0809C98.6443 10.049 99.2055 10.1211 99.7507 10.2642C99.9926 10.3278 100.142 10.775 100.208 11.5875V29.1315L106.435 27.8506V27.0143L105.154 27.2578C104.57 27.3871 103.978 27.4755 103.382 27.5224C103.159 27.5224 102.998 27.3504 102.901 27.009C102.793 26.4779 102.746 25.9364 102.759 25.3946V12.6647H102.785C102.785 11.1508 102.948 10.3516 103.277 10.2616C103.822 10.1186 104.383 10.0466 104.947 10.0472H106.461V9.20826H102.769V3.54199L96.5426 4.82292V5.63806L97.8232 5.39723C98.407 5.26703 98.9993 5.17859 99.5955 5.13257" fill="white"/><path d="M107.024 19.7627H112.315H115.733C116.191 19.7866 116.717 19.7627 117.08 19.9718C117.393 20.1439 117.629 21.4168 117.59 22.4358C117.59 22.9227 117.18 25.0426 116.825 25.8181C116.092 27.4395 115.079 28.2502 113.787 28.2502C112.495 28.2502 111.483 27.4395 110.75 25.8181C110.534 25.3197 110.366 24.8011 110.251 24.2698H107.839C108.123 24.9419 108.466 25.5867 108.865 26.1965C110.103 28.1232 111.748 29.0866 113.801 29.0866C115.853 29.0866 117.5 28.1232 118.742 26.1965C119.601 24.9123 120.169 23.4528 120.403 21.9223C120.503 20.9083 120.466 19.8854 120.293 18.8814C120.293 18.8656 117.926 18.8814 117.926 18.8814H113.785H112.181C111.961 18.8811 111.742 18.8687 111.523 18.8444C111.24 18.8206 110.958 18.779 110.679 18.72C110.603 18.7073 110.528 18.6869 110.456 18.6591C110.122 18.5268 109.953 17.7752 109.948 16.2772C110.106 14.6523 110.374 13.3343 110.769 12.4874C111.514 10.88 112.545 10.0764 113.861 10.0764C115.178 10.0764 116.207 10.8862 116.948 12.5059C117.207 13.1006 117.401 13.7218 117.527 14.3585H120.03C119.722 13.5719 119.329 12.822 118.857 12.1222C117.6 10.1955 115.928 9.23212 113.84 9.23212C111.752 9.23212 110.078 10.1955 108.818 12.1222C107.634 13.9456 107.011 15.6685 106.945 18.5744C106.927 18.5956 106.885 19.7601 106.885 19.7601H107.024V19.7627Z" fill="white"/><path d="M53.1176 50.0525C52.3726 51.6739 51.3435 52.4855 50.0305 52.4873C48.7175 52.4891 47.6884 51.6775 46.9434 50.0525C46.2728 48.5836 45.9362 46.8766 45.9362 43.4202C45.9362 39.9638 46.2728 38.2277 46.9434 36.7906C47.7086 35.155 48.721 34.3425 49.9779 34.3425C51.319 34.3425 52.363 35.155 53.1176 36.7906C53.8013 38.2409 54.1432 39.9374 54.1432 43.4202C54.1432 46.9031 53.8013 48.5836 53.1176 50.0525ZM50.0384 33.5062C49.1962 33.4898 48.3615 33.6676 47.5981 34.0258C46.8346 34.3841 46.1628 34.9134 45.6338 35.5732V33.6518L39.4044 34.9327V35.7479L40.6876 35.507C41.2724 35.3773 41.8655 35.2888 42.4626 35.2424C42.6861 35.2424 42.8465 35.4144 42.9385 35.7584C43.0571 36.3442 43.1047 36.9423 43.0805 37.5396V55.5123C43.0805 57.0261 42.9201 57.8254 42.5888 57.9154C42.0439 58.0602 41.4825 58.1322 40.919 58.1298H39.4044V58.9608H49.31V58.1377H47.7954C47.2319 58.1398 46.6705 58.0678 46.1256 57.9233C45.7969 57.8333 45.6338 57.0341 45.6338 55.5203V51.2593C46.1634 51.9191 46.8351 52.449 47.5982 52.809C48.3613 53.1689 49.1958 53.3494 50.0384 53.3368C52.1421 53.3368 53.8162 52.3717 55.0609 50.4415C56.3152 48.5122 56.9411 46.7046 56.9411 43.4811C56.9411 40.2099 56.3152 38.3706 55.0662 36.4307C53.8171 34.4907 52.1447 33.5195 50.0384 33.5195" fill="white"/><path d="M62.1503 42.3643C62.8953 40.7393 63.9244 39.9277 65.2374 39.9294C66.5504 39.9312 67.5786 40.7428 68.3219 42.3643C68.8478 43.5049 69.1949 45.7069 69.2712 47.443C69.3159 48.184 69.045 48.4805 68.8031 48.6181C68.2982 48.9092 67.6671 48.8404 67.0781 48.8404H61.1747C61.2483 45.9715 61.5586 43.6293 62.1503 42.3537V42.3643ZM64.9508 58.2224C63.7333 58.1748 62.7735 57.3914 62.0714 55.8617C61.4771 54.5878 61.1493 52.535 61.0879 49.7032H72.1085V48.9304C72.1085 48.9304 72.1269 48.4169 72.1085 48.1735C72.0165 45.421 71.3906 43.7511 70.2389 41.9805C68.9819 40.0503 67.3095 39.0861 65.2216 39.0878C63.118 39.0878 61.5823 40.1465 60.1991 41.9805C58.4872 44.2513 58.3584 48.9436 58.3584 48.9436C58.3847 51.9713 58.9921 54.4008 60.1807 56.2322C61.3973 58.1024 63.0242 59.0393 65.0612 59.0428V59.0376C66.9072 59.0076 68.4122 58.1959 69.5762 56.6027H67.5541C66.8783 57.6825 66.0079 58.2251 64.9508 58.2251" fill="white"/><path d="M89.9713 57.8387C89.6452 57.7513 89.4795 56.9521 89.4795 55.4382V48.8218C89.4795 48.8218 89.2692 44.238 87.6178 41.8164C86.3214 39.9162 84.6858 38.9793 82.6005 38.9793C81.7706 38.9648 80.948 39.138 80.1934 39.4861C79.4388 39.8343 78.7715 40.3484 78.2407 40.9907V37.9816L72.0138 39.2625V40.075L73.2944 39.8342C73.8783 39.704 74.4705 39.6155 75.0668 39.5695C75.2903 39.5695 75.4533 39.7415 75.5454 40.0856C75.6639 40.6713 75.7116 41.2694 75.6874 41.8667V55.38C75.6874 56.8885 75.527 57.6904 75.1983 57.7831C74.6524 57.9226 74.0916 57.9937 73.5285 57.9948H72.0138V58.8205H81.9168V58.0054H80.4022C79.8391 58.0045 79.2782 57.9333 78.7324 57.7937C78.4063 57.701 78.2407 56.8991 78.2407 55.3906V48.7795C78.3064 45.8683 78.9217 43.534 79.5213 42.2452C80.2655 40.6202 81.2963 39.813 82.6058 39.813C83.9153 39.813 85.188 40.4376 85.9348 42.0573C86.5134 43.325 86.8473 45.3496 86.9656 48.0596L86.9288 55.4382C86.9288 56.9521 86.7658 57.7513 86.4345 57.8387C85.8904 57.9831 85.3299 58.0551 84.7673 58.053L83.2527 58.0663V58.8946H93.1583V58.0663L91.641 58.053C91.0776 58.055 90.5162 57.9829 89.9713 57.8387Z" fill="white"/><path d="M98.9697 39.813C100.311 39.813 101.358 40.6273 102.112 42.2558C102.62 43.3815 102.924 44.5898 103.009 45.8233H105.678C105.41 44.4145 104.86 43.0755 104.061 41.8879C102.814 39.9471 101.137 38.9767 99.0302 38.9767C96.923 38.9767 95.2471 39.9471 94.0024 41.8879C92.7533 43.8278 92.1301 45.6725 92.1301 48.9489C92.1301 52.1671 92.7586 53.9773 94.0129 55.9014C95.2672 57.8254 96.9449 58.7914 99.0302 58.7914C101.039 58.7914 102.66 57.9092 103.892 56.1449H101.789C101.079 57.3535 100.157 57.9586 99.0223 57.9604C97.7092 57.9604 96.6802 57.1488 95.9351 55.5256C95.262 54.0594 94.9254 52.3497 94.9254 48.8933C94.9254 45.4369 95.262 43.7034 95.9351 42.2611C96.6977 40.6308 97.7084 39.8165 98.967 39.8183" fill="white"/><path d="M112.452 57.9631C112.123 57.8731 111.957 57.0765 111.957 55.5627V37.7937L105.73 39.0746V39.8871L107.014 39.6463C107.597 39.5154 108.19 39.4269 108.786 39.3816C109.012 39.3816 109.17 39.5537 109.265 39.8951C109.381 40.482 109.429 41.0807 109.407 41.6788V55.5627C109.407 57.0765 109.246 57.8731 108.917 57.9631C108.371 58.1062 107.809 58.1783 107.245 58.1775L105.73 58.1907V59.0191H115.636V58.1907L114.121 58.1775C113.558 58.1783 112.997 58.1063 112.452 57.9631Z" fill="white"/><path d="M124.001 57.6111C123.673 57.5211 123.509 56.7201 123.509 55.208V33.3475L117.28 34.6284V35.4435L118.56 35.2054C119.144 35.0743 119.736 34.9858 120.332 34.9407C120.559 34.9407 120.716 35.1154 120.814 35.4541C120.929 36.0421 120.977 36.6416 120.956 37.2406V55.2133C120.956 56.7245 120.793 57.5264 120.461 57.6164C119.916 57.7573 119.355 57.8285 118.792 57.8281H117.28V58.6591H127.183V57.8281H125.668C125.105 57.8285 124.544 57.7573 123.998 57.6164" fill="white"/><path d="M109.033 34.8428C109.04 35.1186 109.127 35.3864 109.284 35.6125C109.442 35.8386 109.662 36.013 109.917 36.1139C110.172 36.2148 110.451 36.2377 110.719 36.1798C110.987 36.1218 111.232 35.9856 111.424 35.7881C111.615 35.5907 111.745 35.3407 111.796 35.0696C111.847 34.7985 111.817 34.5183 111.711 34.2639C111.604 34.0096 111.426 33.7926 111.197 33.6399C110.969 33.4873 110.701 33.4058 110.427 33.4057C110.053 33.4106 109.696 33.5647 109.435 33.8341C109.173 34.1035 109.029 34.4663 109.033 34.8428Z" fill="white"/><path d="M141.046 48.2873C141.046 48.2714 138.679 48.2873 138.679 48.2873H134.545L132.939 48.3005C132.718 48.3005 132.5 48.2846 132.281 48.2635C131.999 48.2385 131.718 48.197 131.44 48.1391C131.363 48.1254 131.287 48.1051 131.214 48.0782C130.882 47.9459 130.714 47.189 130.706 45.6963C130.861 44.0713 131.132 42.756 131.527 41.9091C132.27 40.2876 133.299 39.4769 134.614 39.4769C135.929 39.4769 136.957 40.2876 137.698 41.9091C137.959 42.5031 138.153 43.1245 138.277 43.7617H140.78C140.475 42.9787 140.086 42.2315 139.62 41.5333C138.364 39.6101 136.692 38.6468 134.606 38.6433C132.52 38.6397 130.846 39.6031 129.583 41.5333C128.4 43.3594 127.774 45.0797 127.711 47.9882C127.693 48.0094 127.651 49.1712 127.651 49.1712H130.543H133.057H136.475C136.933 49.1951 137.462 49.1712 137.824 49.3777C138.135 49.5523 138.374 50.8227 138.335 51.8416C138.335 52.3259 137.924 54.4485 137.569 55.2239C136.835 56.8454 135.822 57.6561 134.53 57.6561C133.238 57.6561 132.227 56.8454 131.498 55.2239C131.278 54.7265 131.11 54.2077 130.995 53.6757H128.587C128.868 54.3478 129.209 54.9927 129.607 55.6024C130.855 57.5396 132.504 58.5083 134.553 58.5083C136.603 58.5083 138.25 57.5379 139.494 55.5971C140.354 54.313 140.922 52.8535 141.156 51.3229C141.209 50.775 141.223 50.224 141.198 49.6741C141.178 49.2072 141.127 48.7421 141.046 48.282" fill="white"/><path d="M133.696 27.5753C133.03 27.5897 132.369 27.4601 131.757 27.1953C131.145 26.9305 130.596 26.5367 130.149 26.0403C129.197 25.0002 128.687 23.6267 128.729 22.2134C128.729 20.3361 129.581 18.8867 131.285 17.8651C133.029 20.8694 134.945 23.7695 137.022 26.5511C136.036 27.2098 134.88 27.5656 133.696 27.5753ZM133.943 9.89637C135.223 9.89637 135.864 10.7671 135.865 12.5085C135.865 14.4299 135.117 15.9217 133.62 16.9838C133.415 16.5974 133.262 16.3116 133.16 16.1237C132.35 14.6434 131.945 13.4348 131.945 12.4979C131.945 10.7618 132.611 9.89461 133.943 9.89637ZM137.74 18.4791V19.2731H137.977C138.621 19.3155 138.987 19.3366 139.068 19.3366C139.426 19.3366 139.644 19.416 139.728 19.5748C139.812 19.7336 139.852 20.1518 139.852 20.8213C139.891 22.2494 139.506 23.6567 138.745 24.8626C136.934 22.3237 135.511 20.1791 134.477 18.4289C134.377 18.2489 134.214 17.9816 134.004 17.6349C136.77 16.6133 138.152 15.0448 138.151 12.9293C138.171 12.4096 138.075 11.892 137.869 11.4147C137.664 10.9373 137.355 10.5125 136.965 10.1716C136.176 9.47469 135.124 9.12711 133.809 9.12887C133.242 9.11054 132.677 9.20566 132.146 9.40873C131.616 9.6118 131.131 9.91878 130.719 10.3119C130.323 10.6889 130.01 11.1454 129.799 11.6518C129.589 12.1583 129.487 12.7035 129.499 13.2522C129.499 14.3532 129.975 15.6579 130.927 17.1665C127.833 18.1916 126.285 20.1068 126.283 22.9121C126.269 23.7182 126.42 24.5186 126.729 25.2625C127.038 26.0065 127.497 26.6778 128.077 27.2339C128.653 27.8096 129.339 28.2626 130.093 28.5659C130.847 28.8692 131.654 29.0165 132.465 28.9992C134.069 28.9992 136.515 28.1179 138.25 26.7258L139.105 25.8895C140.63 23.894 141.44 22.2161 141.598 20.5011C141.656 19.8712 141.643 19.5219 141.729 19.4425C141.816 19.3631 142.345 19.3234 143.307 19.2731H143.57V18.4791H137.74Z" fill="white"/><path d="M29.83 26.8308H34.1136C34.1136 26.8308 34.0189 24.073 33.9637 23.4908C32.8093 11.2505 25.1678 5.52071 17.8338 5.11579V3.24203H19.8008C19.9914 3.7603 20.3571 4.19461 20.8337 4.46895C21.3104 4.7433 21.8678 4.84022 22.4083 4.74275C22.9488 4.64529 23.438 4.35964 23.7904 3.9358C24.1428 3.51195 24.3359 2.9769 24.3359 2.42424C24.3359 1.87159 24.1428 1.33653 23.7904 0.912686C23.438 0.48884 22.9488 0.203196 22.4083 0.10573C21.8678 0.00826409 21.3104 0.105183 20.8337 0.37953C20.3571 0.653878 19.9914 1.08818 19.8008 1.60646H17.8338V0.812492C17.8338 0.597005 17.7488 0.390345 17.5974 0.237973C17.446 0.0856016 17.2407 0 17.0266 0C16.8125 0 16.6071 0.0856016 16.4557 0.237973C16.3043 0.390345 16.2193 0.597005 16.2193 0.812492V1.60646H14.2497C14.0601 1.08653 13.6947 0.650359 13.2176 0.374409C12.7405 0.0984598 12.1821 0.00033996 11.6403 0.0972503C11.0985 0.194161 10.6078 0.479917 10.2544 0.904426C9.90097 1.32893 9.70727 1.86511 9.70727 2.41895C9.70727 2.97279 9.90097 3.50896 10.2544 3.93347C10.6078 4.35798 11.0985 4.64374 11.6403 4.74065C12.1821 4.83756 12.7405 4.73944 13.2176 4.46349C13.6947 4.18754 14.0601 3.75137 14.2497 3.23144H16.2193V5.1052C12.3513 5.32757 8.70035 6.9764 5.9639 9.73667C2.60329 13.0766 0.575879 17.8722 0.0867763 23.6152C0.0368142 24.1921 0 26.8308 0 26.8308H4.22311V28.4028H0.0552213L2.19044 52.9761H3.53942C2.97054 53.5527 2.58378 54.2858 2.42777 55.0831C2.27175 55.8804 2.35346 56.7064 2.66261 57.4571C2.97176 58.2078 3.49454 58.8497 4.16523 59.3022C4.83591 59.7547 5.62455 59.9974 6.43197 60C7.14541 59.9967 7.84576 59.8069 8.46439 59.4492C9.08301 59.0915 9.59868 58.5782 9.96087 57.9595C10.3225 58.5849 10.8419 59.1029 11.4665 59.4611C12.0911 59.8194 12.7987 60.0051 13.5176 59.9994C14.2365 59.9938 14.9411 59.797 15.5601 59.429C16.1791 59.061 16.6905 58.5349 17.0423 57.9039C17.4053 58.5106 17.918 59.0124 18.5306 59.3608C19.1431 59.7092 19.8348 59.8923 20.5384 59.8923C21.242 59.8923 21.9336 59.7092 22.5462 59.3608C23.1587 59.0124 23.6714 58.5106 24.0344 57.9039C24.3236 58.4104 24.7167 58.8492 25.1875 59.191C25.6582 59.5327 26.1959 59.7697 26.7647 59.8862C27.3335 60.0026 27.9205 59.9958 28.4865 59.8662C29.0525 59.7367 29.5846 59.4873 30.0474 59.1347C30.5103 58.7821 30.8932 58.3344 31.1708 57.8213C31.4484 57.3083 31.6142 56.7416 31.6574 56.159C31.7005 55.5764 31.6198 54.9912 31.4208 54.4424C31.2218 53.8936 30.909 53.3937 30.5032 52.9761H31.8653L34.0032 28.4028H29.83V26.8308ZM1.36738 25.4757C1.36738 24.8379 1.40157 24.036 1.42786 23.729C2.44288 11.8089 9.99242 6.45759 17.0266 6.44436C26.685 6.46553 31.8206 15.0854 32.6226 23.6178C32.6542 23.9487 32.6936 24.867 32.7173 25.4704L1.36738 25.4757ZM3.41846 51.6263L1.52253 29.7552H5.82453L7.72572 51.6263H3.41846ZM6.44248 58.645C5.8983 58.6434 5.36678 58.4796 4.91506 58.1741C4.46334 57.8687 4.11168 57.4354 3.90451 56.9289C3.69734 56.4225 3.64394 55.8656 3.75106 55.3286C3.85819 54.7916 4.12102 54.2986 4.50637 53.9119C4.89172 53.5252 5.3823 53.262 5.91615 53.1558C6.45 53.0495 7.00316 53.1048 7.50578 53.3148C8.0084 53.5247 8.43792 53.8799 8.7401 54.3354C9.04227 54.7909 9.20355 55.3263 9.20355 55.874C9.20355 56.2386 9.13208 56.5996 8.99322 56.9363C8.85437 57.273 8.65087 57.5788 8.39437 57.8362C8.13788 58.0936 7.83344 58.2975 7.4985 58.4363C7.16356 58.5751 6.8047 58.646 6.44248 58.645ZM13.4924 58.645C12.9477 58.646 12.4148 58.4844 11.9614 58.1806C11.5079 57.8767 11.1542 57.4443 10.9451 56.9381C10.7359 56.4319 10.6806 55.8746 10.7862 55.3367C10.8919 54.7988 11.1537 54.3046 11.5385 53.9166C11.9233 53.5285 12.4139 53.2641 12.9481 53.1567C13.4823 53.0494 14.0361 53.1039 14.5395 53.3135C15.0429 53.5231 15.4732 53.8782 15.776 54.334C16.0787 54.7898 16.2403 55.3258 16.2403 55.874C16.2407 56.2376 16.1699 56.5976 16.032 56.9336C15.894 57.2696 15.6917 57.575 15.4366 57.8323C15.1814 58.0896 14.8784 58.2938 14.5448 58.4332C14.2112 58.5727 13.8536 58.6446 13.4924 58.645ZM20.5476 58.5365C20.0026 58.5386 19.4693 58.3778 19.0151 58.0746C18.561 57.7714 18.2065 57.3394 17.9965 56.8333C17.7865 56.3271 17.7305 55.7697 17.8355 55.2315C17.9406 54.6932 18.2019 54.1985 18.5865 53.8099C18.9712 53.4214 19.4617 53.1564 19.9961 53.0486C20.5304 52.9408 21.0845 52.9951 21.5882 53.2045C22.0919 53.4139 22.5225 53.7691 22.8255 54.225C23.1285 54.6809 23.2902 55.217 23.2902 55.7655C23.2896 56.4984 23.0007 57.2012 22.4868 57.7204C21.9729 58.2396 21.2757 58.533 20.5476 58.5365ZM9.0747 51.6263L7.17351 29.7605H27.1584L25.244 51.6263H9.0747ZM27.6106 58.645C27.0659 58.646 26.5331 58.4844 26.0796 58.1806C25.6262 57.8767 25.2725 57.4443 25.0633 56.9381C24.8541 56.4319 24.7988 55.8746 24.9045 55.3367C25.0101 54.7988 25.2719 54.3046 25.6567 53.9166C26.0416 53.5285 26.5321 53.2641 27.0663 53.1567C27.6005 53.0494 28.1544 53.1039 28.6578 53.3135C29.1611 53.5231 29.5914 53.8782 29.8942 54.334C30.197 54.7898 30.3586 55.3258 30.3586 55.874C30.3586 56.608 30.0692 57.312 29.554 57.8315C29.0389 58.351 28.3399 58.6436 27.6106 58.645ZM32.528 29.7552L30.6268 51.6263H26.5956L28.4968 29.7605L32.528 29.7552Z" fill="#C1272D"/><path d="M11.8936 39.0879L12.6378 48.716H21.5337L22.2647 39.0429L17.0686 31.1906L11.8936 39.0879ZM20.0716 44.4551L17.0923 46.7338L14.1051 44.4815C13.7793 44.1011 13.6002 43.6155 13.6002 43.1133C13.6002 42.611 13.7793 42.1255 14.1051 41.745C14.2581 41.5731 14.4453 41.4354 14.6546 41.3411C14.8639 41.2467 15.0906 41.1977 15.32 41.1972C15.5495 41.1988 15.7762 41.2483 15.9858 41.3426C16.1954 41.4369 16.3832 41.5739 16.5375 41.745L17.0923 42.3431L17.6182 41.745C17.7729 41.5743 17.9608 41.4373 18.1702 41.3427C18.3797 41.248 18.6062 41.1976 18.8357 41.1945C19.0642 41.1969 19.2898 41.2471 19.498 41.3418C19.7062 41.4366 19.8926 41.5739 20.0453 41.745C20.3853 42.133 20.5724 42.6329 20.5712 43.1503C20.5729 43.6329 20.3946 44.0985 20.0716 44.4551ZM20.7185 39.0985H13.4635L15.9905 35.2477H18.1704L20.7185 39.0985Z" fill="#C1272D"/><path d="M23.5111 12.2597C22.4898 12.2576 21.4907 12.5605 20.6405 13.1301C19.7902 13.6997 19.127 14.5103 18.7347 15.4594C18.3424 16.4086 18.2387 17.4535 18.4367 18.4619C18.6346 19.4704 19.1254 20.3971 19.8469 21.1247C20.5684 21.8523 21.4881 22.3482 22.4897 22.5495C23.4913 22.7508 24.5297 22.6485 25.4735 22.2556C26.4174 21.8627 27.2242 21.1969 27.7918 20.3423C28.3595 19.4877 28.6625 18.4829 28.6625 17.4549C28.6632 16.0787 28.121 14.7584 27.1551 13.7843C26.1892 12.8102 24.8785 12.2618 23.5111 12.2597ZM23.5111 21.3083C22.7542 21.3067 22.0148 21.0794 21.3862 20.655C20.7576 20.2306 20.2681 19.6283 19.9795 18.924C19.691 18.2198 19.6163 17.4452 19.7649 16.6983C19.9135 15.9513 20.2788 15.2655 20.8145 14.7274C21.3503 14.1892 22.0325 13.823 22.775 13.675C23.5175 13.5269 24.2869 13.6037 24.986 13.8956C25.6852 14.1875 26.2826 14.6814 26.703 15.3149C27.1234 15.9484 27.3477 16.6931 27.3477 17.4549C27.3449 18.4783 26.9388 19.4588 26.2186 20.1812C25.4983 20.9037 24.5227 21.309 23.5059 21.3083H23.5111Z" fill="#C1272D"/><path d="M23.5137 15.6076C23.1497 15.6076 22.7938 15.7163 22.4911 15.9198C22.1884 16.1234 21.9525 16.4127 21.8132 16.7512C21.6738 17.0898 21.6374 17.4622 21.7084 17.8216C21.7794 18.181 21.9547 18.5111 22.2122 18.7702C22.4696 19.0293 22.7976 19.2057 23.1546 19.2772C23.5117 19.3487 23.8818 19.312 24.2182 19.1718C24.5545 19.0315 24.842 18.7941 25.0442 18.4894C25.2465 18.1848 25.3545 17.8266 25.3545 17.4602C25.3545 16.9689 25.1605 16.4976 24.8153 16.1502C24.4701 15.8028 24.0019 15.6076 23.5137 15.6076Z" fill="#C1272D"/><path d="M10.9732 13.8689C10.2675 13.8673 9.57725 14.0765 8.98978 14.47C8.40231 14.8635 7.94405 15.4236 7.67304 16.0794C7.40203 16.7352 7.33044 17.4571 7.46735 18.1539C7.60425 18.8506 7.94349 19.4908 8.44211 19.9934C8.94073 20.4959 9.57632 20.8383 10.2684 20.9771C10.9605 21.116 11.6779 21.045 12.3299 20.7732C12.9818 20.5014 13.539 20.041 13.9308 19.4503C14.3227 18.8596 14.5316 18.1652 14.531 17.455C14.5314 16.9844 14.4396 16.5184 14.261 16.0835C14.0824 15.6486 13.8204 15.2533 13.4901 14.9203C13.1597 14.5873 12.7674 14.3231 12.3355 14.1427C11.9037 13.9623 11.4408 13.8693 10.9732 13.8689ZM10.9732 19.7151C10.5291 19.7151 10.0949 19.5826 9.72558 19.3342C9.35628 19.0859 9.06845 18.7329 8.89848 18.3199C8.72851 17.9069 8.68404 17.4525 8.77069 17.0141C8.85734 16.5756 9.07122 16.1729 9.38528 15.8568C9.69934 15.5407 10.0995 15.3255 10.5351 15.2383C10.9707 15.151 11.4222 15.1958 11.8326 15.3669C12.2429 15.5379 12.5936 15.8276 12.8404 16.1993C13.0872 16.571 13.2189 17.008 13.2189 17.455C13.2175 18.054 12.9804 18.6281 12.5596 19.0516C12.1388 19.4752 11.5684 19.7137 10.9732 19.7151Z" fill="#C1272D"/></svg>