<svg width="128" height="40" viewBox="0 0 128 40" fill="none" xmlns="http://www.w3.org/2000/svg"><path d="M39.7113 10.6163C38.1788 9.417 36.402 8.83954 34.4031 8.83954C32.271 8.83954 30.583 9.63909 29.3837 11.216C29.3171 11.3048 29.2504 11.3493 29.1838 11.327C29.1172 11.3048 29.0727 11.2382 29.0727 11.1272V9.92782C29.0727 9.4392 28.8284 9.17269 28.3176 9.17269H23.6091C23.1205 9.17269 22.854 9.41699 22.854 9.92782V39.2449C22.854 39.7335 23.0983 40 23.6091 40H28.3176C28.8062 40 29.0727 39.7557 29.0727 39.2449V30.1832C29.0727 30.0722 29.1172 29.9833 29.1838 29.9611C29.2504 29.9389 29.3171 29.9611 29.3837 30.05C30.5608 31.4936 32.2265 32.2043 34.4031 32.2043C36.402 32.2043 38.1344 31.6491 39.6224 30.5386C41.1105 29.4281 42.1766 27.9178 42.8207 26.0522C43.3759 24.5863 43.6646 22.7651 43.6646 20.5886C43.6646 18.4786 43.4203 16.724 42.9095 15.3026C42.3098 13.3704 41.2438 11.8157 39.7113 10.6163ZM36.0689 25.0972C35.3581 26.2077 34.3365 26.7629 32.9817 26.7629C31.7379 26.7629 30.7607 26.1855 30.0278 25.0528C29.4059 23.9423 29.095 22.432 29.095 20.5219C29.095 18.7007 29.3837 17.2571 29.9833 16.1688C30.6941 14.9028 31.6935 14.281 32.9817 14.281C34.4253 14.281 35.4914 14.9028 36.2021 16.1688C36.824 17.3237 37.1349 18.7451 37.1349 20.4775C37.1349 22.3654 36.7796 23.92 36.0689 25.0972Z" fill="#231F20"/><path d="M96.2798 8.83954C94.9028 8.83954 93.6591 9.12827 92.5708 9.72793C91.4825 10.3054 90.5941 11.1938 89.9278 12.3709C89.8612 12.4597 89.7946 12.5042 89.7279 12.5264C89.6613 12.5486 89.5947 12.482 89.5724 12.3709C88.995 11.216 88.151 10.3498 87.0627 9.75014C85.9745 9.15048 84.7085 8.83954 83.2426 8.83954C80.7551 8.83954 78.8895 9.70572 77.6902 11.4381C77.6235 11.5491 77.5569 11.5936 77.4903 11.5714C77.4237 11.5491 77.3792 11.4603 77.3792 11.3493V9.95003C77.3792 9.46142 77.1349 9.1949 76.6241 9.1949H71.9156C71.427 9.1949 71.1605 9.43921 71.1605 9.95003V31.0716C71.1605 31.5602 71.4048 31.8268 71.9156 31.8268H76.6241C77.1127 31.8268 77.3792 31.5825 77.3792 31.0716V17.3459C77.4903 16.3465 77.8679 15.5691 78.5119 15.0139C79.1338 14.4586 79.9334 14.1699 80.8662 14.1699C81.8878 14.1699 82.7318 14.5253 83.3759 15.2582C84.02 15.9689 84.3531 16.9239 84.3531 18.1011V31.0938C84.3531 31.5825 84.5974 31.849 85.1083 31.849H89.7723C90.261 31.849 90.5275 31.6047 90.5275 31.0938V18.0344C90.5275 16.8573 90.8606 15.9245 91.5047 15.2138C92.1488 14.5031 92.9928 14.1477 94.0144 14.1477C95.0361 14.1477 95.8578 14.5031 96.4797 15.2138C97.1016 15.9245 97.4125 16.8795 97.4125 18.0788V31.0716C97.4125 31.5602 97.6568 31.8268 98.1677 31.8268H102.876C103.365 31.8268 103.631 31.5825 103.631 31.0716V16.724C103.631 14.2365 102.987 12.2821 101.699 10.9051C100.366 9.52804 98.5674 8.83954 96.2798 8.83954Z" fill="#231F20"/><path d="M123.642 10.7496C121.91 9.50585 119.845 8.88397 117.401 8.88397C114.892 8.88397 112.76 9.50585 110.983 10.7496C109.228 11.9934 108.007 13.7035 107.318 15.9023C106.874 17.2349 106.652 18.8118 106.652 20.6108C106.652 22.2321 106.852 23.7424 107.274 25.1416C107.918 27.3848 109.139 29.1616 110.916 30.472C112.693 31.7824 114.825 32.4265 117.357 32.4265C119.822 32.4265 121.91 31.7602 123.687 30.4498C125.441 29.1394 126.663 27.3182 127.351 25.0084C127.418 24.7418 127.485 24.4753 127.551 24.2088C127.618 23.9423 127.396 23.6758 127.129 23.6758H121.355C121.31 23.6758 121.288 23.7202 121.266 23.7202C120.977 24.764 120.489 25.5636 119.8 26.1633C119.112 26.7629 118.312 27.0517 117.357 27.0517C116.358 27.0517 115.491 26.7629 114.803 26.1633C114.114 25.5636 113.604 24.764 113.315 23.7202C113.27 23.5425 113.226 23.3426 113.182 23.1205C113.137 22.854 113.337 22.6097 113.604 22.6097H121.488H127.396C127.618 22.6097 127.818 22.432 127.84 22.2099C127.884 21.6547 127.929 21.0772 127.929 20.4997C127.929 18.7452 127.707 17.2127 127.263 15.8357C126.574 13.6813 125.375 11.9934 123.642 10.7496ZM121.266 18.1233H113.359C113.27 18.1233 113.204 18.0344 113.204 17.9456C113.248 17.7679 113.27 17.5902 113.315 17.4348C113.604 16.4353 114.092 15.6358 114.781 15.0805C115.469 14.5253 116.291 14.2366 117.268 14.2366C118.268 14.2366 119.112 14.5253 119.8 15.0805C120.489 15.6358 120.977 16.4353 121.266 17.4348C121.31 17.6125 121.355 17.7901 121.399 17.9678C121.421 18.0567 121.355 18.1233 121.266 18.1233Z" fill="#231F20"/><path d="M57.4125 9.19488C55.6135 9.4614 54.2365 10.3054 53.2815 11.6824C53.2149 11.7934 53.1482 11.8379 53.0816 11.8156C53.015 11.7934 52.9706 11.7046 52.9706 11.5935V9.9278C52.9706 9.50582 52.6374 9.17267 52.2154 9.17267H47.5069C47.0849 9.17267 46.7518 9.50582 46.7518 9.9278V31.005C46.7518 31.427 47.0849 31.7601 47.5069 31.7601H52.2154C52.6374 31.7601 52.9706 31.427 52.9706 31.005V17.5902C53.0816 16.5908 53.4592 15.8134 54.1033 15.2582C54.7251 14.7029 55.5247 14.4142 56.4575 14.4142C56.7907 14.4142 57.1016 14.4586 57.3903 14.5253C57.6124 14.5697 57.8123 14.4364 57.8123 14.2143V9.52803C57.8123 9.32814 57.6124 9.15046 57.4125 9.19488Z" fill="#231F20"/><path d="M66.4297 9.19489H61.7212C61.2326 9.19489 60.9661 9.43919 60.9661 9.95002V31.0716C60.9661 31.5602 61.2104 31.8268 61.7212 31.8268H66.4297C66.9184 31.8268 67.1849 31.5824 67.1849 31.0716V9.95002C67.1849 9.43919 66.9406 9.19489 66.4297 9.19489Z" fill="#231F20"/><path d="M64.0755 0C62.1432 0 60.5885 1.55469 60.5885 3.48695C60.5885 5.41921 62.1432 6.9739 64.0755 6.9739C66.0078 6.9739 67.5625 5.41921 67.5625 3.48695C67.5625 1.55469 66.0078 0 64.0755 0Z" fill="#231F20"/><path d="M4.37535 30.4276C2.6874 29.2727 1.46585 27.6735 0.732926 25.6302C0.244309 24.1866 0 22.4764 0 20.4998C0 18.5453 0.244309 16.8795 0.732926 15.4581C1.42143 13.4814 2.64298 11.9267 4.35314 10.794C6.0633 9.66133 8.0844 9.10608 10.3942 9.10608C12.7263 9.10608 14.7474 9.68354 16.5019 10.8385C18.2565 11.9934 19.4336 13.4592 20.0111 15.236C20.1888 15.6358 20.2998 16.1022 20.3665 16.5908V16.6797C20.3665 17.0572 20.1444 17.2793 19.7224 17.3682L15.1471 18.0567L14.925 18.1011C14.5697 18.1011 14.3698 17.9234 14.3254 17.568L14.1921 16.9684C13.9922 16.2132 13.548 15.5914 12.8373 15.1027C12.1488 14.6141 11.3048 14.3698 10.3498 14.3698C9.41699 14.3698 8.63964 14.5919 7.99556 15.0583C7.35147 15.5247 6.90727 16.1688 6.64075 16.9684C6.32982 17.8346 6.15214 19.0339 6.15214 20.5442C6.15214 22.0544 6.30761 23.2538 6.59633 24.12C6.86285 24.9862 7.30705 25.6747 7.97335 26.1633C8.61743 26.6519 9.41699 26.8962 10.3498 26.8962C11.2382 26.8962 12.0378 26.6519 12.7263 26.1855C13.4148 25.6969 13.8812 25.0528 14.1477 24.2532L14.1921 24.0311C14.2143 23.9201 14.3254 23.7868 14.5031 23.6091C14.6807 23.4537 14.8584 23.387 15.0583 23.4092L19.6335 24.0978C19.8556 24.1644 20.0333 24.2532 20.1444 24.4087C20.2554 24.5642 20.2776 24.7196 20.2554 24.9417C20.1888 25.4081 20.1222 25.7413 20.0333 25.9412C19.4336 27.8956 18.2343 29.4059 16.4797 30.5164C14.7251 31.6269 12.7041 32.1599 10.4164 32.1599C7.77346 32.1822 6.0633 31.6047 4.37535 30.4276Z" fill="#EC1B52"/></svg>