<svg width="101" height="29" viewBox="0 0 101 29" fill="none" xmlns="http://www.w3.org/2000/svg"><path fill-rule="evenodd" clip-rule="evenodd" d="M31.3838 28.5499V0.560503H32.8442C33.331 0.560503 33.6119 0.794917 33.6868 1.26375L33.9395 5.48326C35.2127 3.87046 36.6965 2.57181 38.3909 1.58725C40.0854 0.602693 41.9717 0.11042 44.05 0.11042C45.5853 0.11042 46.9381 0.354212 48.1083 0.841803C49.2785 1.32939 50.2474 2.03264 51.015 2.95156C51.7827 3.87048 52.3631 4.97692 52.7563 6.27091C53.1495 7.5649 53.3461 9.02764 53.3461 10.6592V28.5499H50.678V10.6592C50.678 8.03371 50.0789 5.97555 48.8806 4.48465C47.6823 2.99374 45.8475 2.24831 43.376 2.24831C41.5411 2.24831 39.8373 2.72182 38.2646 3.66887C36.6918 4.61593 35.2876 5.91458 34.0519 7.56489V28.5499H31.3838ZM56.7414 28.5499V0.560503H58.2018C58.6886 0.560503 58.9694 0.794917 59.0443 1.26375L59.2971 5.48326C60.5703 3.87046 62.0541 2.57181 63.7485 1.58725C65.443 0.602693 67.3293 0.11042 69.4076 0.11042C70.9429 0.11042 72.2956 0.354212 73.4659 0.841803C74.6361 1.32939 75.605 2.03264 76.3726 2.95156C77.1403 3.87048 77.7207 4.97692 78.1139 6.27091C78.5071 7.5649 78.7037 9.02764 78.7037 10.6592V28.5499H76.0356V10.6592C76.0356 8.03371 75.4365 5.97555 74.2382 4.48465C73.0399 2.99374 71.205 2.24831 68.7336 2.24831C66.8987 2.24831 65.1949 2.72182 63.6221 3.66887C62.0494 4.61593 60.6452 5.91458 59.4094 7.56489V28.5499H56.7414ZM99.9328 28.5499C99.3711 28.5499 99.0247 28.2874 98.8936 27.7623L98.5005 24.1898C97.7328 24.9399 96.9698 25.615 96.2116 26.2151C95.4533 26.8152 94.6622 27.3216 93.8384 27.7341C93.0146 28.1467 92.1252 28.4608 91.1703 28.6765C90.2155 28.8922 89.167 29 88.0248 29C87.07 29 86.1432 28.8594 85.2445 28.578C84.3457 28.2967 83.55 27.8654 82.8573 27.2841C82.1645 26.7027 81.6075 25.9573 81.1862 25.0477C80.7649 24.1382 80.5543 23.0458 80.5543 21.7706C80.5543 20.5891 80.8913 19.492 81.5654 18.4794C82.2394 17.4667 83.2926 16.5853 84.7249 15.8351C86.1572 15.085 88.0014 14.4849 90.2576 14.0348C92.5137 13.5847 95.2239 13.3222 98.3881 13.2472V10.3216C98.3881 7.73366 97.8311 5.74113 96.7171 4.344C95.603 2.94686 93.9507 2.24831 91.7601 2.24831C90.4121 2.24831 89.2653 2.43584 88.3197 2.81091C87.3742 3.18598 86.5738 3.59855 85.9185 4.04863C85.2632 4.49871 84.7296 4.91128 84.3177 5.28635C83.9058 5.66142 83.5594 5.84896 83.2785 5.84896C82.9041 5.84896 82.6232 5.68018 82.436 5.34261L81.9585 4.52684C83.419 3.06407 84.9542 1.95763 86.5644 1.20749C88.1746 0.457354 90.0001 0.0822906 92.041 0.0822906C93.5388 0.0822906 94.8494 0.321395 95.9728 0.799608C97.0962 1.27782 98.0277 1.96231 98.7673 2.8531C99.5068 3.74389 100.064 4.8222 100.438 6.08806C100.813 7.35392 101 8.7651 101 10.3216V28.5499H99.9328ZM88.6989 27.059C87.9687 27.059 87.2666 26.9559 86.5925 26.7496C85.9185 26.5433 85.3287 26.2198 84.8232 25.7791C84.3177 25.3384 83.9104 24.7758 83.6015 24.0913C83.2926 23.4068 83.1381 22.5957 83.1381 21.6581C83.1381 20.6641 83.433 19.778 84.0228 18.9998C84.6126 18.2215 85.53 17.5511 86.7751 16.9885C88.0202 16.4259 89.6023 15.9805 91.5214 15.6523C93.4405 15.3241 95.7294 15.1225 98.3881 15.0475V22.3332C97.7328 23.0083 97.0681 23.6365 96.3941 24.2179C95.7201 24.7992 94.9946 25.3009 94.2175 25.7228C93.4405 26.1448 92.598 26.473 91.6899 26.7074C90.7818 26.9418 89.7848 27.059 88.6989 27.059ZM0 14.3671C0 6.43238 6.46909 0 14.4491 0C22.4291 0 28.8982 6.43238 28.8982 14.3671C28.8982 22.3019 22.4291 28.7342 14.4491 28.7342C6.46909 28.7342 0 22.3019 0 14.3671ZM26.3832 14.3671C26.3832 7.82778 21.0442 2.51911 14.4491 2.51911C7.85402 2.51911 2.51505 7.82778 2.51505 14.3671C2.51505 20.9064 7.85402 26.2151 14.4491 26.2151C21.0442 26.2151 26.3832 20.9064 26.3832 14.3671ZM14.4491 8.20978L18.1646 18.8825H10.7336L14.4491 8.20978Z" fill="white"/></svg>