<svg width="150" height="60" viewBox="0 0 150 60" fill="none" xmlns="http://www.w3.org/2000/svg"><path d="M76.685 0.0326718C82.0453 -0.151839 87.4406 0.654406 92.4963 2.44841C100.102 5.11836 106.9 10.0113 111.873 16.3493C114.061 19.1298 115.894 22.1862 117.33 25.4199C117.585 25.958 117.781 26.5628 117.645 27.1623C117.478 28.1688 116.596 29.0008 115.581 29.1014C114.527 29.2555 113.438 28.5979 113.062 27.6049C110.206 20.884 105.332 15.046 99.2513 11.0049C95.4924 8.49307 91.2769 6.664 86.8727 5.63997C81.1933 4.31151 75.2137 4.31151 69.5331 5.63592C61.4223 7.50367 53.9958 12.156 48.758 18.6205C46.5371 21.3443 44.7034 24.3806 43.321 27.6108C43.0218 28.3614 42.3344 28.9499 41.5323 29.0816C40.7589 29.2309 39.917 28.9638 39.3777 28.3878C38.7419 27.7508 38.534 26.7326 38.8618 25.8965C42.6664 16.9015 49.7111 9.34504 58.3724 4.84721C64.0137 1.89458 70.3242 0.247609 76.685 0.0326718Z" fill="#F49813"/><path d="M69.6016 27.7285C69.5695 27.2613 70.0116 26.9117 70.4495 26.9006C71.0187 26.8854 71.5894 26.8901 72.1598 26.8982C72.5561 26.9117 73.0186 27.1758 73.017 27.6209C73.0373 32.8476 73.0047 38.076 73.0345 43.3057C75.1523 40.9508 77.2882 38.6088 79.4134 36.261C79.8321 35.8482 80.1629 35.2229 80.814 35.169C81.6911 35.1328 82.5705 35.1544 83.4487 35.1556C83.7872 35.1251 84.1649 35.4354 84.046 35.7966C83.9072 36.0754 83.6526 36.2668 83.4447 36.4882C81.1466 38.7845 78.8397 41.0727 76.5533 43.3788C78.7619 45.9 80.9399 48.447 83.1385 50.9775C83.4213 51.3376 83.7755 51.6432 84.0126 52.0402C84.1865 52.3505 83.8984 52.7281 83.5658 52.7428C82.8357 52.7838 82.1039 52.7428 81.372 52.7603C80.9915 52.7515 80.5799 52.8072 80.2344 52.611C79.8701 52.402 79.6489 52.0285 79.3882 51.714C77.2676 49.0436 75.161 46.3626 73.0327 43.6967C73.011 46.3257 73.0263 48.9534 73.0245 51.5805C73.0164 51.8838 73.0784 52.2492 72.8143 52.4705C72.3939 52.8763 71.7681 52.734 71.2435 52.7603C70.7779 52.7445 70.2334 52.8464 69.8552 52.5027C69.6445 52.3388 69.5893 52.0589 69.5976 51.8101C69.6034 43.7817 69.5952 35.7545 69.6016 27.7285Z" fill="#3069B5"/><path d="M59.9415 35.1116C61.0048 34.7697 62.2033 34.7047 63.2449 35.1555C63.6103 35.3271 64.0348 35.693 63.8696 36.1439C63.7028 36.71 63.5606 37.2826 63.3615 37.8388C63.2145 38.2381 62.7513 38.3863 62.3615 38.3084C61.4843 38.1579 60.6231 37.8682 59.7237 37.8974C59.0962 37.8827 58.517 38.2194 58.0879 38.6557C57.3952 39.333 57.0369 40.2803 56.8759 41.2201C56.7482 41.8993 56.7846 42.5931 56.7788 43.2793C56.7788 46.1629 56.7798 49.0482 56.7782 51.9318C56.8191 52.4061 56.3285 52.7281 55.9004 52.7445C55.3126 52.7527 54.7259 52.7603 54.1386 52.7398C53.7142 52.7176 53.2365 52.4078 53.2915 51.9301C53.2891 46.5903 53.2856 41.2523 53.2927 35.9126C53.2564 35.3815 53.8447 35.0929 54.3062 35.1426C54.8852 35.1807 55.6756 34.9629 56.0521 35.5455C56.3378 36.2211 56.4736 36.9507 56.7419 37.6323C57.5492 36.5244 58.6195 35.5478 59.9415 35.1116Z" fill="#3069B5"/><path d="M0 35.5192C0.163353 35.3318 0.354226 35.1291 0.626483 35.1485C1.42393 35.1408 2.22372 35.1233 3.02058 35.1602C3.42517 35.1719 3.70386 35.5274 3.763 35.9038C4.54697 39.0919 5.31692 42.2846 6.09738 45.4738C6.3263 46.4586 6.605 47.4334 6.75431 48.4352C6.90829 49.3351 6.93874 50.2485 7.08511 51.1502C7.28653 49.8633 7.46686 48.5681 7.81406 47.3111C8.83458 43.5047 9.85452 39.6991 10.8762 35.8939C10.9559 35.4599 11.3639 35.1515 11.7978 35.1515C12.6854 35.1291 13.5748 35.1444 14.4624 35.1444C14.9384 35.1221 15.4479 35.4003 15.5625 35.888C16.3249 38.6627 17.0779 41.4426 17.8372 44.2197C18.298 46.0183 18.9016 47.7865 19.1622 49.632C19.2342 50.1402 19.3045 50.6496 19.4092 51.1543C19.6955 48.2549 20.4415 45.434 21.0552 42.5949C21.5616 40.3361 22.0569 38.0749 22.5692 35.8159C22.6447 35.3622 23.1248 35.1339 23.5476 35.1467C24.2654 35.1426 24.9845 35.1221 25.7011 35.1585C26.1267 35.1708 26.3714 35.6415 26.2215 36.021C24.7812 41.3355 23.3462 46.6535 21.9053 51.9681C21.828 52.3944 21.4567 52.7269 21.0217 52.7339C19.9093 52.7702 18.7946 52.7427 17.6821 52.7486C17.2834 52.7732 16.8618 52.5595 16.7915 52.1397C15.7956 48.485 14.8195 44.8239 13.833 41.1663C13.4758 39.8939 13.3312 38.5749 13.1813 37.2662C12.9981 38.4315 12.9073 39.6159 12.597 40.7606C11.587 44.5265 10.5712 48.2941 9.55884 52.0606C9.44467 52.6707 8.74735 52.7925 8.22859 52.7527C7.19402 52.7339 6.15945 52.7767 5.12603 52.7339C4.75776 52.7351 4.4738 52.4482 4.40764 52.1004C2.9556 46.807 1.50824 41.5111 0.0550369 36.2188C0.00468399 35.9875 0.0111245 35.7516 0 35.5192Z" fill="#3069B5"/><path d="M130.47 35.1585C131.225 35.1456 131.984 35.1426 132.739 35.1585C133.198 35.165 133.631 35.4793 133.775 35.9184C135.08 39.3272 136.375 42.7424 137.678 46.1529C137.95 46.845 138.14 47.5669 138.262 48.3C138.8 46.2771 139.518 44.3085 140.147 42.312C140.848 40.1534 141.549 37.9941 142.253 35.8346C142.357 35.4589 142.716 35.2024 143.096 35.1708C143.713 35.1251 144.333 35.165 144.951 35.1485C145.313 35.1527 145.743 35.1104 146.018 35.4003C146.197 35.5514 146.158 35.8024 146.084 35.9986C144 41.9444 141.921 47.893 139.84 53.8405C139.478 54.8312 139.2 55.8681 138.617 56.7592C137.782 58.1164 136.427 59.0936 134.939 59.6223C134.419 59.7833 133.882 60.1405 133.323 59.9402C132.926 59.839 132.774 59.4262 132.562 59.1229C132.41 58.8477 132.129 58.593 132.187 58.2505C132.215 57.9109 132.487 57.6345 132.808 57.5438C133.436 57.3272 134.074 57.0883 134.582 56.6451C135.817 55.5999 136.582 54.0542 136.872 52.481C136.675 51.7825 136.31 51.1402 136.046 50.464C134.058 45.8444 132.07 41.2231 130.078 36.6052C129.958 36.303 129.781 36.015 129.747 35.6872C129.752 35.3271 130.164 35.169 130.47 35.1585Z" fill="#3069B5"/><path d="M37.7892 37.3927C36.7049 37.5942 35.716 38.2693 35.1656 39.2306C34.2459 40.7898 34.1399 42.671 34.1814 44.4392C34.2469 46.0399 34.504 47.7472 35.5252 49.0412C36.2869 50.0143 37.5386 50.5032 38.7554 50.4844C39.9257 50.5219 41.1518 50.1255 41.9451 49.2356C42.9585 48.1272 43.2841 46.5891 43.4235 45.1388C43.4849 43.7144 43.5137 42.2641 43.1442 40.873C42.8503 39.6978 42.2296 38.5227 41.1558 37.8897C40.1564 37.2767 38.9216 37.2194 37.7892 37.3927ZM38.2471 34.8575C40.2091 34.7369 42.2648 35.1444 43.8842 36.3066C45.3327 37.3371 46.3164 38.925 46.776 40.6276C47.3223 42.6604 47.3199 44.8297 46.8246 46.8731C46.358 48.7566 45.2666 50.5324 43.6203 51.6027C41.8607 52.7702 39.6505 53.0735 37.5855 52.8247C35.8261 52.608 34.1117 51.8364 32.8868 50.5401C31.4472 49.0318 30.7322 46.9539 30.5835 44.9C30.4026 42.6223 30.7515 40.2114 32.0185 38.2663C32.9559 36.8025 34.4461 35.727 36.1082 35.2363C36.8014 35.0197 37.5246 34.919 38.2471 34.8575Z" fill="#3069B5"/><path d="M96.1218 37.3003C95.0462 37.3694 94.0081 37.9882 93.528 38.97C92.59 40.7857 92.5708 42.8987 92.6176 44.8954C92.6926 46.1998 92.8342 47.5464 93.442 48.7245C93.853 49.5178 94.5996 50.1443 95.4824 50.3363C96.8332 50.6613 98.4229 50.3861 99.3831 49.3187C100.308 48.2654 100.613 46.8333 100.755 45.4779C100.853 43.9328 100.859 42.356 100.475 40.8436C100.212 39.8325 99.7654 38.8225 98.9644 38.1198C98.1963 37.4437 97.1259 37.183 96.1218 37.3003ZM100.75 27.5048C100.726 27.095 101.144 26.8333 101.508 26.8017C102.091 26.7701 102.675 26.7852 103.259 26.7916C103.704 26.7876 104.202 27.1184 104.137 27.6126C104.137 35.6773 104.139 43.7406 104.136 51.8042C104.167 52.2205 103.757 52.5437 103.372 52.5688C102.908 52.5934 102.442 52.5934 101.98 52.5612C101.654 52.5407 101.337 52.3317 101.226 52.0196C101.052 51.4956 100.961 50.9511 100.828 50.4183C100.184 51.2919 99.3537 52.0647 98.3222 52.4482C96.8507 52.9898 95.2131 52.9986 93.7008 52.6297C92.1814 52.2644 90.8582 51.2204 90.1251 49.8463C88.9746 47.7484 88.8382 45.2806 88.9103 42.9404C88.9512 40.9409 89.333 38.8314 90.6356 37.2447C91.6182 35.8997 93.2283 35.1279 94.8542 34.926C96.3678 34.7047 98.0089 34.9593 99.2618 35.8763C99.8543 36.2932 100.329 36.8522 100.752 37.4367C100.74 34.1268 100.743 30.8158 100.75 27.5048Z" fill="#3069B5"/><path d="M117.036 37.4009C116.496 37.511 115.973 37.7275 115.537 38.0654C114.665 38.7445 114.231 39.8237 114 40.8717C113.663 42.5346 113.668 44.2519 113.842 45.9333C114.005 47.1687 114.315 48.4873 115.221 49.4007C115.959 50.1753 117.071 50.4593 118.112 50.4083C119.231 50.4487 120.397 50.0318 121.119 49.1524C122.021 48.0605 122.276 46.6078 122.408 45.2395C122.492 43.6306 122.493 41.983 122.041 40.4209C121.755 39.4478 121.233 38.48 120.351 37.9255C119.381 37.2885 118.153 37.2299 117.036 37.4009ZM115.537 35.1923C117.09 34.762 118.753 34.7368 120.322 35.0958C121.78 35.4337 123.146 36.2521 124.041 37.464C124.989 38.7065 125.467 40.247 125.666 41.7822C125.839 42.966 125.789 44.1651 125.791 45.3578C125.791 47.5101 125.791 49.663 125.785 51.8147C125.808 52.077 125.643 52.3094 125.429 52.4458C125.068 52.6683 124.62 52.57 124.217 52.5952C123.765 52.5916 123.171 52.6314 122.925 52.1613C122.685 51.6086 122.635 50.992 122.481 50.4106C121.875 51.1472 121.247 51.9072 120.37 52.3328C119.034 52.9933 117.472 52.9546 116.042 52.6754C114.293 52.3299 112.681 51.2953 111.692 49.8047C110.513 48.0687 110.086 45.9257 110.102 43.8548C110.088 41.836 110.483 39.7488 111.605 38.0408C112.503 36.6445 113.943 35.6333 115.537 35.1923Z" fill="#3069B5"/><path d="M146.826 48.416C145.938 48.7421 145.379 49.7667 145.605 50.6918C145.836 51.7779 147.1 52.5191 148.154 52.1175C149.126 51.8206 149.739 50.7123 149.437 49.7351C149.173 48.6355 147.868 47.9856 146.826 48.416ZM146.949 47.9517C147.476 47.8685 148.048 47.8627 148.537 48.1068C149.37 48.4851 149.968 49.3791 149.878 50.3089C149.947 51.4178 149.015 52.4091 147.95 52.5876C146.752 52.8423 145.462 51.974 145.218 50.7785C144.903 49.5753 145.739 48.221 146.949 47.9517Z" fill="#3069B5"/><path d="M147.197 49.303C147.195 49.5548 147.194 49.8065 147.197 50.06C147.417 50.0466 147.644 50.06 147.862 49.9997C148.067 49.9148 148.047 49.6543 147.991 49.4798C147.779 49.2725 147.464 49.3264 147.197 49.303ZM146.53 48.8931C147.167 48.9294 147.882 48.7497 148.455 49.1051C148.918 49.4523 148.694 50.2076 148.171 50.3686C148.322 50.7667 148.531 51.1368 148.723 51.5162C148.482 51.5209 148.245 51.5249 148.007 51.5291C147.836 51.1777 147.668 50.8223 147.504 50.4681C147.4 50.4652 147.297 50.464 147.197 50.4623C147.195 50.8165 147.195 51.1707 147.195 51.5249C146.969 51.522 146.749 51.5191 146.527 51.5173C146.529 50.642 146.526 49.7667 146.53 48.8931Z" fill="#3069B5"/></svg>