<svg width="85" height="45" viewBox="0 0 85 45" fill="none" xmlns="http://www.w3.org/2000/svg"><path d="M43.6051 13.282C37.5647 13.282 32.3321 16.6995 29.6882 21.7057C27.0444 16.6995 21.7934 13.282 15.7529 13.282C12.2094 13.282 8.94135 14.4643 6.2975 16.4594V3.10345C6.26078 1.38547 4.86541 0 3.13957 0C1.41373 0 0.0367201 1.38547 0 3.10345V29.4089C0.14688 38.0542 7.14206 45 15.7529 45C21.7934 45 27.0444 41.5825 29.6882 36.5764C32.3321 41.5825 37.583 45 43.6051 45C52.3078 45 59.3764 37.9064 59.3764 29.1318C59.3764 20.3756 52.3078 13.282 43.6051 13.282ZM15.7529 38.6453C10.5387 38.6453 6.2975 34.3966 6.2975 29.1318C6.2975 23.8855 10.5387 19.6182 15.7529 19.6182C20.9672 19.6182 25.2084 23.867 25.2084 29.1318C25.2084 34.3966 20.9855 38.6453 15.7529 38.6453ZM43.6051 38.6453C38.3909 38.6453 34.1497 34.3966 34.1497 29.1318C34.1497 23.8855 38.3909 19.6182 43.6051 19.6182C48.8194 19.6182 53.0606 23.867 53.0606 29.1318C53.0606 34.3966 48.8194 38.6453 43.6051 38.6453Z" fill="white"/><path d="M83.8319 39.6983L75.2578 29.1318L83.8319 18.5284C84.9152 17.1244 84.6031 15.1848 83.1159 14.1503C81.6104 13.0973 79.5173 13.3744 78.3607 14.723L70.9799 23.8301L63.5992 14.723C62.4425 13.3744 60.3311 13.0973 58.8439 14.1503C57.3568 15.1848 57.0447 17.1429 58.1279 18.5284L66.6837 29.1318L58.1279 39.6983C57.0447 41.1023 57.3568 43.0419 58.8439 44.0949C60.3311 45.1294 62.4609 44.8708 63.5992 43.5038L70.9799 34.4151L78.3423 43.5038C79.499 44.8708 81.6104 45.1294 83.0975 44.0949C84.6031 43.0419 84.9152 41.1023 83.8319 39.6983Z" fill="white"/></svg>