<svg width="139" height="61" viewBox="0 0 139 61" fill="none" xmlns="http://www.w3.org/2000/svg"><path d="M53.6738 6.77005C49.4278 2.72626 43.7665 0.299988 37.4987 0.299988C24.4574 0.299988 13.9436 10.8138 13.9436 23.8551C13.9436 25.0682 14.0447 26.1803 14.1458 27.2923C14.5501 26.8879 20.9191 21.4288 32.7472 14.9587C42.5534 9.70181 52.5618 7.07334 53.6738 6.77005Z" fill="white"/><path d="M54.5837 7.78101C53.876 7.9832 45.4851 10.5106 33.8592 17.0817C24.6596 22.2376 15.46 31.0328 15.1567 31.3361C18.2906 40.6368 27.0859 47.4102 37.4987 47.4102C50.5399 47.4102 61.0537 36.8963 61.0537 23.8551C60.9526 17.6883 58.5264 12.027 54.5837 7.78101Z" fill="white"/><path d="M14.1458 27.2923C14.1458 27.2923 14.1458 28.3032 14.449 29.5164C14.7523 30.7295 15.1567 31.3361 15.1567 31.3361C14.6512 30.0219 14.3479 28.7076 14.1458 27.2923Z" fill="white"/><path d="M54.5837 7.781C54.6848 7.781 54.6848 7.781 54.5837 7.781L53.6738 6.77005C53.6738 6.77005 53.6738 6.77005 53.5727 6.77005C53.9771 7.07333 54.2804 7.47771 54.5837 7.781Z" fill="white"/><path fill-rule="evenodd" clip-rule="evenodd" d="M15.0556 31.3361C11.7195 36.1887 7.2713 40.1314 8.88882 47.4102C13.2359 67.1237 59.9417 53.4759 73.1851 47.9157C62.7724 52.4649 38.5096 61.9678 18.8972 60.047C12.6293 59.4405 5.04722 57.4186 2.41875 53.2737C-3.74803 43.3664 8.08006 32.0438 14.0447 27.4945C14.2468 28.4044 15.0556 31.3361 15.0556 31.3361Z" fill="white"/><path fill-rule="evenodd" clip-rule="evenodd" d="M53.5727 6.77006C63.1767 3.63612 79.3519 1.41203 89.3603 6.56787C76.218 2.42298 62.8734 4.95035 54.4826 7.78101C54.6848 7.9832 53.3705 6.66896 53.5727 6.77006Z" fill="white"/><path d="M101.795 20.8223H93.2019V44.6806H101.795V20.8223Z" fill="white"/><path d="M97.549 19.8113C100.229 19.8113 102.402 17.6387 102.402 14.9588C102.402 12.2788 100.229 10.1062 97.549 10.1062C94.869 10.1062 92.6964 12.2788 92.6964 14.9588C92.6964 17.6387 94.869 19.8113 97.549 19.8113Z" fill="#F5333F"/><path d="M105.03 20.8223H115.544L119.79 25.877L123.935 20.8223H134.954L125.047 31.6394L136.774 44.5795H125.856L119.689 37.4018L113.522 44.5795H102.402L114.634 31.4372L105.03 20.8223Z" fill="white"/><path d="M136.369 25.4726C137.542 25.4726 138.492 24.5221 138.492 23.3496C138.492 22.1771 137.542 21.2266 136.369 21.2266C135.197 21.2266 134.246 22.1771 134.246 23.3496C134.246 24.5221 135.197 25.4726 136.369 25.4726Z" fill="white"/><path d="M64.2888 44.6806V21.1255H73.1851V24.765C75.4092 21.8332 78.2399 20.4179 81.4749 20.4179C87.8439 20.4179 90.9778 23.754 90.9778 30.5274V44.5795H81.9804V32.246C81.9804 29.3142 80.7672 27.0901 77.7344 26.989C74.7016 26.8879 73.084 29.5164 73.084 32.7514V44.7817L64.2888 44.6806Z" fill="white"/><path d="M135.561 24.6639V21.9343H136.572C136.774 21.9343 136.976 21.9343 136.976 22.0354C137.077 22.0354 137.178 22.1365 137.178 22.2376C137.279 22.3387 137.279 22.4398 137.279 22.642C137.279 22.8441 137.178 23.0463 137.077 23.1474C136.976 23.2485 136.774 23.3496 136.572 23.3496C136.673 23.3496 136.673 23.4507 136.774 23.4507C136.875 23.5518 136.976 23.6529 136.976 23.754L137.38 24.4617H136.976L136.673 23.8551C136.572 23.6529 136.47 23.4507 136.369 23.4507C136.268 23.3496 136.268 23.3496 136.167 23.2485C136.066 23.2485 136.066 23.2485 135.965 23.2485H135.662V24.4617H135.561V24.6639ZM135.864 23.1474H136.47C136.572 23.1474 136.673 23.1474 136.774 23.1474C136.875 23.1474 136.875 23.0463 136.976 22.9452C136.976 22.8441 137.077 22.7431 137.077 22.7431C137.077 22.642 137.077 22.5409 136.976 22.4398C136.875 22.3387 136.774 22.3387 136.673 22.3387H135.965V23.1474H135.864Z" fill="white"/></svg>