<svg width="201" height="25" viewBox="0 0 201 25" fill="none" xmlns="http://www.w3.org/2000/svg"><path d="M7.27319 11.3944C7.20041 11.2983 7.10425 11.2228 6.99401 11.1752C6.88377 11.1275 6.76319 11.1094 6.64396 11.1226C6.52473 11.1357 6.41089 11.1797 6.31347 11.2502C6.21605 11.3207 6.13835 11.4154 6.08791 11.5251L0.0763093 23.6445C0.0213978 23.7548 -0.0046365 23.8774 0.000676996 24.0007C0.0059905 24.1241 0.0424755 24.2439 0.10667 24.3491C0.170864 24.4542 0.260638 24.541 0.367472 24.6013C0.474306 24.6616 0.594656 24.6934 0.717102 24.6936H9.08815C9.22366 24.6962 9.35695 24.6587 9.47151 24.5857C9.58607 24.5127 9.67686 24.4074 9.73265 24.2829C11.5365 20.5493 10.4438 14.8107 7.27319 11.3944Z" fill="url(#paint0_linear)"/><path d="M11.6846 0.387756C10.186 2.71165 9.31266 5.38843 9.15031 8.15531C8.98797 10.9222 9.54221 13.6841 10.7586 16.1698L14.8145 24.283C14.8737 24.4036 14.9649 24.5051 15.0781 24.5764C15.1913 24.6476 15.3219 24.6856 15.4553 24.6863H23.8263C23.9437 24.6765 24.057 24.6387 24.157 24.576C24.2569 24.5132 24.3406 24.4274 24.4011 24.3256C24.4615 24.2237 24.4971 24.1088 24.5047 23.9904C24.5123 23.872 24.4918 23.7534 24.4449 23.6446L12.9069 0.387756C12.8517 0.271631 12.765 0.173615 12.6569 0.105008C12.5487 0.0364023 12.4236 0 12.2958 0C12.168 0 12.0428 0.0364023 11.9347 0.105008C11.8266 0.173615 11.7399 0.271631 11.6846 0.387756V0.387756Z" fill="#2684FF"/><path d="M182.428 4.36768V24.6936H186.725V9.19153L188.536 13.306L194.614 24.6936H200.015V4.36768H195.718V17.4839L194.092 13.6794L189.21 4.36768H182.428Z" fill="#0052CC"/><path d="M155.1 4.36768H150.403V24.6936H155.1V4.36768Z" fill="#0052CC"/><path d="M144.984 18.6828C144.984 15.1246 143.114 13.4557 137.832 12.3094C134.917 11.6598 134.213 11.0101 134.213 10.0693C134.213 8.89317 135.254 8.39659 137.176 8.39659C139.51 8.39659 141.814 9.10972 143.992 10.0991V5.45075C141.9 4.49084 139.622 4.01499 137.324 4.05811C132.105 4.05811 129.405 6.34683 129.405 10.0917C129.405 13.0786 130.787 15.4718 136.187 16.5247C139.41 17.2042 140.088 17.7307 140.088 18.8134C140.088 19.8962 139.41 20.5458 137.124 20.5458C134.381 20.4953 131.693 19.763 129.298 18.4139V23.3013C130.924 24.104 133.072 25.0001 137.076 25.0001C142.721 25.0001 144.962 22.4649 144.962 18.6902" fill="#0052CC"/><path d="M125.435 18.6828C125.435 15.1246 123.583 13.4557 118.286 12.3094C115.371 11.6598 114.663 11.0101 114.663 10.0693C114.663 8.89317 115.708 8.39659 117.627 8.39659C119.96 8.39659 122.26 9.10972 124.438 10.0991V5.45075C122.347 4.49084 120.069 4.01499 117.771 4.05811C112.556 4.05811 109.852 6.34683 109.852 10.0917C109.852 13.0786 111.233 15.4718 116.638 16.5247C119.86 17.2042 120.534 17.7307 120.534 18.8134C120.534 19.8962 119.86 20.5458 117.571 20.5458C114.828 20.4953 112.139 19.763 109.744 18.4139V23.3013C111.374 24.104 113.523 25.0001 117.523 25.0001C123.171 25.0001 125.409 22.4649 125.409 18.6902" fill="#0052CC"/><path d="M73.3971 4.36768V24.6936H83.0497L84.5683 20.2991H78.1234V4.36768H73.3971Z" fill="#0052CC"/><path d="M54.3251 4.36768V8.75843H59.5441V24.6936H64.2704V8.75843H69.856V4.36768H54.3251Z" fill="#0052CC"/><path d="M47.4727 4.36768H41.2796L34.242 24.6936H39.6314L40.6314 21.2698C43.0859 21.9969 45.6961 21.9969 48.1506 21.2698L49.1469 24.6936H54.5178L47.4727 4.36768ZM44.3762 17.6071C43.4986 17.6084 42.6255 17.4827 41.7834 17.2338L44.3762 8.36267L46.969 17.2338C46.1269 17.4824 45.2537 17.6082 44.3762 17.6071V17.6071Z" fill="#0052CC"/><path d="M99.688 4.36768H93.4949L86.4573 24.6936H91.8281L92.8282 21.2698C95.2827 21.9969 97.8929 21.9969 100.347 21.2698L101.344 24.6936H106.715L99.688 4.36768ZM96.5915 17.6071C95.7139 17.6087 94.8407 17.483 93.9987 17.2338L96.5915 8.36267L99.1843 17.2338C98.3423 17.483 97.4691 17.6088 96.5915 17.6071Z" fill="#0052CC"/><path d="M172.02 4.36768H165.827L158.789 24.6936H164.16L165.156 21.2698C167.611 21.9969 170.221 21.9969 172.675 21.2698L173.672 24.6936H179.046L172.02 4.36768ZM168.923 17.6071C168.046 17.6082 167.173 17.4824 166.33 17.2338L168.923 8.36267L171.516 17.2338C170.674 17.4824 169.801 17.6082 168.923 17.6071V17.6071Z" fill="#0052CC"/><defs><linearGradient id="paint0_linear" x1="10.5698" y1="13.265" x2="4.14864" y2="24.3021" gradientUnits="userSpaceOnUse"><stop stop-color="#0052CC"/><stop offset="0.92" stop-color="#2684FF"/></linearGradient></defs></svg>