<svg width="168" height="81" viewBox="0 0 168 81" fill="none" xmlns="http://www.w3.org/2000/svg"><path opacity="0.1" d="M156.591 36.9475C160.714 35.5996 163.489 31.8732 163.489 27.671C163.489 22.2795 158.969 17.9187 153.419 17.9187H153.261L151.596 17.998L151.516 16.333C151.437 13.003 150.089 9.9901 147.948 7.6908C142.716 9.59367 138.91 14.1923 138.117 19.7423C137.8 19.8216 137.483 19.9009 137.166 20.0595C132.884 21.4866 130.03 25.451 130.03 29.891C130.03 32.9039 131.298 35.5996 133.36 37.5025H153.34C154.45 37.5025 155.56 37.3439 156.591 36.9475Z" fill="white"/><path d="M165.867 23.1516C165.709 22.7552 165.55 22.4381 165.391 22.0416C163.726 18.7116 160.555 16.1744 156.749 15.1437C156.036 14.9851 155.401 14.8266 154.688 14.7473C154.291 11.8137 153.181 9.11794 151.516 6.89792C148.345 2.69574 143.271 0 137.562 0C135.659 0 133.835 0.317146 132.091 0.872151C128.523 2.06145 125.431 4.28147 123.37 7.29435C122.735 7.29435 122.101 7.21506 121.546 7.21506C119.802 7.21506 118.137 7.45292 116.551 8.00793C110.922 9.83152 106.878 14.5887 106.006 20.218C105.689 20.2973 105.292 20.3766 104.975 20.5352C100.614 21.9623 97.6808 25.9267 97.6808 30.3667C97.6808 36.0753 102.517 40.7532 108.385 40.7532H109.177C110.446 39.6432 111.952 38.5332 113.459 37.5025H108.464C104.42 37.5025 101.09 34.331 101.09 30.3667C101.09 27.2745 103.152 24.5788 106.164 23.5481C106.719 23.3895 107.275 23.2309 107.83 23.2309L109.257 23.0723L109.336 21.7245C109.653 16.8087 112.983 12.6065 117.82 11.1001C119.088 10.7037 120.436 10.4658 121.784 10.4658C122.498 10.4658 123.29 10.5451 124.083 10.7037L125.193 10.9415L125.828 9.99009C127.572 7.21506 130.188 5.07433 133.36 4.04361C134.787 3.56789 136.293 3.33003 137.8 3.33003C141.923 3.33003 145.649 5.07433 148.186 7.77007C150.327 10.0694 151.596 13.0823 151.754 16.4123L151.833 18.0773L153.498 17.998H153.657C159.207 17.998 163.726 22.3588 163.726 27.7502C163.726 31.9524 160.951 35.6789 156.829 37.0268C155.798 37.3439 154.767 37.5025 153.657 37.5025H133.677H124.083C124.163 38.4539 124.242 39.5639 124.321 40.7532H153.657C155.084 40.7532 156.511 40.5154 157.939 40.1189C163.409 38.3746 167.056 33.3796 167.056 27.7502C166.739 26.0852 166.422 24.5788 165.867 23.1516Z" fill="white"/><path d="M120.04 38.0575C120.04 38.0575 121.546 50.9812 119.723 54.4698C118.454 56.9277 115.837 58.3548 113.142 58.3548C112.032 58.3548 110.922 58.117 109.812 57.562C106.165 55.8177 104.658 51.5362 106.561 47.9683C108.385 44.559 120.04 38.0575 120.04 38.0575Z" fill="white"/><path d="M131.615 79.7622V62.1606H134.866C135.104 62.1606 135.342 62.1606 135.58 62.2399C135.738 62.3191 135.897 62.3191 136.055 62.4777C136.214 62.557 136.293 62.7156 136.373 62.8741C136.452 63.0327 136.531 63.1913 136.531 63.4292L136.848 65.0942C137.483 64.0634 138.275 63.2706 139.068 62.7156C139.941 62.1606 140.813 61.8434 141.764 61.8434C142.636 61.8434 143.271 62.002 143.746 62.3984L143.033 66.2835C142.953 66.5213 142.874 66.6799 142.716 66.7592C142.557 66.8385 142.398 66.9178 142.161 66.9178C141.923 66.9178 141.764 66.9178 141.447 66.8385C141.13 66.7592 140.813 66.7592 140.416 66.7592C138.989 66.7592 137.879 67.4728 137.007 68.9792V79.8414H131.615V79.7622ZM122.577 65.4906C121.546 65.4906 120.753 65.8077 120.119 66.3628C119.564 66.9178 119.167 67.7899 118.93 68.8206H125.748C125.748 68.4242 125.669 68.0278 125.59 67.6313C125.51 67.2349 125.273 66.9178 125.035 66.6006C124.797 66.2835 124.48 66.0456 124.004 65.8077C123.528 65.5699 123.132 65.4906 122.577 65.4906ZM122.497 61.8434C123.687 61.8434 124.797 62.002 125.828 62.3984C126.858 62.7949 127.73 63.2706 128.444 63.9842C129.158 64.6977 129.713 65.4906 130.109 66.5213C130.505 67.5521 130.743 68.6621 130.743 69.9306C130.743 70.3271 130.743 70.6442 130.664 70.8821C130.664 71.1199 130.585 71.3578 130.505 71.5164C130.426 71.6749 130.268 71.7542 130.109 71.8335C129.95 71.9128 129.713 71.9128 129.475 71.9128H118.93C119.088 73.4192 119.564 74.45 120.357 75.0843C121.07 75.7185 122.101 76.115 123.29 76.115C123.925 76.115 124.48 76.0357 124.955 75.8771C125.431 75.7185 125.828 75.56 126.145 75.4014C126.541 75.2428 126.858 75.0843 127.096 74.9257C127.413 74.7671 127.73 74.6878 128.048 74.6878C128.444 74.6878 128.84 74.8464 128.999 75.1635L130.585 77.0664C130.03 77.7007 129.395 78.1764 128.761 78.5729C128.127 78.9693 127.413 79.2864 126.779 79.5243C126.065 79.7622 125.431 79.9207 124.718 80C124.004 80.0793 123.37 80.1586 122.735 80.1586C121.467 80.1586 120.277 79.9207 119.167 79.5243C118.057 79.1279 117.106 78.4936 116.234 77.7007C115.362 76.9078 114.727 75.9564 114.252 74.7671C113.776 73.5778 113.538 72.2299 113.538 70.6442C113.538 69.4549 113.776 68.3449 114.172 67.3142C114.569 66.2835 115.203 65.332 115.996 64.5392C116.789 63.7463 117.74 63.112 118.85 62.6363C119.802 62.0813 121.07 61.8434 122.497 61.8434ZM103.072 54.3112V68.5828H103.865C104.182 68.5828 104.499 68.5035 104.658 68.4242C104.817 68.3449 104.975 68.1863 105.213 67.9485L108.702 62.9534C108.94 62.6363 109.177 62.4777 109.415 62.3191C109.653 62.1606 110.05 62.0813 110.446 62.0813H115.441L110.684 68.3449C110.446 68.6621 110.208 68.8999 109.97 69.1378C109.732 69.3756 109.415 69.5342 109.098 69.7721C109.653 70.1685 110.05 70.6442 110.446 71.2785L115.6 79.7622H110.684C110.287 79.7622 109.891 79.6829 109.653 79.6036C109.336 79.445 109.098 79.2072 108.94 78.89L105.451 72.6264C105.292 72.3092 105.134 72.1507 104.975 72.0714C104.817 71.9921 104.499 71.9128 104.182 71.9128H103.072V79.7622H97.6016V54.3112H103.072ZM87.215 76.5907C87.9286 76.5907 88.5629 76.4321 89.0386 76.1943C89.5144 75.9564 90.0694 75.56 90.6244 75.005V72.5471C89.5144 72.6264 88.6422 72.7057 87.9286 72.7849C87.215 72.9435 86.66 73.1021 86.2636 73.2607C85.8672 73.4192 85.55 73.7364 85.3915 73.9742C85.2329 74.2121 85.1536 74.5293 85.1536 74.8464C85.1536 75.4807 85.3122 75.8771 85.6293 76.115C86.105 76.4321 86.5808 76.5907 87.215 76.5907ZM93.4787 79.7622C92.9237 79.7622 92.6065 79.6829 92.2894 79.5243C92.0515 79.3657 91.8137 79.1279 91.6551 78.6521L91.2587 77.7007C90.7829 78.0971 90.3865 78.4143 89.9108 78.6521C89.5144 78.9693 89.0386 79.2072 88.5629 79.3657C88.0872 79.6036 87.6115 79.6829 87.1358 79.8414C86.66 80 86.0258 80 85.4707 80C84.5986 80 83.885 79.9207 83.1714 79.6829C82.4579 79.445 81.9029 79.1279 81.4271 78.7314C80.9514 78.335 80.555 77.78 80.3171 77.225C80.0793 76.67 79.9207 75.9564 79.9207 75.0843C79.9207 74.45 80.0793 73.8157 80.3964 73.1814C80.7136 72.5471 81.2686 71.9128 82.1407 71.3578C82.9336 70.8028 84.0436 70.4064 85.3915 70.0099C86.7393 69.6135 88.4836 69.4549 90.5451 69.3756V68.6621C90.5451 67.6313 90.3072 66.9178 89.9108 66.442C89.5144 65.9663 88.8801 65.7285 88.0079 65.7285C87.3736 65.7285 86.8186 65.8077 86.4222 65.9663C86.0258 66.1249 85.6293 66.2835 85.3122 66.442C84.995 66.6006 84.6779 66.7592 84.3607 66.9178C84.0436 67.0763 83.7264 67.1556 83.2507 67.1556C82.8543 67.1556 82.5372 67.0763 82.2993 66.9178C82.0614 66.7592 81.8236 66.5213 81.665 66.2835L80.7136 64.6185C81.8236 63.667 83.0129 62.9534 84.3607 62.4777C85.7086 62.002 87.1358 61.7641 88.7215 61.7641C89.8315 61.7641 90.7829 61.9227 91.7344 62.3191C92.6065 62.6363 93.3994 63.112 93.9544 63.7463C94.5887 64.3806 95.0644 65.0942 95.3816 65.9663C95.6987 66.8385 95.8573 67.7106 95.8573 68.7413V79.7622H93.4787ZM52.8047 79.7622V62.1606H56.2141C56.5312 62.1606 56.8484 62.2399 57.0862 62.3984C57.3241 62.557 57.4826 62.7949 57.5619 63.0327L57.8791 63.9842C58.1962 63.667 58.5134 63.4292 58.8305 63.112C59.1477 62.8741 59.5441 62.6363 59.8612 62.4777C60.2577 62.3191 60.6541 62.1606 61.1298 62.002C61.6055 61.9227 62.0813 61.8434 62.557 61.8434C63.667 61.8434 64.5391 62.0813 65.332 62.6363C66.0456 63.1913 66.6006 63.9049 66.997 64.8563C67.3142 64.3013 67.7106 63.8256 68.107 63.4292C68.5827 63.0327 69.0585 62.7156 69.5342 62.4777C70.0099 62.2399 70.5649 62.0813 71.1199 61.9227C71.6749 61.7641 72.2299 61.7641 72.7849 61.7641C73.8157 61.7641 74.7671 61.9227 75.56 62.2399C76.3528 62.557 77.0664 62.9534 77.6214 63.5877C78.1764 64.1427 78.5728 64.8563 78.89 65.7285C79.2071 66.6006 79.2864 67.4728 79.2864 68.5828V79.8414H73.7364V68.5828C73.7364 66.7592 72.9435 65.8077 71.2785 65.8077C70.5649 65.8077 69.9306 66.0456 69.4549 66.5213C68.9792 66.997 68.7413 67.6313 68.7413 68.5828V79.8414H63.2706V68.5828C63.2706 67.552 63.0327 66.8385 62.6363 66.442C62.2398 66.0456 61.6055 65.8077 60.8127 65.8077C60.337 65.8077 59.8612 65.887 59.3855 66.1249C58.9098 66.3628 58.5134 66.6006 58.1169 66.997V79.7622H52.8047ZM35.2032 79.7622V62.3191H37.8989C38.4539 62.3191 38.8503 62.557 39.0089 63.112L39.3261 64.4599C39.7225 64.0634 40.0396 63.7463 40.5154 63.5084C40.9118 63.1913 41.3875 62.9534 41.7839 62.7156C42.2597 62.4777 42.7354 62.3191 43.2111 62.2399C43.7661 62.1606 44.3211 62.0813 44.8761 62.0813C45.8275 62.0813 46.6997 62.2399 47.4926 62.557C48.2854 62.8742 48.9197 63.3499 49.3954 63.9049C49.8712 64.4599 50.2676 65.1735 50.5847 65.9663C50.8226 66.7592 50.9812 67.7106 50.9812 68.6621V79.7622H46.6204V68.6621C46.6204 67.6313 46.3825 66.7592 45.8275 66.2042C45.3518 65.6492 44.559 65.332 43.5282 65.332C42.8147 65.332 42.1011 65.4906 41.3875 65.8077C40.7532 66.1249 40.1189 66.6006 39.4846 67.1556V79.7622H35.2032ZM33.1417 57.2448C33.1417 57.6412 33.0624 57.9584 32.9039 58.2755C32.7453 58.5927 32.5867 58.9098 32.2696 59.1477C32.0317 59.3855 31.7146 59.5441 31.3974 59.7027C31.0803 59.8613 30.6838 59.9406 30.2874 59.9406C29.891 59.9406 29.5738 59.8613 29.2567 59.7027C28.9395 59.5441 28.6224 59.3855 28.3845 59.1477C28.1467 58.9098 27.9088 58.5927 27.8295 58.2755C27.671 57.9584 27.5917 57.6412 27.5917 57.2448C27.5917 56.8484 27.671 56.5312 27.8295 56.2141C27.9881 55.8969 28.1467 55.5798 28.3845 55.3419C28.6224 55.1041 28.9395 54.9455 29.2567 54.7869C29.5738 54.6284 29.9703 54.5491 30.2874 54.5491C30.6838 54.5491 31.001 54.6284 31.3974 54.7869C31.7146 54.9455 32.0317 55.1041 32.2696 55.3419C32.5074 55.5798 32.7453 55.8969 32.9039 56.2141C33.0624 56.5312 33.1417 56.8484 33.1417 57.2448ZM32.5074 62.3191V79.7622H28.1467V62.3191H32.5074ZM17.3637 77.1457C17.8394 77.1457 18.2359 77.0664 18.6323 76.9871C19.0287 76.9078 19.3459 76.7493 19.663 76.5907C19.9802 76.4321 20.2973 76.2736 20.6145 76.0357C20.9316 75.7978 21.2488 75.56 21.5659 75.2428V72.3092C20.2973 72.3885 19.2666 72.4678 18.3944 72.6264C17.5223 72.785 16.888 72.9435 16.333 73.1814C15.778 73.4192 15.4609 73.7364 15.223 74.0535C14.9851 74.3707 14.9058 74.6878 14.9058 75.0843C14.9058 75.7978 15.1437 76.3528 15.6194 76.67C16.0159 76.9871 16.6501 77.1457 17.3637 77.1457ZM25.8474 79.7622H23.8652C23.4688 79.7622 23.1516 79.6829 22.9138 79.6036C22.6759 79.445 22.5173 79.2072 22.3588 78.89L21.9623 77.6214C21.4866 78.0179 21.0902 78.335 20.6145 78.6521C20.1387 78.9693 19.7423 79.2071 19.2666 79.445C18.7909 79.6829 18.3152 79.8414 17.7602 79.9207C17.2052 80 16.6501 80.0793 16.0159 80.0793C15.223 80.0793 14.5094 80 13.8751 79.7622C13.2408 79.5243 12.6858 79.2864 12.2101 78.89C11.7344 78.4936 11.4172 78.0179 11.1001 77.3836C10.8622 76.8286 10.7037 76.115 10.7037 75.3221C10.7037 74.6878 10.8622 74.0535 11.2587 73.34C11.6551 72.7057 12.2101 72.1507 13.0823 71.5957C13.9544 71.0406 14.9851 70.6442 16.4123 70.3271C17.8394 70.0099 19.5045 69.7721 21.5659 69.7721V68.7413C21.5659 67.552 21.328 66.6799 20.773 66.1249C20.2973 65.5699 19.5045 65.2527 18.553 65.2527C17.8394 65.2527 17.2844 65.332 16.8087 65.4906C16.333 65.6492 15.9366 65.8077 15.6194 66.0456C15.3023 66.2835 14.9851 66.442 14.668 66.6006C14.3508 66.7592 14.0337 66.8385 13.7165 66.8385C13.3994 66.8385 13.1615 66.7592 12.9237 66.6006C12.6858 66.442 12.5273 66.2835 12.448 66.0456L11.6551 64.6977C13.7165 62.8742 16.2537 61.9227 19.1873 61.9227C20.218 61.9227 21.1695 62.0813 22.0416 62.3984C22.8345 62.7156 23.5481 63.1913 24.1824 63.8256C24.8166 64.4599 25.2131 65.0942 25.5302 65.9663C25.8474 66.7592 26.0059 67.7106 26.0059 68.6621V79.7622H25.8474ZM0 79.7622V62.3191H2.53717C3.01288 62.3191 3.33003 62.3984 3.4886 62.557C3.64717 62.7156 3.80575 62.9534 3.80575 63.3499L4.04361 65.4906C4.75718 64.3806 5.47076 63.5877 6.34291 62.9534C7.21506 62.3191 8.1665 62.002 9.27651 62.002C10.1487 62.002 10.9415 62.2399 11.4965 62.6363L10.9415 65.8077C10.9415 66.0456 10.8622 66.1249 10.7037 66.2042C10.6244 66.2835 10.4658 66.3628 10.2279 66.3628C10.0694 66.3628 9.83151 66.2835 9.51437 66.2042C9.19722 66.1249 8.80079 66.0456 8.32507 66.0456C7.45292 66.0456 6.66006 66.2835 6.02577 66.7592C5.39148 67.2349 4.83647 67.9485 4.36075 68.8999V79.7622H0Z" fill="white"/></svg>