<svg width="183" height="40" viewBox="0 0 183 40" fill="none" xmlns="http://www.w3.org/2000/svg"><path fill-rule="evenodd" clip-rule="evenodd" d="M60.6636 28.3898L58.9252 23.0378H51.7108L49.9724 28.3898H46.119L53.3623 7.51099H57.2737L64.517 28.3898H60.6636ZM55.3615 11.128H55.3035C55.3035 11.128 54.84 13.1865 54.4343 14.3628L52.609 19.9501H57.998L56.1727 14.3628C55.7961 13.1865 55.3615 11.128 55.3615 11.128ZM65.3012 20.8911C65.3012 16.1272 68.0827 13.0395 71.9941 13.0395C75.2391 13.0395 76.2531 14.9509 76.2531 14.9509H76.3111C76.3111 14.9509 76.2821 14.5686 76.2821 14.0981V7.51099H79.9617V28.3898H76.4849V27.1547C76.4849 26.596 76.5429 26.1843 76.5429 26.1843H76.4849C76.4849 26.1843 75.2391 28.7427 71.8492 28.7427C67.8509 28.7427 65.3012 25.5373 65.3012 20.8911ZM69.0098 20.8911C69.0098 23.7435 70.5164 25.5962 72.6894 25.5962C74.6016 25.5962 76.398 24.1846 76.398 20.8617C76.398 18.5385 75.1811 16.2448 72.7184 16.2448C70.6903 16.2448 69.0098 17.921 69.0098 20.8911ZM82.5133 24.067C82.5133 19.3031 88.8584 18.9796 91.2632 18.9796H91.7557V18.7738C91.7557 16.8035 90.5389 16.1272 88.9164 16.1272C86.8013 16.1272 84.8601 17.5681 84.8601 17.5681L83.4694 14.8921C83.4694 14.8921 85.7583 13.0395 89.264 13.0395C93.1465 13.0395 95.4064 15.2156 95.4064 19.009V28.3898H92.0165V27.1547C92.0165 26.5666 92.0744 26.0961 92.0744 26.0961H92.0165C92.0455 26.0961 90.8865 28.7427 87.5256 28.7427C84.8891 28.7427 82.5133 27.0665 82.5133 24.067ZM86.2218 23.8906C86.2218 24.8904 86.9462 25.8314 88.4528 25.8314C90.394 25.8314 91.7847 23.7141 91.7847 21.8909V21.538H91.1473C89.264 21.538 86.2218 21.8027 86.2218 23.8906ZM98.137 34.2712V13.3923H101.498V14.4804C101.498 15.0391 101.44 15.5096 101.44 15.5096H101.498C101.498 15.5096 102.773 13.0395 106.25 13.0395C110.248 13.0395 112.798 16.2448 112.798 20.8911C112.798 25.655 109.929 28.7427 106.047 28.7427C103.12 28.7427 101.817 26.6842 101.817 26.6842H101.759C101.759 26.6842 101.817 27.2135 101.817 27.9781V34.2712H98.137ZM101.701 20.9793C101.701 23.3024 102.947 25.5962 105.38 25.5962C107.408 25.5962 109.089 23.92 109.089 20.9499C109.089 18.0974 107.582 16.2448 105.409 16.2448C103.497 16.2448 101.701 17.6563 101.701 20.9793ZM116.218 22.8907V16.5977H114.306V13.6276H116.305V9.3048H119.898V13.6276H123.259V16.5977H119.898V22.4202C119.898 24.8904 121.81 25.2433 122.824 25.2433C123.23 25.2433 123.491 25.1845 123.491 25.1845V28.4486C123.491 28.4486 123.056 28.5368 122.361 28.5368C120.304 28.5368 116.218 27.9193 116.218 22.8907ZM124.999 24.067C124.999 19.3031 131.344 18.9796 133.749 18.9796H134.242V18.7738C134.242 16.8035 133.025 16.1272 131.402 16.1272C129.287 16.1272 127.346 17.5681 127.346 17.5681L125.955 14.8921C125.955 14.8921 128.244 13.0395 131.75 13.0395C135.632 13.0395 137.892 15.2156 137.892 19.009V28.3898H134.502V27.1547C134.502 26.5666 134.56 26.0961 134.56 26.0961H134.502C134.531 26.0961 133.372 28.7427 130.011 28.7427C127.375 28.7427 124.999 27.0665 124.999 24.067ZM128.708 23.8906C128.708 24.8904 129.432 25.8314 130.939 25.8314C132.88 25.8314 134.271 23.7141 134.271 21.8909V21.538H133.633C131.75 21.538 128.708 21.8027 128.708 23.8906ZM143.955 28.3898L138.595 13.3923H142.477L145.548 22.6849C145.838 23.5671 146.041 24.9492 146.07 24.9492H146.128C146.157 24.9492 146.36 23.5671 146.649 22.6849L149.72 13.3923H153.603L148.301 28.3898H143.955ZM155.401 10.834V7.51099H159.052V10.834H155.401ZM155.401 28.3898V13.3923H159.081V28.3898H155.401ZM160.797 26.5372L162.478 23.92C162.478 23.92 164.1 25.5667 166.505 25.5667C167.548 25.5667 168.446 25.0962 168.446 24.214C168.446 21.9791 161.261 22.2732 161.261 17.4505C161.261 14.6568 163.724 13.0395 166.911 13.0395C170.243 13.0395 171.865 14.7451 171.865 14.7451L170.503 17.5093C170.503 17.5093 169.142 16.2154 166.882 16.2154C165.926 16.2154 164.998 16.6271 164.998 17.5681C164.998 19.6854 172.184 19.4207 172.184 24.2434C172.184 26.743 170.04 28.7427 166.534 28.7427C162.854 28.7427 160.797 26.5372 160.797 26.5372ZM175.518 22.8907V16.5977H173.605V13.6276H175.605V9.3048H179.197V13.6276H182.558V16.5977H179.197V22.4202C179.197 24.8904 181.11 25.2433 182.124 25.2433C182.529 25.2433 182.79 25.1845 182.79 25.1845V28.4486C182.79 28.4486 182.355 28.5368 181.66 28.5368C179.603 28.5368 175.518 27.9193 175.518 22.8907Z" fill="white"/><path fill-rule="evenodd" clip-rule="evenodd" d="M31.0607 36.8644C26.4493 36.8644 22.711 33.0702 22.711 28.3898C22.711 23.7095 26.4493 19.9153 31.0607 19.9153C35.672 19.9153 39.4103 23.7095 39.4103 28.3898C39.4103 33.0702 35.672 36.8644 31.0607 36.8644ZM11.3555 8.8059C11.3555 8.65898 11.3555 8.54854 11.3555 8.47458C11.3555 3.7942 15.0938 0 19.7052 0C24.3165 0 28.0548 3.7942 28.0548 8.47458C28.0548 11.3598 26.6343 13.9082 24.4643 15.4387C19.8746 17.8517 16.7309 22.7043 16.6995 28.3053C16.6993 33.0702 12.961 36.8644 8.34964 36.8644C3.73826 36.8644 0 33.0702 0 28.3898C0 25.104 1.84245 22.255 4.53598 20.8489C8.52828 18.3504 11.2154 13.8813 11.3555 8.8059ZM17.7012 39.9153H17.7847V40H17.7012V39.9153Z" fill="white"/></svg>