<svg width="140" height="35" viewBox="0 0 140 35" fill="none" xmlns="http://www.w3.org/2000/svg"><path d="M25.9978 10.0884C24.9153 8.99298 23.7388 8.15392 22.4917 7.57125C21.2446 6.98858 19.668 6.70889 17.8562 6.70889C16.3973 6.70889 15.009 6.96527 13.7148 7.47802C12.4206 7.99078 11.2911 8.71329 10.3264 9.64557C9.33808 10.5778 8.56157 11.7199 7.99684 13.0484C7.4321 14.3769 7.14974 15.8452 7.14974 17.4767C7.14974 19.1082 7.4321 20.5765 7.99684 21.905C8.56157 23.2335 9.33808 24.3523 10.3264 25.2845C11.3147 26.2168 12.4677 26.9626 13.7618 27.4754C15.056 27.9881 16.4679 28.2445 17.9503 28.2445C19.5268 28.2445 20.9151 28.0348 22.0917 27.5919C23.2682 27.1491 24.28 26.5431 25.1271 25.7973C25.6919 25.2845 26.2095 24.6553 26.6566 23.9094C27.1037 23.1403 27.4566 22.3012 27.7155 21.369H17.762V15.7753H33.9982C34.0923 16.1482 34.1629 16.591 34.2335 17.1504C34.3041 17.7098 34.3276 18.2225 34.3276 18.7586C34.3276 20.9728 33.9982 22.9772 33.3393 24.8184C32.6804 26.6596 31.6686 28.2678 30.3509 29.6896C28.8685 31.2511 27.1037 32.4398 25.033 33.3021C22.9623 34.1645 20.5857 34.584 17.9268 34.584C15.5266 34.584 13.2677 34.1645 11.1499 33.3021C9.03218 32.4398 7.17327 31.2511 5.57319 29.7362C3.99663 28.2212 2.74951 26.4266 1.80829 24.3523C0.867064 22.2779 0.419983 19.9706 0.419983 17.5C0.419983 15.0295 0.890595 12.7454 1.80829 10.6478C2.72598 8.55014 3.9731 6.75551 5.57319 5.24056C7.14974 3.7256 9.00865 2.56026 11.1499 1.6979C13.2912 0.835541 15.5502 0.416016 17.9268 0.416016C20.6563 0.416016 23.08 0.882155 25.1742 1.81443C27.2684 2.74671 29.0803 4.02859 30.6098 5.66008L25.9978 10.0884Z" fill="#737373"/><path d="M67.7175 25.0981C67.7175 27.9648 66.6586 30.2722 64.5409 32.0202C62.3996 33.7217 59.7877 34.584 56.7052 34.584C53.9756 34.584 51.552 33.7916 49.4578 32.2067C47.3636 30.6218 45.9282 28.4543 45.1281 25.7274L49.1754 24.0726C49.4578 25.0515 49.8343 25.9371 50.3284 26.7296C50.8226 27.522 51.3873 28.1979 52.0461 28.7573C52.705 29.3166 53.4344 29.7595 54.2345 30.0858C55.0345 30.4121 55.8816 30.5752 56.7758 30.5752C58.7053 30.5752 60.3054 30.0858 61.529 29.0836C62.7526 28.1047 63.3644 26.7762 63.3644 25.1447C63.3644 23.7696 62.8467 22.6042 61.8349 21.6253C60.8937 20.6931 59.1053 19.7608 56.4934 18.8751C53.858 17.9429 52.2109 17.2903 51.552 16.964C48.0459 15.1926 46.3047 12.6056 46.3047 9.15613C46.3047 6.75551 47.2694 4.7045 49.1989 3.0031C51.1755 1.30169 53.5756 0.439331 56.4464 0.439331C58.9641 0.439331 61.1525 1.06862 62.9879 2.3505C64.8233 3.60908 66.0704 5.17064 66.6822 7.0585L62.7526 8.66668C62.3761 7.45472 61.6466 6.42922 60.5642 5.63678C59.4818 4.82104 58.1406 4.42482 56.5875 4.42482C54.9169 4.42482 53.5286 4.89096 52.3991 5.79993C51.2696 6.63898 50.7049 7.75771 50.7049 9.10952C50.7049 10.2282 51.152 11.2071 52.0461 12.0229C53.0344 12.8386 55.1757 13.8175 58.4465 14.9363C61.7878 16.055 64.1879 17.4534 65.6233 19.0849C67.0116 20.7164 67.7175 22.7208 67.7175 25.0981V25.0981Z" fill="#737373"/><path d="M91.2246 33.8382H87.1773V30.7383H86.9891C86.3538 31.8338 85.342 32.7427 84.0242 33.4886C82.683 34.2111 81.2947 34.584 79.8593 34.584C77.0827 34.584 74.965 33.7916 73.4825 32.23C72.0001 30.6684 71.2471 28.431 71.2471 25.5409V11.4635H75.4826V25.2612C75.5768 28.9204 77.4357 30.7383 81.0594 30.7383C82.7536 30.7383 84.1654 30.0624 85.2949 28.7106C86.4244 27.3588 86.9891 25.7274 86.9891 23.8395V11.4635H91.2246V33.8382V33.8382Z" fill="#737373"/><path d="M100.896 3.74892C100.896 4.56467 100.613 5.26388 100.025 5.84655C99.4368 6.42922 98.7309 6.70891 97.9073 6.70891C97.0837 6.70891 96.3778 6.42922 95.7896 5.84655C95.2013 5.26388 94.9189 4.56467 94.9189 3.74892C94.9189 2.93318 95.2013 2.23397 95.7896 1.6513C96.3778 1.06862 97.0837 0.78894 97.9073 0.78894C98.7309 0.78894 99.4368 1.06862 100.025 1.6513C100.613 2.23397 100.896 2.93318 100.896 3.74892V3.74892ZM100.025 11.4635V33.8382H95.7896V11.4635H100.025Z" fill="#737373"/><path d="M113.037 34.2112C111.202 34.2112 109.673 33.6518 108.449 32.5331C107.225 31.4143 106.614 29.8294 106.59 27.825V15.3092H102.613V11.4636H106.567V4.61133H110.802V11.4636H116.332V15.3092H110.802V26.4499C110.802 27.9416 111.084 28.9438 111.673 29.4798C112.261 30.0159 112.92 30.2723 113.649 30.2723C113.979 30.2723 114.308 30.2257 114.638 30.1557C114.967 30.0858 115.249 29.9693 115.532 29.8528L116.873 33.6052C115.814 34.0014 114.52 34.2112 113.037 34.2112Z" fill="#737373"/><path d="M128.897 34.5607C125.579 34.5607 122.85 33.4419 120.685 31.1812C118.544 28.9204 117.461 26.0769 117.461 22.6508C117.461 19.248 118.497 16.4046 120.591 14.1438C122.685 11.883 125.344 10.741 128.615 10.741C131.956 10.741 134.639 11.8131 136.615 13.9573C138.592 16.1016 139.58 19.1082 139.58 22.9771L139.533 23.4433H121.791C121.861 25.6341 122.591 27.4054 124.003 28.7339C125.415 30.0624 127.109 30.7383 129.085 30.7383C131.791 30.7383 133.909 29.4098 135.439 26.7295L139.227 28.5475C138.215 30.4353 136.803 31.9037 135.015 32.9758C133.203 34.0246 131.156 34.5607 128.897 34.5607V34.5607ZM122.12 19.9472H135.086C134.968 18.3856 134.333 17.1038 133.18 16.0783C132.027 15.0528 130.474 14.54 128.544 14.54C126.944 14.54 125.579 15.0294 124.426 16.0083C123.25 17.0105 122.497 18.3157 122.12 19.9472V19.9472Z" fill="#737373"/></svg>