<svg width="102" height="95" viewBox="0 0 102 95" fill="none" xmlns="http://www.w3.org/2000/svg"><path d="M49.1594 53.75H43.8312L40.3438 41.6406C39.7141 39.5093 38.6484 37.7656 37.2438 36.3609C35.7906 35.0047 34.0953 34.3265 32.2063 34.3265H23.0516V53.7015H18.1594V8.41248H34.6281C37.4859 8.41248 39.8594 8.75154 41.7 9.42966C43.5406 10.1078 44.9938 11.5609 46.1563 13.7406C47.3188 15.9203 47.9 18.3906 47.9 21.1515C47.9 24.3 47.1734 26.9156 45.6719 28.9984C44.1703 31.0812 42.1359 32.4859 39.5688 33.1156V33.2125C42.1844 34.2297 44.1219 36.9422 45.4781 41.3984L49.1594 53.75ZM23.0516 28.95H34.0469C37.0984 28.95 39.3266 28.3687 40.7313 27.2062C42.0875 26.0437 42.8141 24.0093 42.8141 21.1031C42.8141 15.9203 40.15 13.3531 34.8219 13.3531H23.0516V28.95Z" fill="white"/><path d="M12.9766 0.0812378V60.9187H87.1828V0.0812378H12.9766ZM51.6297 58.3516H15.2047V3.03592H51.6297V58.3516ZM79.7719 50.65C77.2047 53.2172 73.9109 54.525 69.7937 54.525C64.5625 54.525 60.5906 53.1203 58.0234 50.2141C55.4562 47.3562 54.0516 43.675 53.9547 39.1703H58.7016C58.9437 42.5609 60.1062 45.0312 62.1891 46.6781C64.2234 48.325 66.7422 49.1 69.6484 49.1C72.4094 49.1 74.6375 48.4219 76.3328 47.0172C78.0281 45.6609 78.8516 43.7719 78.8516 41.3984C78.8516 38.8797 77.9797 37.0875 76.2359 35.9734C74.4922 34.8594 71.4891 33.6969 67.2266 32.6312C62.9641 31.5172 59.9125 30.0156 58.0719 28.0297C56.1828 26.0437 55.3109 23.4765 55.3109 20.1828C55.3109 16.5015 56.5219 13.4984 58.8953 11.1734C61.3172 8.84842 64.5141 7.63749 68.4859 7.63749C72.7 7.63749 76.0906 8.79999 78.6578 11.2219C81.225 13.5953 82.5812 16.9375 82.7266 21.2484H77.9312C77.4469 15.775 74.3469 13.0141 68.6797 13.0141C65.9672 13.0141 63.8359 13.6437 62.3344 14.9031C60.8328 16.1625 60.0578 17.8094 60.0578 19.8922C60.0578 21.7812 60.6875 23.2344 61.8984 24.1547C63.1094 25.1234 65.3859 26.0437 68.6797 26.9156C71.9734 27.7875 74.6375 28.6594 76.575 29.5312C78.5125 30.4031 80.2078 31.7594 81.5641 33.5516C82.9687 35.3922 83.6469 37.8141 83.6469 40.9141C83.5984 44.8375 82.2906 48.0828 79.7719 50.65Z" fill="white"/><path d="M17.6266 94.3406H14.6719L12.6859 88.7703C12.3469 87.8016 11.7656 86.9781 10.9422 86.3484C10.1187 85.7187 9.19843 85.3797 8.13281 85.3797H2.94999V94.3406H0.189056V73.4156H9.44062C11.0875 73.4156 12.3953 73.5609 13.4125 73.9C14.4297 74.2391 15.3016 74.8687 15.9312 75.8859C16.5609 76.9031 16.9 78.0656 16.9 79.325C16.9 80.7781 16.4641 81.9891 15.6406 82.9578C14.8172 83.9266 13.6547 84.5562 12.2016 84.8469V84.8953C13.6547 85.3797 14.7687 86.5906 15.5437 88.6734L17.6266 94.3406ZM2.94999 82.9094H9.14999C10.8937 82.9094 12.1047 82.6672 12.8797 82.0859C13.6547 81.5531 14.0422 80.5844 14.0422 79.2766C14.0422 76.9031 12.5406 75.6922 9.53749 75.6922H2.94999V82.9094Z" fill="white"/><path d="M17.7234 94.3891H14.6234L12.6375 88.7703C12.2984 87.8016 11.7172 86.9781 10.8937 86.3484C10.0703 85.7672 9.15 85.4281 8.08438 85.4281H2.99844V94.3891H0.140625V73.3187H9.44062C11.0391 73.3187 12.3953 73.5125 13.4125 73.8031C14.4297 74.0937 15.3016 74.7719 15.9797 75.7891C16.6094 76.8062 16.9484 77.9687 16.9484 79.2281C16.9484 80.6812 16.5125 81.8922 15.6891 82.8609C14.8656 83.8297 13.7031 84.4594 12.2984 84.75C13.7516 85.2344 14.8656 86.4937 15.5922 88.5281L17.7234 94.3891ZM14.6719 94.2922H17.5781L15.4953 88.625C14.7203 86.5906 13.6062 85.3312 12.2016 84.8953H12.1531V84.75H12.2016C13.6547 84.4594 14.7687 83.8297 15.5922 82.8609C16.4156 81.8922 16.8516 80.6812 16.8516 79.2766C16.8516 78.0172 16.5125 76.9031 15.8828 75.8859C15.2531 74.8687 14.3812 74.2391 13.4125 73.9484C12.3953 73.6578 11.0391 73.4641 9.44062 73.4641H0.2375V94.3406H2.90156V85.3797H8.08438C9.15 85.3797 10.1187 85.7187 10.9422 86.3484C11.7656 86.9781 12.3469 87.8016 12.7344 88.8187L14.6719 94.2922ZM9.15 82.9578H2.90156V75.6437H9.58594C12.5891 75.6437 14.1391 76.8547 14.1391 79.2766C14.1391 80.6328 13.7516 81.6016 12.9766 82.1344C12.1531 82.6672 10.8937 82.9578 9.15 82.9578ZM2.99844 82.8609H9.15C10.8453 82.8609 12.1047 82.5703 12.8797 82.0375C13.6547 81.5047 14.0422 80.5844 14.0422 79.2766C14.0422 76.9031 12.5406 75.7406 9.58594 75.7406H2.99844V82.8609Z" fill="white"/><path d="M23.6812 76.3219H20.9688V73.4156H23.6812V76.3219ZM23.6812 94.3406H20.9688V79.1797H23.6812V94.3406Z" fill="white"/><path d="M23.7297 94.3891H20.9203V79.1312H23.7297V94.3891ZM21.0172 94.2922H23.6328V79.2281H21.0172V94.2922ZM23.7297 76.3703H20.9203V73.3672H23.7297V76.3703ZM21.0172 76.2734H23.6328V73.4641H21.0172V76.2734Z" fill="white"/><path d="M33.7563 94.6797C31.5766 94.6797 29.8813 94.0016 28.5734 92.5969C27.2656 91.1922 26.6359 89.2547 26.6359 86.7359C26.6359 84.2172 27.2656 82.2797 28.5734 80.875C29.8813 79.5187 31.5766 78.7922 33.7563 78.7922C35.4031 78.7922 36.8078 79.2281 37.9219 80.0516C39.0359 80.875 39.7141 82.0859 39.9078 83.6844H37.1469C37.0984 82.7641 36.7594 82.0859 36.1297 81.6016C35.5 81.1172 34.725 80.875 33.8047 80.875C32.4969 80.875 31.4797 81.3594 30.6563 82.3281C29.8328 83.2969 29.4453 84.75 29.4453 86.6875C29.4453 88.625 29.8328 90.0781 30.6563 91.0469C31.4797 92.0156 32.4969 92.5 33.8047 92.5C34.725 92.5 35.5 92.2578 36.1297 91.7734C36.7594 91.2891 37.0984 90.6109 37.1469 89.7391H39.9078C39.7141 91.3375 39.0359 92.5484 37.9219 93.3719C36.8078 94.2922 35.4516 94.6797 33.7563 94.6797Z" fill="white"/><path d="M33.7563 94.7281C31.5766 94.7281 29.8328 94.0016 28.5734 92.6453C27.2656 91.2406 26.6359 89.2547 26.6359 86.7359C26.6359 84.2172 27.2656 82.2312 28.5734 80.875C29.8813 79.4703 31.625 78.7922 33.7563 78.7922C35.4031 78.7922 36.8078 79.2281 37.9219 80.0516C39.0359 80.875 39.7141 82.1344 39.9078 83.7328V83.7812H37.05V83.7328C37.0016 82.8609 36.6625 82.1828 36.0328 81.6984C35.4031 81.2141 34.6281 81.0203 33.7563 81.0203C32.4969 81.0203 31.4313 81.5047 30.6563 82.4734C29.8813 83.4422 29.4453 84.8953 29.4453 86.7844C29.4453 88.6734 29.8328 90.1266 30.6563 91.0953C31.4313 92.0641 32.4969 92.5484 33.7563 92.5484C34.6281 92.5484 35.4031 92.3062 36.0328 91.8219C36.6625 91.3859 37.0016 90.7078 37.05 89.8359V89.7875H39.9078V89.8359C39.7141 91.4344 39.0359 92.6453 37.9219 93.5172C36.8563 94.3406 35.4516 94.7281 33.7563 94.7281ZM33.7563 78.889C31.625 78.889 29.8813 79.5672 28.6219 80.9234C27.3625 82.2797 26.6844 84.2656 26.6844 86.7359C26.6844 89.2062 27.3141 91.1922 28.6219 92.5484C29.8813 93.9047 31.625 94.5828 33.7563 94.5828C35.4031 94.5828 36.7594 94.1469 37.8734 93.3234C38.9391 92.5 39.6172 91.3375 39.8109 89.7875H37.1469C37.0984 90.6594 36.7594 91.3375 36.0813 91.8703C35.4516 92.3547 34.6281 92.5969 33.7563 92.5969C32.4484 92.5969 31.3828 92.1125 30.6078 91.0953C29.7844 90.1266 29.3969 88.625 29.3969 86.7359C29.3969 84.7984 29.7844 83.3453 30.6078 82.3766C31.4313 81.3594 32.4969 80.875 33.7563 80.875C34.6766 80.875 35.4516 81.1172 36.0813 81.6016C36.7109 82.0859 37.0984 82.7641 37.1469 83.6844H39.8109C39.6172 82.1828 38.9391 80.9719 37.8734 80.1484C36.8078 79.325 35.4031 78.889 33.7563 78.889Z" fill="white"/><path d="M54.7781 94.3406H51.5328L46.6406 86.6391L44.9453 88.2859V94.2922H42.2812V73.3672H44.9937V85.2344L50.8547 79.1797H54.2453L48.4813 84.7984L54.7781 94.3406Z" fill="white"/><path d="M54.875 94.3891H51.5328V94.3406L46.6406 86.7359L44.9937 88.3344V94.3891H42.1844V73.3187H44.9937V85.1375L50.7578 79.1312H54.2937L48.4812 84.8469L54.875 94.3891ZM51.6297 94.2922H54.7297L48.4328 84.7984L48.4812 84.75L54.1484 79.1797H50.9031L44.9937 85.3312V73.3672H42.3781V94.2437H44.9937V88.2375L46.7375 86.4937L51.6297 94.2922Z" fill="white"/><path d="M62.2859 94.6797C58.1688 94.6797 55.9891 93.0328 55.7953 89.7875H58.4594C58.4594 91.6281 59.7672 92.5484 62.2375 92.5484C63.3516 92.5484 64.2234 92.3062 64.8047 91.8703C65.3859 91.3859 65.6766 90.8047 65.6766 90.1266C65.6766 89.4484 65.3859 88.9641 64.8047 88.6734C64.2234 88.3828 63.0609 87.9953 61.2688 87.5594C59.4766 87.1234 58.1688 86.5906 57.3453 86.0578C56.5219 85.525 56.0859 84.5078 56.0859 83.1516C56.0859 81.8922 56.6188 80.875 57.6359 80.0516C58.6531 79.2281 60.0094 78.7922 61.7531 78.7922C65.725 78.7922 67.7594 80.1969 67.8563 83.0062H65.1922C65.0953 81.6016 64.0297 80.875 61.9469 80.875C61.0266 80.875 60.3 81.0203 59.7188 81.4078C59.1375 81.7469 58.8469 82.2312 58.8469 82.9094C58.8469 83.4906 59.0891 83.9266 59.525 84.1687C59.9609 84.4109 61.1234 84.7984 62.9641 85.2344C64.8047 85.6703 66.1609 86.2031 67.0328 86.7844C67.9047 87.3656 68.3891 88.3828 68.3891 89.8359C68.3891 91.1922 67.8078 92.3547 66.7422 93.275C65.6281 94.2438 64.175 94.6797 62.2859 94.6797Z" fill="white"/><path d="M62.2859 94.7281C58.1203 94.7281 55.9406 93.0812 55.7469 89.7875V89.7391H58.5563V89.7875C58.5563 91.5797 59.8156 92.5 62.2859 92.5C63.4 92.5 64.2234 92.2578 64.8047 91.8219C65.3859 91.3859 65.6766 90.8047 65.6766 90.1266C65.6766 89.4484 65.4344 89.0125 64.8531 88.7219C64.2719 88.4312 63.1094 88.0922 61.3172 87.6562C59.525 87.2203 58.2172 86.6875 57.3938 86.1547C56.5703 85.5734 56.1344 84.6047 56.1344 83.2C56.1344 81.9406 56.6672 80.875 57.6844 80.0516C58.7016 79.2281 60.1063 78.7922 61.8016 78.7922C65.7734 78.7922 67.8563 80.2453 67.9531 83.0547V83.1031H65.1922V83.0547C65.0953 81.65 64.0297 80.9719 62.0438 80.9719C61.1719 80.9719 60.3969 81.1656 59.8156 81.4562C59.2344 81.7953 58.9438 82.2797 58.9438 82.9094C58.9438 83.4906 59.1375 83.8781 59.6219 84.1203C60.0578 84.4109 61.2203 84.75 63.0125 85.1859C64.8531 85.6219 66.2094 86.1547 67.1297 86.7359C68.05 87.3172 68.4859 88.3828 68.4859 89.8359C68.4859 91.2406 67.9531 92.4031 66.8391 93.3234C65.6766 94.2922 64.175 94.7281 62.2859 94.7281ZM55.8438 89.8844C56.0375 93.0812 58.2172 94.6797 62.2859 94.6797C64.1266 94.6797 65.6281 94.2437 66.6938 93.3234C67.7594 92.4516 68.2922 91.2891 68.2922 89.9328C68.2922 88.4797 67.8563 87.4625 66.9844 86.9297C66.1125 86.3484 64.7078 85.8156 62.9156 85.3797C61.075 84.9437 59.9125 84.5562 59.4281 84.3141C58.9438 84.0719 58.7016 83.6359 58.7016 83.0062C58.7016 82.3281 58.9922 81.7953 59.6219 81.4562C60.2031 81.1172 60.9781 80.9234 61.8984 80.9234C63.9328 80.9234 65.0469 81.65 65.1438 83.0547H67.7109C67.6141 80.2937 65.5797 78.889 61.6563 78.889C59.9609 78.889 58.6047 79.2765 57.5875 80.1C56.5703 80.9234 56.0859 81.9406 56.0859 83.2C56.0859 84.5562 56.4734 85.525 57.2969 86.0578C58.1203 86.6391 59.4281 87.1234 61.2203 87.5594C63.0125 87.9953 64.175 88.3828 64.7563 88.6734C65.3375 88.9641 65.6281 89.4484 65.6281 90.175C65.6281 90.9016 65.3375 91.4828 64.7563 91.9672C64.175 92.4516 63.3031 92.6937 62.1891 92.6937C59.7188 92.6937 58.4109 91.7734 58.3625 89.9328H55.8438V89.8844Z" fill="white"/><path d="M77.6891 78.8406C79.8688 78.8406 81.5641 79.5187 82.8719 80.9234C84.1797 82.2797 84.8094 84.2656 84.8094 86.7844C84.8094 89.3031 84.1313 91.2406 82.8719 92.6453C81.5641 94.05 79.8688 94.7281 77.6891 94.7281C75.5094 94.7281 73.8141 94.05 72.5063 92.6453C71.1984 91.2406 70.5688 89.3031 70.5688 86.7844C70.5688 84.2656 71.1984 82.3281 72.5063 80.9234C73.8141 79.5187 75.5094 78.8406 77.6891 78.8406ZM77.6891 92.5969C78.9969 92.5969 80.0141 92.1125 80.7891 91.1437C81.6125 90.175 82 88.7219 82 86.7844C82 84.8469 81.6125 83.3937 80.7891 82.425C79.9656 81.4562 78.9485 80.9719 77.6891 80.9719C76.3813 80.9719 75.3641 81.4562 74.5406 82.425C73.7172 83.3937 73.3297 84.8469 73.3297 86.7844C73.3297 88.7219 73.7172 90.175 74.5406 91.1437C75.3156 92.1125 76.3813 92.5969 77.6891 92.5969Z" fill="white"/><path d="M77.6891 94.7281C75.5094 94.7281 73.7656 94.0016 72.5063 92.6453C71.1984 91.2406 70.5688 89.2547 70.5688 86.7359C70.5688 84.2172 71.2469 82.2312 72.5063 80.875C73.8141 79.4703 75.5578 78.7922 77.6891 78.7922C79.8688 78.7922 81.6125 79.4703 82.9203 80.875C84.2281 82.2797 84.8578 84.2172 84.8578 86.7359C84.8578 89.2547 84.2281 91.2406 82.9203 92.6453C81.5641 94.05 79.8203 94.7281 77.6891 94.7281ZM77.6891 78.889C75.5578 78.889 73.8141 79.5672 72.5547 80.9234C71.2953 82.2797 70.6172 84.2656 70.6172 86.7359C70.6172 89.2062 71.2469 91.1922 72.5547 92.5484C73.8141 93.9047 75.5578 94.5828 77.6891 94.5828C79.8203 94.5828 81.5641 93.9047 82.8234 92.5484C84.0828 91.1922 84.7125 89.2062 84.7125 86.7359C84.7125 84.2172 84.0828 82.2797 82.8234 80.9234C81.5641 79.5672 79.8203 78.889 77.6891 78.889ZM77.6891 92.6453C76.3813 92.6453 75.3156 92.1609 74.4922 91.1437C73.7172 90.175 73.2813 88.6734 73.2813 86.7844C73.2813 84.8469 73.6688 83.3937 74.4922 82.425C75.3156 81.4078 76.3813 80.9234 77.6891 80.9234C78.9969 80.9234 80.0625 81.4078 80.8375 82.425C81.6609 83.3937 82.0484 84.8953 82.0484 86.7844C82.0484 88.7219 81.6609 90.175 80.8375 91.1437C80.0141 92.1125 78.9484 92.6453 77.6891 92.6453ZM77.6891 80.9719C76.4297 80.9719 75.3641 81.4562 74.5891 82.425C73.8141 83.3937 73.3781 84.8469 73.3781 86.7359C73.3781 88.625 73.7656 90.0781 74.5891 91.0469C75.3641 92.0156 76.3813 92.5 77.6891 92.5C78.9484 92.5 79.9656 92.0156 80.7891 91.0469C81.5641 90.0781 82 88.625 82 86.7359C82 84.8469 81.6125 83.3453 80.7891 82.425C79.9656 81.5047 78.9484 80.9719 77.6891 80.9719Z" fill="white"/><path d="M90.9609 81.3109V94.3406H88.2969V81.3109H86.0687V79.2281H88.2969V77.8719C88.2969 74.675 89.7016 73.0766 92.5109 73.0766C93.3828 73.0766 94.0609 73.125 94.5453 73.2703V75.5953C94.0125 75.4984 93.4797 75.45 92.8984 75.45C92.2688 75.45 91.7844 75.6437 91.4453 75.9828C91.1063 76.3219 90.9609 77 90.9609 77.8719V79.1797H93.8187V81.2625H90.9609V81.3109Z" fill="white"/><path d="M91.0094 94.3891H88.2484V81.3594H86.0203V79.1312H88.2484V77.8234C88.2484 74.6266 89.7016 72.9797 92.5594 72.9797C93.4313 72.9797 94.1094 73.0281 94.5937 73.125H94.6422V75.5953H94.5937C94.0609 75.4984 93.5281 75.45 92.9469 75.45C92.3172 75.45 91.8328 75.6437 91.5422 75.9828C91.2516 76.3219 91.0578 76.9516 91.0578 77.8719V79.1312H93.9156V81.3594H91.0578V94.3891H91.0094ZM88.2969 94.2922H90.8641V81.2625H93.7219V79.2281H90.8641V77.8719C90.8641 76.9516 91.0578 76.3219 91.3484 75.9344C91.6875 75.5469 92.1719 75.3531 92.85 75.3531C93.3828 75.3531 93.9156 75.4015 94.4484 75.4984V73.2219C93.9641 73.125 93.3344 73.0765 92.5109 73.0765C89.75 73.0765 88.2969 74.675 88.2969 77.8234V79.2281H86.0688V81.2625H88.2969V94.2922V94.2922Z" fill="white"/><path d="M101.811 94.389C101.23 94.4859 100.6 94.5344 99.8734 94.5344C98.7594 94.5344 97.9359 94.3406 97.4516 93.9531C96.9672 93.5656 96.6281 93.0328 96.4828 92.4031C96.3375 91.8219 96.2891 90.95 96.2891 89.8844V81.2625H94.4V79.1797H96.2891V75.4016H98.9531V79.1797H101.423V81.2625H98.9531V90.0297C98.9531 91.0953 99.0984 91.725 99.3406 92.0156C99.5828 92.3062 99.9703 92.4515 100.406 92.4515C100.891 92.4515 101.327 92.4031 101.763 92.3547V94.389H101.811Z" fill="white"/><path d="M99.8734 94.5828C98.7594 94.5828 97.9359 94.3891 97.4031 94.0016C96.8703 93.6141 96.5313 93.0812 96.4344 92.4516C96.3375 91.8219 96.2406 90.9984 96.2406 89.9328V81.3594H94.3516V79.1312H96.2406V75.3531H99.0016V79.1312H101.472V81.3594H99.0016V90.0297C99.0016 91.0469 99.1469 91.725 99.3891 91.9672C99.6312 92.2094 99.9703 92.3547 100.455 92.3547C100.891 92.3547 101.375 92.3062 101.811 92.2578H101.859V94.3891H101.811C101.23 94.5344 100.6 94.5828 99.8734 94.5828ZM94.4969 81.2625H96.3859V89.9328C96.3859 90.9984 96.4828 91.8219 96.5797 92.4516C96.6766 93.0328 97.0156 93.5656 97.5 93.9531C97.9844 94.3406 98.8078 94.5344 99.9219 94.5344C100.6 94.5344 101.23 94.4859 101.811 94.3406V92.4031C101.375 92.4516 100.939 92.5 100.503 92.5C100.019 92.5 99.6797 92.3547 99.3891 92.0641C99.0984 91.7734 99.0016 91.1437 99.0016 90.0297V81.2625H101.472V79.2281H98.9531V75.45H96.3859V79.2281H94.4969V81.2625V81.2625Z" fill="white"/></svg>