<svg width="118" height="40" viewBox="0 0 118 40" fill="none" xmlns="http://www.w3.org/2000/svg"><path d="M15.1012 10.1037C6.91523 10.1037 0.295532 16.7407 0.295532 24.9481C0.295532 33.1556 6.91523 39.7926 15.1012 39.7926C23.2872 39.7926 29.9069 33.1556 29.9069 24.9481C29.9069 16.7407 23.2576 10.1037 15.1012 10.1037ZM15.1012 32.3556C11.023 32.3556 7.71314 29.037 7.71314 24.9481C7.71314 20.8593 11.023 17.5407 15.1012 17.5407C19.1794 17.5407 22.4893 20.8593 22.4893 24.9481C22.4893 29.037 19.1794 32.3556 15.1012 32.3556Z" fill="white"/><path d="M41.0776 29.9259C41.0776 28.7408 42.4961 28.1778 43.3236 29.0074C47.0176 32.8 53.1349 39.2593 53.194 39.2889C53.2827 39.3778 53.3713 39.5259 53.726 39.6445C53.8737 39.7037 54.1101 39.7037 54.3466 39.7037H61.0254C62.237 39.7037 62.5916 38.3111 62.0301 37.6L50.9776 26.2222L50.4161 25.6296C49.1454 24.1185 49.2931 23.5259 50.7412 22.0148L59.5182 12.2371C60.0797 11.5259 59.7251 10.163 58.4839 10.163H52.4257C52.1892 10.163 52.0119 10.163 51.8642 10.2222C51.5095 10.3408 51.3618 10.4593 51.2731 10.5482C51.2436 10.5778 46.397 15.8222 43.4122 19.0519C42.5848 19.9408 41.1367 19.3482 41.1367 18.163V1.33335C41.1367 0.474089 40.4275 0.148163 39.866 0.148163H34.9307C34.0737 0.148163 33.66 0.711126 33.66 1.21483V38.5482C33.66 39.4074 34.3693 39.6445 34.9307 39.6445H39.866C40.6343 39.6445 41.1367 39.0815 41.1367 38.5185V38.1333V29.9259H41.0776Z" fill="white"/><path d="M81.446 38.3704L80.914 33.3926C80.8549 32.7111 80.2048 32.2371 79.5547 32.3556C79.1705 32.4148 78.7863 32.4445 78.4021 32.4445C74.4421 32.4445 71.2505 29.3334 71.0436 25.4222C71.0436 25.3037 71.0436 25.1556 71.0436 25.0371V18.963C71.0436 18.163 71.6346 17.5408 72.403 17.5408H79.0227C79.4955 17.5408 80.1752 17.1259 80.1752 16.2667V11.5556C80.1752 10.6667 79.5842 10.163 79.0818 10.163H72.403C71.6346 10.163 71.0141 9.60002 71.0141 8.82965V1.33335C71.0141 0.859277 70.689 0.177795 69.7433 0.177795H64.8081C64.1875 0.177795 63.5964 0.562981 63.5964 1.30372C63.5964 1.30372 63.5964 25.3334 63.5964 25.4519C63.8033 33.4519 70.3639 39.8815 78.4021 39.8815C79.0818 39.8815 79.732 39.8222 80.3821 39.7334C81.0323 39.6445 81.5051 39.0222 81.446 38.3704Z" fill="white"/><path d="M117.056 32.1185C112.86 32.1185 112.239 30.637 112.239 24.9778C112.239 24.9481 112.239 24.9481 112.239 24.9185V11.4074C112.239 10.9333 111.885 10.163 110.969 10.163H106.033C105.413 10.163 104.763 10.6667 104.763 11.4074V12.0296C102.605 10.8148 100.123 10.1037 97.4633 10.1037C89.3069 10.1037 82.6576 16.7407 82.6576 24.9481C82.6576 33.1259 89.2773 39.7926 97.4633 39.7926C101.128 39.7926 104.497 38.4593 107.068 36.237C108.457 38.3704 110.703 39.763 114.19 39.7926C114.781 39.7926 117.943 39.9111 117.943 38.4296V33.1556C117.913 32.6222 117.559 32.1185 117.056 32.1185ZM97.4337 32.3556C93.3555 32.3556 90.0457 29.037 90.0457 24.9481C90.0457 20.8593 93.3555 17.5407 97.4337 17.5407C101.512 17.5407 104.822 20.8593 104.822 24.9481C104.822 29.037 101.512 32.3556 97.4337 32.3556Z" fill="white"/></svg>