<svg fill="none" height="35" viewBox="0 0 219 35" width="219" xmlns="http://www.w3.org/2000/svg"><g fill="#a2a7ae"><path d="m111.443 1.86099h-20.6032v2.89954h20.6032z"/><path d="m111.443 8.94138h-20.6032v2.90172h20.6032z"/><path d="m111.443 16.0207h-20.6032v2.8995h20.6032z"/><path d="m111.443 23.0989h-20.6032v2.8995h20.6032z"/><path d="m111.443 30.1765h-20.6032v2.9007h20.6032z"/></g><g fill="#0064a6"><path d="m15.4448 7.36038v25.69982h-6.07521v-25.69982h-8.13039v-5.42227h22.3366v5.42227z"/><path d="m46.9164 33.0602-12.326-19.1018v19.1018h-6.0764v-31.12209h5.4207l12.326 19.05919v-19.05919h6.0758v31.12209z"/><path d="m78.7806 29.7806c-2.403 2.45-5.2878 3.5427-8.7861 3.5427-3.3196 0-6.1174-1.137-8.3918-3.4093-1.3535-1.3557-2.1837-2.9301-2.5359-4.6768-.3467-1.7489-.5239-4.3264-.5239-7.7383 0-3.4076.1772-5.9872.5239-7.73665.3522-1.79157 1.1824-3.32063 2.5359-4.67578 2.2744-2.27446 5.0717-3.40867 8.3918-3.40867 7.0836 0 10.8861 4.54507 11.714 9.9646h-6.1184c-.7427-3.01601-2.5763-4.54398-5.5956-4.54398-1.6161 0-2.9269.5682-3.8878 1.65976-1.1397 1.44152-1.4864 2.58012-1.4864 8.74072 0 6.1195.262 7.3467 1.4864 8.7861.9177 1.0932 2.228 1.6171 3.8878 1.6171 1.7943 0 3.2358-.5677 4.329-1.7462.9177-1.0494 1.3989-2.4494 1.3989-4.1535v-1.1807h-4.3821v-5.0695h10.4125v4.545c-.0005 4.5479-.8296 7.2117-2.9722 9.4834z"/><path d="m123.944 3.41576v9.77534h-1.714v-9.77534h-3.118v-1.54055h7.947v1.54055z"/><path d="m129.013 13.1911v-11.31589h7.229v1.54055h-5.512v3.30476h4.706v1.52688h-4.706v3.4005h5.512v1.5432z"/><path d="m142.25 13.2825c-1.174 0-2.195-.4271-2.972-1.2064-1.108-1.1118-1.094-2.36691-1.094-4.54402s-.014-3.43383 1.094-4.54398c.777-.78039 1.797-1.21024 2.972-1.21024 2.082 0 3.639 1.225 4.038 3.48086h-1.751c-.265-1.14351-1.03-1.93758-2.287-1.93758-.665 0-1.272.25211-1.667.68196-.558.60375-.683 1.25562-.683 3.52844 0 2.27172.126 2.92306.683 3.52846.395.426 1.002.6797 1.667.6797 1.257 0 2.033-.7924 2.307-1.93644h1.731c-.381 2.25584-1.99 3.47924-4.038 3.47924z"/><path d="m154.884 13.1911v-4.9437h-4.591v4.9437h-1.718v-11.31589h1.718v4.82946h4.591v-4.82946h1.719v11.31589z"/><path d="m166.502 13.1911-5.229-7.96409v7.96409h-1.713v-11.31589h1.57l5.229 7.94445v-7.94445h1.717v11.31589z"/><path d="m177.675 12.0761c-.781.7793-1.779 1.2064-2.991 1.2064-1.205 0-2.19-.4271-2.972-1.2064-1.113-1.1118-1.096-2.36691-1.096-4.54402s-.017-3.43383 1.096-4.54398c.782-.78039 1.767-1.21024 2.972-1.21024 1.212 0 2.21.42985 2.991 1.21024 1.114 1.10961 1.078 2.36633 1.078 4.54398-.001 2.17711.036 3.43222-1.078 4.54402zm-1.306-8.05714c-.398-.42821-1.018-.69672-1.685-.69672-.665 0-1.286.26851-1.683.69672-.557.60375-.666 1.24086-.666 3.51367 0 2.27172.109 2.90887.666 3.51097.397.4287 1.018.6972 1.683.6972.667 0 1.287-.2685 1.685-.6972.558-.6021.668-1.23925.668-3.51097 0-2.27336-.11-2.91047-.668-3.51367z"/><path d="m181.297 13.1911v-11.31589h1.719v9.77269h5.45v1.5432z"/><path d="m196.646 12.0761c-.776.7793-1.779 1.2064-2.987 1.2064-1.211 0-2.195-.4271-2.971-1.2064-1.115-1.1118-1.1-2.36691-1.1-4.54402s-.015-3.43383 1.1-4.54398c.776-.78039 1.76-1.21024 2.971-1.21024 1.208 0 2.211.42985 2.987 1.21024 1.113 1.10961 1.082 2.36633 1.082 4.54398 0 2.17711.031 3.43222-1.082 4.54402zm-1.302-8.05714c-.396-.42821-1.019-.69672-1.685-.69672-.671 0-1.289.26851-1.682.69672-.559.60375-.669 1.24086-.669 3.51367 0 2.27172.11 2.90887.669 3.51097.393.4287 1.011.6972 1.682.6972.666 0 1.289-.2685 1.685-.6972.558-.6021.667-1.23925.667-3.51097 0-2.27336-.109-2.91047-.667-3.51367z"/><path d="m207.039 11.9962c-.855.9057-1.923 1.2868-3.114 1.2868-1.177 0-2.193-.4271-2.974-1.2064-1.107-1.1118-1.095-2.36686-1.095-4.54397s-.012-3.43383 1.095-4.54398c.781-.78039 1.766-1.21024 2.974-1.21024 2.401 0 3.797 1.57336 4.113 3.51367h-1.727c-.287-1.24031-1.116-1.97039-2.386-1.97039-.668 0-1.272.26852-1.668.69672-.559.60375-.689 1.24086-.689 3.51368 0 2.27171.129 2.92301.689 3.52841.396.426 1 .6798 1.668.6798.747 0 1.396-.2844 1.844-.7924.415-.4764.572-1.04839.572-1.77956v-.63711h-2.416v-1.4618h4.13v1.73195c0 1.46342-.269 2.40022-1.016 3.19482z"/><path d="m214.126 8.53177v4.65993h-1.719v-4.65993l-3.384-6.65656h1.877l2.366 4.97274 2.372-4.97274h1.873z"/><path d="m123.768 33.1483c-1.171 0-2.193-.4282-2.972-1.2075-1.11-1.1107-1.094-2.3664-1.094-4.544 0-2.1777-.016-3.4344 1.094-4.5456.779-.7793 1.801-1.2092 2.972-1.2092 2.083 0 3.642 1.2256 4.037 3.4809h-1.745c-.272-1.1435-1.035-1.9376-2.292-1.9376-.665 0-1.267.2548-1.668.6819-.556.6038-.683 1.2557-.683 3.529 0 2.2718.127 2.9242.683 3.5268.4.4271 1.003.6825 1.668.6825 1.257 0 2.033-.7929 2.307-1.9375h1.731c-.384 2.2564-1.99 3.4803-4.038 3.4803z"/><path d="m137.216 31.9408c-.783.7793-1.78 1.2075-2.993 1.2075-1.207 0-2.189-.4282-2.972-1.2075-1.112-1.1107-1.095-2.3664-1.095-4.544 0-2.1777-.017-3.4344 1.095-4.5456.783-.7793 1.765-1.2092 2.972-1.2092 1.213 0 2.21.4299 2.993 1.2092 1.112 1.1107 1.079 2.3674 1.079 4.5456 0 2.1776.033 3.4333-1.079 4.544zm-1.304-8.0561c-.397-.4271-1.021-.6983-1.689-.6983-.665 0-1.286.2712-1.68.6983-.559.6033-.667 1.2393-.667 3.5126 0 2.2717.107 2.9072.667 3.5121.395.4298 1.015.6972 1.68.6972.668 0 1.292-.2674 1.689-.6972.557-.6043.667-1.2404.667-3.5121 0-2.2739-.11-2.9099-.667-3.5126z"/><path d="m148.262 33.0537-5.233-7.962v7.962h-1.718v-11.3138h1.576l5.227 7.945v-7.945h1.716v11.3138z"/><path d="m156.269 33.1483c-1.7 0-2.926-.396-4.005-1.4925l1.144-1.1282c.827.8242 1.731 1.0796 2.892 1.0796 1.478 0 2.335-.6344 2.335-1.7303 0-.495-.142-.9073-.443-1.1786-.287-.2674-.572-.3795-1.242-.4752l-1.335-.1909c-.923-.1279-1.652-.4446-2.143-.9045-.559-.5255-.826-1.2408-.826-2.1612 0-1.9715 1.428-3.3229 3.778-3.3229 1.494 0 2.544.3823 3.513 1.2896l-1.094 1.0779c-.699-.6661-1.509-.8707-2.465-.8707-1.335 0-2.067.7602-2.067 1.7632 0 .4123.13.7776.429 1.0478.285.2526.747.444 1.274.5255l1.289.1887c1.045.1597 1.637.4145 2.109.8433.622.5387.923 1.3508.923 2.3204.001 2.0803-1.7 3.319-4.066 3.319z"/><path d="m166.995 33.1483c-2.306 0-4.052-1.5723-4.052-3.9102v-7.4982h1.717v7.42c0 1.5094.917 2.4467 2.335 2.4467 1.411 0 2.352-.9373 2.352-2.4467v-7.42h1.714v7.4982c0 2.3379-1.761 3.9102-4.066 3.9102z"/><path d="m174.322 33.0537v-11.3138h1.715v9.7721h5.45v1.5417z"/><path d="m186.476 23.2815v9.7722h-1.718v-9.7722h-3.113v-1.5416h7.943v1.5416z"/><path d="m192.02 33.0537v-11.3138h1.717v11.3138z"/><path d="m204.112 33.0537-5.225-7.962v7.962h-1.718v-11.3138h1.577l5.229 7.945v-7.945h1.715v11.3138z"/><path d="m215.893 31.862c-.858.9056-1.923 1.2868-3.115 1.2868-1.177 0-2.196-.4282-2.974-1.2075-1.114-1.1107-1.099-2.3663-1.099-4.544 0-2.1776-.015-3.4344 1.099-4.5456.778-.7793 1.762-1.2092 2.974-1.2092 2.396 0 3.797 1.5734 4.113 3.5137h-1.731c-.286-1.2414-1.111-1.9704-2.382-1.9704-.671 0-1.274.2713-1.668.6984-.557.6032-.684 1.2392-.684 3.5126 0 2.2717.127 2.9241.684 3.5268.394.4271.997.6825 1.668.6825.747 0 1.398-.2833 1.841-.793.416-.4785.571-1.0506.571-1.7795v-.6355h-2.412v-1.464h4.13v1.7352c0 1.4597-.271 2.3981-1.015 3.1927z"/></g></svg>