<svg id="Layer_1" data-name="Layer 1" xmlns="http://www.w3.org/2000/svg" viewBox="0 0 1303 265"><defs><style>.cls-1,.cls-8{fill:#ff9e00;}.cls-2{fill:#1e2d95;}.cls-3,.cls-9{fill:#ff5266;}.cls-10,.cls-4,.cls-7{fill:#00612f;}.cls-10,.cls-11,.cls-4,.cls-8,.cls-9{stroke:#696969;stroke-miterlimit:10;}.cls-11,.cls-4,.cls-8,.cls-9{stroke-width:0.05px;}.cls-11,.cls-5{fill:#51dadf;}.cls-6{fill:#6d9b37;}.cls-10{stroke-width:0.03px;}</style></defs><rect x="-0.42" y="-17" width="1304" height="282.12"/><path class="cls-1" d="M446,206.81h30.84a3.06,3.06,0,0,1,3.07,3.07h0a3.07,3.07,0,0,1-3.07,3.07H446a3.08,3.08,0,0,1-3.07-3.07h0A3.07,3.07,0,0,1,446,206.81Z"/><path class="cls-2" d="M390.87,206.81h0a3.06,3.06,0,0,1,3.07,3.07h0a3.07,3.07,0,0,1-3.07,3.07H387.8v-3.07a3.07,3.07,0,0,1,3.07-3.07Z"/><path class="cls-1" d="M541,213h0a3.08,3.08,0,0,1-3.07-3.07h0a3.07,3.07,0,0,1,3.07-3.07h0a3.06,3.06,0,0,1,3.07,3.07h0A3.07,3.07,0,0,1,541,213Z"/><path class="cls-3" d="M512.47,206.81h3.11a3.06,3.06,0,0,1,3.08,3.06h0a3.07,3.07,0,0,1-3.08,3.07h0a3.09,3.09,0,0,1-3.07-3.07Z"/><polygon class="cls-4" points="566.15 206.81 563.08 209.88 566.15 212.95 566.15 206.81"/><path class="cls-5" d="M-.6,206.81H74.78a3.06,3.06,0,0,1,3.07,3.07h0A3.07,3.07,0,0,1,74.78,213H-.6v-6.14Z"/><path class="cls-2" d="M147.5,213h0a3.08,3.08,0,0,1-3.07-3.07h0a3.07,3.07,0,0,1,3.07-3.07h0a3.06,3.06,0,0,1,3.07,3.07h0A3.07,3.07,0,0,1,147.5,213Z"/><path class="cls-3" d="M119,206.81H122a3.05,3.05,0,0,1,3.07,3.05v0h0A3.07,3.07,0,0,1,122,213h0a3.08,3.08,0,0,1-3.07-3.07h0Z"/><path class="cls-6" d="M172.65,213l-3.07-3.07,3.07-3.07Z"/><path class="cls-2" d="M265.39,206.81h54.42a3.06,3.06,0,0,1,3.07,3.07h0a3.07,3.07,0,0,1-3.07,3.07H265.39a3.08,3.08,0,0,1-3.07-3.07h0A3.07,3.07,0,0,1,265.39,206.81Z"/><path class="cls-1" d="M1072.69,206.81h18.42a3.06,3.06,0,0,1,3.07,3.07h0a3.07,3.07,0,0,1-3.07,3.07h-18.42a3.08,3.08,0,0,1-3.07-3.07h0A3.07,3.07,0,0,1,1072.69,206.81Z"/><path class="cls-1" d="M1303.25,213h-23.67a3.09,3.09,0,0,1-3.07-3.07h0a3.07,3.07,0,0,1,3.07-3.07h23.63Z"/><path class="cls-2" d="M1026.89,206.81h0a3.06,3.06,0,0,1,3.07,3.07h0a3.07,3.07,0,0,1-3.07,3.07h-3.07v-3.07A3.07,3.07,0,0,1,1026.89,206.81Z"/><path class="cls-1" d="M1161.5,213h0a3.08,3.08,0,0,1-3.07-3.07h0a3.07,3.07,0,0,1,3.07-3.07h0a3.06,3.06,0,0,1,3.07,3.07h0A3.07,3.07,0,0,1,1161.5,213Z"/><path class="cls-3" d="M1133,206.81H1136a3.06,3.06,0,0,1,3.08,3.06h0A3.07,3.07,0,0,1,1136,213h0a3.09,3.09,0,0,1-3.07-3.07Z"/><polygon class="cls-4" points="1186.65 206.81 1183.58 209.88 1186.65 212.95 1186.65 206.81"/><path class="cls-5" d="M768.84,213h0a3.08,3.08,0,0,1-3.07-3.07h0a3.07,3.07,0,0,1,3.07-3.07h0a3.06,3.06,0,0,1,3.07,3.07h0A3.07,3.07,0,0,1,768.84,213Z"/><path class="cls-7" d="M797.84,181h0a3.08,3.08,0,0,1-3.07-3.07h0a3.07,3.07,0,0,1,3.07-3.07h0a3.06,3.06,0,0,1,3.07,3.07h0A3.07,3.07,0,0,1,797.84,181Z"/><path class="cls-6" d="M828.91,206.81l3.07,3.07L828.91,213Z"/><path class="cls-3" d="M918.76,206.81h54.42a3.06,3.06,0,0,1,3.07,3.07h0a3.07,3.07,0,0,1-3.07,3.07H918.76a3.08,3.08,0,0,1-3.07-3.07h0A3.07,3.07,0,0,1,918.76,206.81Z"/><rect class="cls-1" x="409.13" y="142.78" width="6.14" height="6.14"/><path class="cls-1" d="M211.1,13.85h0a3.06,3.06,0,0,1,3.07,3.07h0V20H211.1A3.08,3.08,0,0,1,208,16.92h0a3.07,3.07,0,0,1,3.07-3.07Z"/><path class="cls-5" d="M455.43,20H398.84a3.08,3.08,0,0,1-3.07-3.07h0a3.07,3.07,0,0,1,3.07-3.07h56.59a3.06,3.06,0,0,1,3.07,3.07h0A3.07,3.07,0,0,1,455.43,20Z"/><path class="cls-2" d="M478.66,20h0a3.08,3.08,0,0,1-3.07-3.07h0a3.07,3.07,0,0,1,3.07-3.07h0a3.06,3.06,0,0,1,3.07,3.07h0A3.07,3.07,0,0,1,478.66,20Z"/><path class="cls-1" d="M104.06,13.85h32a3.06,3.06,0,0,1,3.07,3.07h0A3.07,3.07,0,0,1,136,20h-32A3.08,3.08,0,0,1,101,16.92h0A3.07,3.07,0,0,1,104.06,13.85Z"/><path class="cls-1" d="M303.32,20h0a3.08,3.08,0,0,1-3.07-3.07h0a3.07,3.07,0,0,1,3.07-3.07h0a3.06,3.06,0,0,1,3.07,3.07h0A3.07,3.07,0,0,1,303.32,20Z"/><path class="cls-3" d="M274.79,13.85h3.07a3.07,3.07,0,0,1,3.07,3.07h0A3.07,3.07,0,0,1,277.86,20h0a3.07,3.07,0,0,1-3.07-3V13.85Z"/><polygon class="cls-4" points="328.46 13.85 325.39 16.92 328.46 19.99 328.46 13.85"/><path class="cls-1" d="M1032.82,15.43h0a3.06,3.06,0,0,1,3.07,3.07v3.07h-3.07a3.08,3.08,0,0,1-3.07-3.07h0A3.07,3.07,0,0,1,1032.82,15.43Z"/><path class="cls-3" d="M1186.93,21.55l-3.08-3.08,3.08-3.07Z"/><path class="cls-4" d="M1165.88,21.55h-41.77a3.08,3.08,0,0,1-3.07-3.07h0a3.07,3.07,0,0,1,3.07-3.07h41.77a3.06,3.06,0,0,1,3.07,3.07h0A3.07,3.07,0,0,1,1165.88,21.55Z"/><path class="cls-5" d="M1081.46,21.55h-28.64a3.08,3.08,0,0,1-3.07-3.07h0a3.07,3.07,0,0,1,3.07-3.07h28.64a3.06,3.06,0,0,1,3.07,3.07h0A3.07,3.07,0,0,1,1081.46,21.55Z"/><path class="cls-2" d="M1101.19,21.55h0a3.08,3.08,0,0,1-3.07-3.07h0a3.07,3.07,0,0,1,3.07-3.07h0a3.06,3.06,0,0,1,3.07,3.07h0A3.07,3.07,0,0,1,1101.19,21.55Z"/><path class="cls-3" d="M812.66,15.4h81.6a3.06,3.06,0,0,1,3.07,3.07h0a3.07,3.07,0,0,1-3.07,3.07h-81.6a3.08,3.08,0,0,1-3.07-3.07h0A3.07,3.07,0,0,1,812.66,15.4Z"/><path class="cls-2" d="M785.4,15.4h0a3.06,3.06,0,0,1,3.07,3.07h0a3.07,3.07,0,0,1-3.07,3.07h0a3.08,3.08,0,0,1-3.07-3.07h0A3.07,3.07,0,0,1,785.4,15.4Z"/><path class="cls-4" d="M53.94,13.85H61a3.06,3.06,0,0,1,3.07,3.07h0A3.07,3.07,0,0,1,61,20H53.94a3.08,3.08,0,0,1-3.07-3.07h0A3.07,3.07,0,0,1,53.94,13.85Z"/><path class="cls-3" d="M29.39,13.85h0a3.06,3.06,0,0,1,3.07,3.07h0A3.07,3.07,0,0,1,29.39,20H26.32V16.92A3.07,3.07,0,0,1,29.39,13.85Z"/><path class="cls-2" d="M434.16,46.67h52a3.06,3.06,0,0,1,3.07,3.07h0a3.07,3.07,0,0,1-3.07,3.07h-52a3.08,3.08,0,0,1-3.07-3.07h0A3.07,3.07,0,0,1,434.16,46.67Z"/><path class="cls-5" d="M242.74,46.64H326A3.06,3.06,0,0,1,329,49.71h0A3.07,3.07,0,0,1,326,52.78H242.74a3.08,3.08,0,0,1-3.07-3.07h0A3.07,3.07,0,0,1,242.74,46.64Z"/><path class="cls-3" d="M358.44,46.64h0a3.06,3.06,0,0,1,3.07,3.07h0a3.07,3.07,0,0,1-3.07,3.07h-3.07V49.71a3.07,3.07,0,0,1,3.07-3.07Z"/><path class="cls-2" d="M41.7,46.64H65A3.06,3.06,0,0,1,68,49.71h0A3.07,3.07,0,0,1,65,52.78H41.7a3.08,3.08,0,0,1-3.07-3.07h0A3.07,3.07,0,0,1,41.7,46.64Z"/><path class="cls-3" d="M110.42,46.64h0a3.06,3.06,0,0,1,3.07,3.07h0a3.07,3.07,0,0,1-3.07,3.07h-3.07V49.71a3.07,3.07,0,0,1,3.07-3.07Z"/><path class="cls-3" d="M1248.54,46.67h22.34a3.06,3.06,0,0,1,3.07,3.07h0a3.07,3.07,0,0,1-3.07,3.07h-22.34a3.08,3.08,0,0,1-3.07-3.07h0A3.07,3.07,0,0,1,1248.54,46.67Z"/><rect class="cls-2" x="1218.29" y="46.64" width="6.14" height="6.14"/><path class="cls-4" d="M1070,46.64h9.56a3.06,3.06,0,0,1,3.07,3.07h0a3.07,3.07,0,0,1-3.07,3.07H1070a3.08,3.08,0,0,1-3.07-3.07h0A3.07,3.07,0,0,1,1070,46.64Z"/><path class="cls-2" d="M951.52,46.64h0a3.06,3.06,0,0,1,3.07,3.07h0a3.07,3.07,0,0,1-3.07,3.07h0a3.08,3.08,0,0,1-3.07-3.07h0A3.07,3.07,0,0,1,951.52,46.64Z"/><path class="cls-8" d="M818.49,46.64H838a3.06,3.06,0,0,1,3.07,3.07h0A3.07,3.07,0,0,1,838,52.78H818.49a3.08,3.08,0,0,1-3.07-3.07h0A3.07,3.07,0,0,1,818.49,46.64Z"/><path class="cls-9" d="M515.54,23.93h19.51A3.07,3.07,0,0,1,538.12,27h0a3.06,3.06,0,0,1-3.07,3.07H515.54A3.07,3.07,0,0,1,512.47,27h0A3.08,3.08,0,0,1,515.54,23.93Z"/><polygon class="cls-5" points="888.34 52.78 891.42 49.71 888.34 46.64 888.34 52.78"/><rect class="cls-2" x="478.46" y="238.74" width="6.18" height="6.13"/><path class="cls-4" d="M243.27,245H236.6a3.08,3.08,0,0,1-3.07-3.07h0a3.07,3.07,0,0,1,3.07-3.07h6.67a3.06,3.06,0,0,1,3.07,3.07h0A3.07,3.07,0,0,1,243.27,245Z"/><path class="cls-2" d="M27.45,238.93h0A3.06,3.06,0,0,1,30.52,242h0a3.07,3.07,0,0,1-3.07,3.07h0A3.08,3.08,0,0,1,24.38,242h0A3.07,3.07,0,0,1,27.45,238.93Z"/><path class="cls-3" d="M52.58,245.07H49.49A3.08,3.08,0,0,1,46.42,242h0a3.07,3.07,0,0,1,3.07-3.07h0a3.05,3.05,0,0,1,3.09,3v3.11Z"/><path class="cls-1" d="M323.35,238.9h26.29a3.06,3.06,0,0,1,3.07,3.07h0a3.07,3.07,0,0,1-3.07,3.07H323.35a3.08,3.08,0,0,1-3.07-3.07h0A3.07,3.07,0,0,1,323.35,238.9Z"/><path class="cls-3" d="M405.3,238.9h48.19a3.06,3.06,0,0,1,3.07,3.07h0a3.07,3.07,0,0,1-3.07,3.07H405.3a3.08,3.08,0,0,1-3.07-3.07h0A3.07,3.07,0,0,1,405.3,238.9Z"/><path class="cls-2" d="M375.67,238.9h0a3.06,3.06,0,0,1,3.07,3.07h0a3.07,3.07,0,0,1-3.07,3.07h0A3.08,3.08,0,0,1,372.6,242h0A3.07,3.07,0,0,1,375.67,238.9Z"/><path class="cls-7" d="M81.51,238.93h74.86a3.06,3.06,0,0,1,3.07,3.07h0a3.07,3.07,0,0,1-3.07,3.07H81.51A3.08,3.08,0,0,1,78.44,242h0A3.07,3.07,0,0,1,81.51,238.93Z"/><path class="cls-2" d="M205.26,245.07h0a3.08,3.08,0,0,1-3.07-3.07h0a3.07,3.07,0,0,1,3.07-3.07h0a3.06,3.06,0,0,1,3.07,3.07h0A3.07,3.07,0,0,1,205.26,245.07Z"/><polygon class="cls-5" points="220.28 238.93 217.21 242 220.28 245.07 220.28 238.93"/><rect class="cls-2" x="1254.47" y="238.74" width="6.18" height="6.13"/><path class="cls-3" d="M577.36,245.07h-3.07a3.08,3.08,0,0,1-3.08-3.06h0a3.07,3.07,0,0,1,3.07-3.07h0a3.06,3.06,0,0,1,3.07,3.07h0Z"/><path class="cls-5" d="M1077.52,238.9h44.92a3.06,3.06,0,0,1,3.07,3.07h0a3.07,3.07,0,0,1-3.07,3.07h-44.92a3.08,3.08,0,0,1-3.07-3.07h0A3.07,3.07,0,0,1,1077.52,238.9Z"/><path class="cls-3" d="M1195.28,238.9H1238A3.06,3.06,0,0,1,1241,242h0A3.07,3.07,0,0,1,1238,245h-42.68a3.08,3.08,0,0,1-3.07-3.07h0A3.07,3.07,0,0,1,1195.28,238.9Z"/><path class="cls-2" d="M1143,238.9h0a3.06,3.06,0,0,1,3.07,3.07h0A3.07,3.07,0,0,1,1143,245h0A3.08,3.08,0,0,1,1140,242h0A3.07,3.07,0,0,1,1143,238.9Z"/><path class="cls-7" d="M655.64,238.93h93.5a3.06,3.06,0,0,1,3.07,3.07h0a3.07,3.07,0,0,1-3.07,3.07h-93.5a3.08,3.08,0,0,1-3.07-3.07h0A3.07,3.07,0,0,1,655.64,238.93Z"/><path class="cls-2" d="M801.78,245.07h0a3.08,3.08,0,0,1-3.07-3.07h0a3.07,3.07,0,0,1,3.07-3.07h0a3.06,3.06,0,0,1,3.07,3.07h0A3.07,3.07,0,0,1,801.78,245.07Z"/><path class="cls-5" d="M818.72,245.07,815.65,242l3.07-3.07Z"/><path class="cls-2" d="M89.23,78.49h0a3.06,3.06,0,0,1,3.07,3.07h0a3.07,3.07,0,0,1-3.07,3.07h0a3.08,3.08,0,0,1-3.07-3.07h0A3.07,3.07,0,0,1,89.23,78.49Z"/><polygon class="cls-1" points="329.52 78.78 326.45 81.85 329.52 84.91 329.52 78.78"/><path class="cls-2" d="M344.51,78.49h0a3.06,3.06,0,0,1,3.07,3.07h0a3.07,3.07,0,0,1-3.07,3.07h0a3.08,3.08,0,0,1-3.07-3.07h0A3.07,3.07,0,0,1,344.51,78.49Z"/><path class="cls-3" d="M408.75,78.49h10.41a3.06,3.06,0,0,1,3.07,3.07h0a3.07,3.07,0,0,1-3.07,3.07H408.75a3.08,3.08,0,0,1-3.07-3.07h0A3.07,3.07,0,0,1,408.75,78.49Z"/><path class="cls-3" d="M284,78.85h21.38a3.06,3.06,0,0,1,3.07,3.07h0A3.07,3.07,0,0,1,305.35,85H284a3.08,3.08,0,0,1-3.07-3.07h0A3.07,3.07,0,0,1,284,78.85Z"/><path class="cls-4" d="M368.05,85,365,81.92l3.07-3.07Z"/><path class="cls-1" d="M939.38,78.46h17.78a3.06,3.06,0,0,1,3.07,3.07h0a3.07,3.07,0,0,1-3.07,3.07H939.38a3.08,3.08,0,0,1-3.07-3.07h0A3.07,3.07,0,0,1,939.38,78.46Z"/><path class="cls-6" d="M974.27,78.43h3.07V81.5a3.06,3.06,0,0,1-3.05,3.07h0a3.07,3.07,0,0,1-3.07-3v0h0a3.06,3.06,0,0,1,3-3.07Z"/><polygon class="cls-1" points="1081.8 78.75 1078.73 81.81 1081.8 84.87 1081.8 78.75"/><path class="cls-2" d="M1096.79,78.46h0a3.06,3.06,0,0,1,3.07,3.07h0a3.07,3.07,0,0,1-3.07,3.07h0a3.08,3.08,0,0,1-3.07-3.07h0A3.07,3.07,0,0,1,1096.79,78.46Z"/><path class="cls-3" d="M1118.29,78.46h35.25a3.06,3.06,0,0,1,3.07,3.07h0a3.07,3.07,0,0,1-3.07,3.07h-35.25a3.08,3.08,0,0,1-3.07-3.07h0A3.07,3.07,0,0,1,1118.29,78.46Z"/><path class="cls-2" d="M1303.58,84.63h-80.67a3.08,3.08,0,0,1-3.07-3.07h0a3.07,3.07,0,0,1,3.07-3.07h80.67v6.14Z"/><rect class="cls-2" x="914.14" y="78.91" width="6.14" height="6.14"/><rect class="cls-3" x="1060.69" y="78.85" width="6.14" height="6.14"/><path class="cls-4" d="M1033.32,85l-3.07-3.07,3.07-3.07Z"/><path class="cls-3" d="M33.66,85.06H-.42V78.92H33.66A3.06,3.06,0,0,1,36.73,82h0A3.08,3.08,0,0,1,33.66,85.06Z"/><path class="cls-2" d="M282.08,110.68h0a3.06,3.06,0,0,1,3.07,3.07h0a3.07,3.07,0,0,1-3.07,3.07h0a3.08,3.08,0,0,1-3.07-3.07h0A3.07,3.07,0,0,1,282.08,110.68Z"/><path class="cls-4" d="M222.35,110.68h7.08a3.06,3.06,0,0,1,3.07,3.07h0a3.07,3.07,0,0,1-3.07,3.07h-7.08a3.08,3.08,0,0,1-3.07-3.07h0A3.07,3.07,0,0,1,222.35,110.68Z"/><path class="cls-3" d="M197.8,110.68h0a3.06,3.06,0,0,1,3.07,3.07h0a3.07,3.07,0,0,1-3.07,3.07h-3.07v-3.07a3.07,3.07,0,0,1,3.07-3.07Z"/><polygon class="cls-5" points="252.45 116.83 255.52 113.76 252.45 110.68 252.45 116.83"/><path class="cls-3" d="M88,110.75h58.66a3.06,3.06,0,0,1,3.07,3.07h0a3.07,3.07,0,0,1-3.07,3.07H88a3.08,3.08,0,0,1-3.07-3.07h0A3.07,3.07,0,0,1,88,110.75Z"/><polygon class="cls-4" points="398.9 148.86 401.97 145.79 398.9 142.71 398.9 148.86"/><path class="cls-2" d="M1055.77,116.89h0a3.08,3.08,0,0,1-3.07-3.07h0a3.07,3.07,0,0,1,3.07-3.07h3.07v3.07A3.07,3.07,0,0,1,1055.77,116.89Z"/><path class="cls-10" d="M841,110.75H944.37a3.06,3.06,0,0,1,3.07,3.07h0a3.07,3.07,0,0,1-3.07,3.07H841a3.08,3.08,0,0,1-3.07-3.07h0A3.07,3.07,0,0,1,841,110.75Z"/><path class="cls-2" d="M1211.47,110.68h0a3.06,3.06,0,0,1,3.07,3.07h0a3.07,3.07,0,0,1-3.07,3.07h0a3.08,3.08,0,0,1-3.07-3.07h0A3.07,3.07,0,0,1,1211.47,110.68Z"/><polygon class="cls-4" points="1187.2 116.83 1190.27 113.76 1187.2 110.68 1187.2 116.83"/><path class="cls-10" d="M1271.05,110.68h32.53v6.14h-32.53a3.08,3.08,0,0,1-3.07-3.07h0A3.07,3.07,0,0,1,1271.05,110.68Z"/><rect class="cls-1" x="1018.4" y="110.75" width="6.14" height="6.14"/><rect class="cls-2" x="58.31" y="174.9" width="6.18" height="6.13"/><path class="cls-4" d="M345,174.77h6.67a3.06,3.06,0,0,1,3.07,3.07h0a3.07,3.07,0,0,1-3.07,3.07H345a3.08,3.08,0,0,1-3.07-3.07h0A3.07,3.07,0,0,1,345,174.77Z"/><path class="cls-2" d="M191.06,180.88H117.32a3.08,3.08,0,0,1-3.07-3.07h0a3.07,3.07,0,0,1,3.07-3.07h73.74a3.06,3.06,0,0,1,3.07,3.07h0A3.07,3.07,0,0,1,191.06,180.88Z"/><polygon class="cls-5" points="370.81 180.85 373.88 177.78 370.81 174.71 370.81 180.85"/><path class="cls-2" d="M1209,180.81h0a3.08,3.08,0,0,1-3.07-3.07h0a3.07,3.07,0,0,1,3.07-3.07h0a3.06,3.06,0,0,1,3.07,3.07h0A3.07,3.07,0,0,1,1209,180.81Z"/><path class="cls-3" d="M1191.69,174.66h3.07a3.07,3.07,0,0,1,3.07,3.07h0a3.07,3.07,0,0,1-3.07,3.07h0a3.07,3.07,0,0,1-3.07-3.05v-3.09Z"/><path class="cls-7" d="M1170.5,180.81h-74.86a3.08,3.08,0,0,1-3.07-3.07h0a3.07,3.07,0,0,1,3.07-3.07h74.86a3.06,3.06,0,0,1,3.07,3.07h0A3.07,3.07,0,0,1,1170.5,180.81Z"/><path class="cls-2" d="M890.89,180.81H816a3.08,3.08,0,0,1-3.07-3.07h0a3.07,3.07,0,0,1,3.07-3.07h74.86a3.06,3.06,0,0,1,3.07,3.07h0A3.07,3.07,0,0,1,890.89,180.81Z"/><path class="cls-2" d="M1068.49,174.66h0a3.06,3.06,0,0,1,3.07,3.07h0a3.07,3.07,0,0,1-3.07,3.07h0a3.08,3.08,0,0,1-3.07-3.07h0A3.07,3.07,0,0,1,1068.49,174.66Z"/><polygon class="cls-5" points="1055.47 180.8 1058.54 177.73 1055.47 174.66 1055.47 180.8"/><path class="cls-3" d="M29.84,149.08H26.77A3.08,3.08,0,0,1,23.7,146h0a3.06,3.06,0,0,1,3.05-3.07h0A3.05,3.05,0,0,1,29.84,146v3.09Z"/><path class="cls-2" d="M55,148.76h0A3.08,3.08,0,0,1,52,145.69h0A3.07,3.07,0,0,1,55,142.62h0a3.06,3.06,0,0,1,3.07,3.07h0A3.07,3.07,0,0,1,55,148.76Z"/><path class="cls-3" d="M365.54,148.88H280.23a3.06,3.06,0,0,1-3.07-3.07h0a3.07,3.07,0,0,1,3.07-3.07h85.31a3.08,3.08,0,0,1,3.07,3.07h0A3.07,3.07,0,0,1,365.54,148.88Z"/><rect class="cls-1" x="206.52" y="142.62" width="6.14" height="6.14"/><path class="cls-5" d="M1131.69,148.69H1006a3.08,3.08,0,0,1-3.07-3.07h0a3.07,3.07,0,0,1,3.07-3.07h125.69a3.06,3.06,0,0,1,3.07,3.07h0A3.07,3.07,0,0,1,1131.69,148.69Z"/><path class="cls-1" d="M1287.58,142.56h16v6.14h-16a3.09,3.09,0,0,1-3.07-3.07h0A3.07,3.07,0,0,1,1287.58,142.56Z"/><path class="cls-2" d="M1238.07,148.69h0a3.08,3.08,0,0,1-3.07-3.07h0a3.07,3.07,0,0,1,3.07-3.07h0a3.06,3.06,0,0,1,3.07,3.07h0A3.07,3.07,0,0,1,1238.07,148.69Z"/><rect class="cls-3" x="934.32" y="142.62" width="6.14" height="6.14"/><path class="cls-4" d="M525.82,46.31h7.08A3.06,3.06,0,0,1,536,49.38h0a3.07,3.07,0,0,1-3.07,3.07h-7.08a3.08,3.08,0,0,1-3.07-3.07h0A3.07,3.07,0,0,1,525.82,46.31Z"/><polygon class="cls-1" points="108.02 143.86 104.96 146.92 108.02 149.98 108.02 143.86"/><path class="cls-2" d="M123,143.57h0a3.08,3.08,0,0,1,3.07,3.07h0a3.07,3.07,0,0,1-3.07,3.07h0a3.06,3.06,0,0,1-3.07-3.07h0A3.07,3.07,0,0,1,123,143.57Z"/><path class="cls-3" d="M497.52,174.57h35.25a3.08,3.08,0,0,1,3.07,3.07h0a3.07,3.07,0,0,1-3.07,3.07H497.52a3.06,3.06,0,0,1-3.07-3.07h0A3.07,3.07,0,0,1,497.52,174.57Z"/><polygon class="cls-1" points="830.88 79.61 827.82 82.67 830.88 85.73 830.88 79.61"/><path class="cls-5" d="M845.87,79.32h0a3.06,3.06,0,0,1,3.07,3.07h0a3.07,3.07,0,0,1-3.07,3.07h0a3.08,3.08,0,0,1-3.07-3.07h0A3.07,3.07,0,0,1,845.87,79.32Z"/><path class="cls-3" d="M785.33,79.68h21.38a3.06,3.06,0,0,1,3.07,3.07h0a3.07,3.07,0,0,1-3.07,3.07H785.33a3.08,3.08,0,0,1-3.07-3.07h0A3.07,3.07,0,0,1,785.33,79.68Z"/><path class="cls-5" d="M743.34,36.89H617.65a3.07,3.07,0,0,1-3.07-3.07h0a3.06,3.06,0,0,1,3.07-3.07H743.34a3.07,3.07,0,0,1,3.07,3.07h0A3.08,3.08,0,0,1,743.34,36.89Z"/><path class="cls-1" d="M603.11,21.54h0A3.08,3.08,0,0,1,600,18.47h0a3.07,3.07,0,0,1,3.07-3.07h0a3.06,3.06,0,0,1,3.07,3.07h0A3.07,3.07,0,0,1,603.11,21.54Z"/><path class="cls-5" d="M574.58,33.82h3.08a3.07,3.07,0,0,1,3.07,3.07h0A3.07,3.07,0,0,1,577.66,40h0a3.08,3.08,0,0,1-3.08-3.06h0Z"/><path class="cls-2" d="M738.05,55.52h0A3.08,3.08,0,0,1,735,52.45h0a3.07,3.07,0,0,1,3.07-3.07h0a3.06,3.06,0,0,1,3.07,3.07h0A3.07,3.07,0,0,1,738.05,55.52Z"/><path class="cls-6" d="M767.88,41.52l-3.07-3.09,3.07-3.07Z"/><path class="cls-5" d="M618,238.93h0a3.06,3.06,0,0,1,3.07,3.07h0a3.07,3.07,0,0,1-3.07,3.07h0A3.08,3.08,0,0,1,615,242h0A3.07,3.07,0,0,1,618,238.93Z"/><polygon class="cls-1" points="537.89 79.01 534.83 82.07 537.89 85.13 537.89 79.01"/><path class="cls-2" d="M871.39,79.5h0a3.07,3.07,0,0,1,3.08,3.07h0a3.08,3.08,0,0,1-3.08,3.07h0a3.07,3.07,0,0,1-3.07-3.07h0A3.06,3.06,0,0,1,871.39,79.5Z"/><rect class="cls-3" x="516.79" y="79.11" width="6.14" height="6.14"/><path class="cls-4" d="M489.41,85.26l-3.07-3.07,3.07-3.08Z"/><path class="cls-1" d="M371.65,111h94.63a3.06,3.06,0,0,1,3.07,3.07h0a3.07,3.07,0,0,1-3.07,3.07H371.65a3.07,3.07,0,0,1-3.07-3.07h0A3.06,3.06,0,0,1,371.65,111Z"/><path class="cls-11" d="M479.58,148.78H437.81a3.08,3.08,0,0,1-3.07-3.07h0a3.07,3.07,0,0,1,3.07-3.07h41.77a3.06,3.06,0,0,1,3.07,3.07h0A3.07,3.07,0,0,1,479.58,148.78Z"/><path class="cls-1" d="M175.49,78.08h17.78a3.07,3.07,0,0,1,3.07,3.07h0a3.06,3.06,0,0,1-3.07,3.07H175.49a3.07,3.07,0,0,1-3.07-3.07h0A3.08,3.08,0,0,1,175.49,78.08Z"/><path class="cls-7" d="M210.38,78.08h3.07v3.07a3.06,3.06,0,0,1-3.07,3.07h0a3.06,3.06,0,0,1-3.07-3v0h0a3.08,3.08,0,0,1,3.07-3.07Z"/><rect class="cls-2" x="150.25" y="78.54" width="6.14" height="6.14"/><polygon class="cls-2" points="253.91 174.87 250.84 177.93 253.91 180.99 253.91 174.87"/><rect class="cls-3" x="232.8" y="174.97" width="6.14" height="6.14"/><polygon class="cls-3" points="782.07 175.04 779 178.11 782.07 181.18 782.07 175.04"/><rect class="cls-2" x="962.04" y="101" width="6.18" height="6.13"/><path class="cls-1" d="M958,164.58h30.84a3.07,3.07,0,0,1,3.07,3.07h0a3.06,3.06,0,0,1-3.07,3.07H958a3.06,3.06,0,0,1-3.07-3.07h0A3.07,3.07,0,0,1,958,164.58Z"/><path class="cls-1" d="M1053.05,170.71h0a3.06,3.06,0,0,1-3.07-3.07h0a3.07,3.07,0,0,1,3.07-3.07h0a3.07,3.07,0,0,1,3.07,3.07h0A3.06,3.06,0,0,1,1053.05,170.71Z"/><path class="cls-2" d="M1024.51,164.58h3.11a3.08,3.08,0,0,1,3.08,3.06h0a3.08,3.08,0,0,1-3.08,3.07h0a3.08,3.08,0,0,1-3.07-3.07Z"/><polygon class="cls-4" points="1078.19 164.58 1075.12 167.65 1078.19 170.72 1078.19 164.58"/></svg>