<svg fill="none" height="39" viewBox="0 0 31 39" width="31" xmlns="http://www.w3.org/2000/svg"><path d="m15.6767.847499-10.50002-.009588c-2.75-.002511-5.002056 2.245429-5.004567 4.995429l-.025567 27.99996c-.002511 2.75 2.245434 5.0021 4.995434 5.0046l20.00002.0183c2.75.0025 5.002-2.2455 5.0045-4.9955l.0165-18.075c.0012-1.3-.5226-2.5754-1.6216-3.7014l-9.1414-9.4584c-1.0489-1.10096-2.2983-1.7771-3.7233-1.778401zm-.0019 2.000001c.75.00068 1.5997.40146 2.324 1.15212l9.1164 9.43328c.7243.7757 1.0486 1.526 1.0478 2.351l-.0165 18.075c-.0015 1.675-1.3277 2.9988-3.0027 2.9973l-19.99999-.0183c-1.675-.0015-2.99879-1.3277-2.99726-3.0027l.02556-28.00003c.00153-1.675 1.32774-2.99879 3.00274-2.99726zm2.687 14.2525-4.6-.0042 4.5428 7.8791 4.575.0042zm-6.3759 1.0691-4.68246 8.1208 2.29637 3.9771 4.68239-8.1208zm10.892 8.71-9.125-.0083-2.3036 3.9729 9.175.0083z" fill="#007a5a"/></svg>