<svg fill="none" height="39" viewBox="0 0 31 39" width="31" xmlns="http://www.w3.org/2000/svg"><path d="m15.5397.52328-10.49999-.009587c-2.75-.002511-5.0020493 2.245427-5.0045603 4.995427l-.02556664 27.99998c-.00251101 2.75 2.24543694 5.0021 4.99543694 5.0046l19.99998.0182c2.75.0026 5.0021-2.2454 5.0046-4.9954l.0165-18.075c.0012-1.3-.5227-2.5755-1.6216-3.7015l-9.1414-9.45832c-1.049-1.10096-2.2984-1.777099-3.7234-1.7784zm-.0018 2c.75.00068 1.5996.40146 2.3239 1.15212l9.1164 9.4333c.7243.7757 1.0486 1.526 1.0479 2.351l-.0165 18.075c-.0016 1.675-1.3278 2.9988-3.0028 2.9972l-19.99996-.0182c-1.675-.0016-2.99879-1.3278-2.99726-3.0028l.02557-27.99995c.00153-1.675 1.32774-2.99879 3.00274-2.99726zm4.5503 27.00412-2.05-.0018c-.125-.0001-.2499-.0253-.3249-.1003-.0999-.1001-.1498-.1502-.1998-.2502l-2.5461-4.2273c-.0501.1249-.1002.2499-.1503.3248l-2.4535 3.8978c-.0501.0999-.1252.1749-.2003.2498-.075.0749-.1751.0999-.3251.0997l-1.89997-.0017 3.65517-5.6467-3.4951-5.3532 2.025.0019c.15.0001.25.0252.3249.0503.075.025.1249.1001.1748.2001l2.4964 4.0273c.0501-.1249.1252-.2499.1753-.3748l2.3033-3.6229c.0751-.1.1251-.1249.2002-.1999.05-.0499.1501-.0748.2501-.0747l1.95.0018-3.5548 5.2467z" fill="#007a5a"/></svg>